<?xml version="1.0" encoding="UTF-8" standalone="no"?>
<!-- Created with Inkscape (http://www.inkscape.org/) -->

<svg
   version="1.1"
   id="svg2"
   width="1400"
   height="331"
   viewBox="0 0 1400 331"
   sodipodi:docname="coracoes.svg"
   inkscape:version="1.2.2 (1:1.2.2+202212051552+b0a8486541)"
   xmlns:inkscape="http://www.inkscape.org/namespaces/inkscape"
   xmlns:sodipodi="http://sodipodi.sourceforge.net/DTD/sodipodi-0.dtd"
   xmlns="http://www.w3.org/2000/svg"
   xmlns:svg="http://www.w3.org/2000/svg">
  <defs
     id="defs6">
    <clipPath
       clipPathUnits="userSpaceOnUse"
       id="clipPath22">
      <path
         d="M 0,0 H 22595 V 10799 H 0 Z"
         id="path20" />
    </clipPath>
    <clipPath
       clipPathUnits="userSpaceOnUse"
       id="clipPath28">
      <path
         d="m 22595.3,0 h -5000 v 5000.01 h 5000 z"
         id="path26" />
    </clipPath>
    <clipPath
       clipPathUnits="userSpaceOnUse"
       id="clipPath184">
      <path
         d="m 16713.4,0 h -5000 v 5000.01 h 5000 z"
         id="path182" />
    </clipPath>
    <clipPath
       clipPathUnits="userSpaceOnUse"
       id="clipPath196">
      <path
         d="M 16713.4,0.902344 H 12409 V 3796.07 h 4304.4 z"
         id="path194" />
    </clipPath>
    <clipPath
       clipPathUnits="userSpaceOnUse"
       id="clipPath236">
      <path
         d="m 13710.9,1100.51 h -1997.5 v 3899.5 h 1997.5 z"
         id="path234" />
    </clipPath>
    <clipPath
       clipPathUnits="userSpaceOnUse"
       id="clipPath262">
      <path
         d="m 13710.9,1100.51 h -1997.5 v 3899.5 h 1997.5 z"
         id="path260" />
    </clipPath>
    <clipPath
       clipPathUnits="userSpaceOnUse"
       id="clipPath268">
      <path
         d="m 13536.7,2629.11 c 0,793.22 -448.8,1553.44 -1234.8,1553.44 -786,0 -1234.7,-760.22 -1234.7,-1553.44 0,-205.79 87.5,-401.48 79.3,-578.44 -23.6,-505.17 2.4,-723.5 170.3,-723.5 194.9,0 200.1,1301.94 200.1,1301.94 0,0 287.7,158.62 785,158.62 497.3,0 773.9,-158.62 773.9,-158.62 0,0 5.1,-1301.94 200.1,-1301.94 167.9,0 205,218.33 181.5,723.5 -8.3,176.96 79.3,372.65 79.3,578.44 z"
         id="path266" />
    </clipPath>
    <clipPath
       clipPathUnits="userSpaceOnUse"
       id="clipPath328">
      <path
         d="M 0,0 H 22595 V 10799 H 0 Z"
         id="path326" />
    </clipPath>
    <clipPath
       clipPathUnits="userSpaceOnUse"
       id="clipPath334">
      <path
         d="m 22595.3,5798.2 h -5000 v 5000 h 5000 z"
         id="path332" />
    </clipPath>
    <clipPath
       clipPathUnits="userSpaceOnUse"
       id="clipPath346">
      <path
         d="m 17595.3,10798.2 h 4349.2 V 7084.17 h -4349.2 z"
         id="path344" />
    </clipPath>
    <clipPath
       clipPathUnits="userSpaceOnUse"
       id="clipPath376">
      <path
         d="M 0,0 H 22595 V 10799 H 0 Z"
         id="path374" />
    </clipPath>
    <clipPath
       clipPathUnits="userSpaceOnUse"
       id="clipPath382">
      <path
         d="m 22595.3,5798.2 h -3477.1 v 4462 h 3477.1 z"
         id="path380" />
    </clipPath>
    <clipPath
       clipPathUnits="userSpaceOnUse"
       id="clipPath406">
      <path
         d="M 0,0 H 22595 V 10799 H 0 Z"
         id="path404" />
    </clipPath>
    <clipPath
       clipPathUnits="userSpaceOnUse"
       id="clipPath412">
      <path
         d="m 22595.3,5798.2 h -3477.1 v 4462 h 3477.1 z"
         id="path410" />
    </clipPath>
    <clipPath
       clipPathUnits="userSpaceOnUse"
       id="clipPath418">
      <path
         d="m 20459.4,6726.43 c 52.3,583.98 3.3,970.42 177.5,1751.92 61.1,273.9 533.9,311.48 1070.9,311.48 537.1,0 1009.8,-37.58 1070.9,-311.48 174.3,-781.5 125.3,-1167.94 177.6,-1751.92 31.9,-356.88 115.5,-628.23 82.6,-931.7 -23,-211.92 -187.7,-297.78 -187.7,-297.78 0,0 -608.7,-85.2 -1143.4,-85.2 -534.7,0 -1143.3,85.2 -1143.3,85.2 0,0 -164.7,85.86 -187.7,297.78 -32.9,303.47 50.7,574.82 82.6,931.7 z"
         id="path416" />
    </clipPath>
    <clipPath
       clipPathUnits="userSpaceOnUse"
       id="clipPath466">
      <path
         d="m 19118,5798 h 3477 v 4463 h -3477 z"
         id="path464" />
    </clipPath>
    <clipPath
       clipPathUnits="userSpaceOnUse"
       id="clipPath478">
      <path
         d="m 22288,8754.04 c 0,-70.06 -259.7,-168.53 -580.2,-168.53 -320.4,0 -580.1,98.47 -580.1,168.53 l 36.6,371.73 c 0,76.5 193.7,93 543.5,93 349.9,0 543.6,-16.5 543.6,-93 z"
         id="path476" />
    </clipPath>
    <clipPath
       clipPathUnits="userSpaceOnUse"
       id="clipPath502">
      <path
         d="m 19118,5798 h 3477 v 4463 h -3477 z"
         id="path500" />
    </clipPath>
    <clipPath
       clipPathUnits="userSpaceOnUse"
       id="clipPath514">
      <path
         d="m 16713.4,5798.2 h -5000 v 5000 h 5000 z"
         id="path512" />
    </clipPath>
    <clipPath
       clipPathUnits="userSpaceOnUse"
       id="clipPath570">
      <path
         d="m 12733,9590.42 c 100.8,50.28 172.2,-20.25 205.3,-88.99 l 171.2,-367.9 c 6,6.83 12.3,12.78 18.3,19.18 l -201.1,605.49 c -25,72.29 -32.6,166.53 74.7,206.96 83.9,31.56 162.4,-43.84 187.4,-116.13 l 178.3,-554.28 c 2.2,0.69 3.9,1.43 6.1,2.13 l 17.3,4.36 -98.7,641.42 c -13.9,75.14 9.6,175.84 105,193.34 99.8,18.4 153.8,-68.1 167.7,-143.18 l 99.2,-639.89 c 8.9,-0.18 17.4,0.1 26.4,-0.08 l -18.1,430.52 c -6.3,76.56 28.9,171.68 120.2,179 95.2,7.64 149.8,-80.3 156.1,-156.45 l 28.5,-558.84 v 0 c 55.7,162.55 137.2,267.21 142,274.97 39.3,65.82 124.6,86.84 190.4,47.51 65.3,-39.73 86.8,-124.56 47.1,-190.35 -43.7,-72.76 -153.2,-257.05 -154.7,-483.73 -2,-308.34 -101.8,-446.08 -101.8,-446.08 l -874,-145.9 c 0,0 -170.8,157.74 -242.9,436.99 -0.2,0.6 -0.3,1.19 -0.5,1.79 -38.6,153.74 -105.1,240.08 -173.9,382.9 l -120,255.63 c -33.4,69.25 -23.8,175.57 44.5,209.61 z"
         id="path568" />
    </clipPath>
    <clipPath
       clipPathUnits="userSpaceOnUse"
       id="clipPath616">
      <path
         d="m 15703.9,9256.54 c -96.1,58.67 -173.2,-5.54 -212.1,-71.21 l -201.8,-352 c -5.4,7.3 -11.2,13.77 -16.6,20.66 l 251.8,586.19 c 31.1,69.9 46.7,163.15 -56.9,212.57 -80.8,38.58 -165.5,-29.86 -196.5,-99.77 L 15047,9015.86 c -2.1,0.89 -3.8,1.77 -5.9,2.66 l -16.9,5.81 153,630.7 c 20.2,73.64 5.3,175.99 -88.2,201.56 -98,26.79 -159.1,-54.74 -179.3,-128.39 l -153.3,-629.13 c -8.9,0.58 -17.3,1.58 -26.2,2.16 l 54.6,427.42 c 12.8,75.75 -14.2,173.52 -104.6,188.59 -94.2,15.7 -156,-67.28 -168.8,-142.62 l -76,-554.38 v 0 c -41.6,166.7 -113.9,277.9 -118,286.04 -33.6,68.93 -116.8,97.13 -185.7,63.53 -68.5,-34.02 -97.1,-116.71 -63.1,-185.65 37.3,-76.21 130.7,-269.15 112.9,-495.13 -24.2,-307.38 63.6,-453.12 63.6,-453.12 l 858.3,-219.71 c 0,0 183.7,142.64 279.3,414.75 0.2,0.57 0.4,1.15 0.6,1.73 51.5,149.91 125.1,230.28 205.8,366.72 l 141.4,244.5 c 39.2,66.15 38.6,172.91 -26.6,212.64 z"
         id="path614" />
    </clipPath>
    <clipPath
       clipPathUnits="userSpaceOnUse"
       id="clipPath812">
      <path
         d="M 0,0 H 22595 V 10799 H 0 Z"
         id="path810" />
    </clipPath>
    <clipPath
       clipPathUnits="userSpaceOnUse"
       id="clipPath818">
      <path
         d="M 10800,4511.32 H 0.90625 V 10799.1 H 10800 Z"
         id="path816" />
    </clipPath>
    <clipPath
       clipPathUnits="userSpaceOnUse"
       id="clipPath832">
      <path
         d="M 10800,395.703 H 6521.49 V 3675.47 H 10800 Z"
         id="path830" />
    </clipPath>
    <clipPath
       clipPathUnits="userSpaceOnUse"
       id="clipPath928">
      <path
         d="M 0,395.703 H 4278.51 V 3675.47 H 0 Z"
         id="path926" />
    </clipPath>
    <clipPath
       clipPathUnits="userSpaceOnUse"
       id="clipPath832-3">
      <path
         d="M 10800,395.703 H 6521.49 V 3675.47 H 10800 Z"
         id="path830-6" />
    </clipPath>
    <clipPath
       clipPathUnits="userSpaceOnUse"
       id="clipPath928-7">
      <path
         d="M 0,395.703 H 4278.51 V 3675.47 H 0 Z"
         id="path926-5" />
    </clipPath>
    <clipPath
       clipPathUnits="userSpaceOnUse"
       id="clipPath832-36">
      <path
         d="M 10800,395.703 H 6521.49 V 3675.47 H 10800 Z"
         id="path830-7" />
    </clipPath>
    <clipPath
       clipPathUnits="userSpaceOnUse"
       id="clipPath928-5">
      <path
         d="M 0,395.703 H 4278.51 V 3675.47 H 0 Z"
         id="path926-3" />
    </clipPath>
    <clipPath
       clipPathUnits="userSpaceOnUse"
       id="clipPath832-367">
      <path
         d="M 10800,395.703 H 6521.49 V 3675.47 H 10800 Z"
         id="path830-5" />
    </clipPath>
    <clipPath
       clipPathUnits="userSpaceOnUse"
       id="clipPath928-3">
      <path
         d="M 0,395.703 H 4278.51 V 3675.47 H 0 Z"
         id="path926-56" />
    </clipPath>
  </defs>
  <sodipodi:namedview
     id="namedview4"
     pagecolor="#ffffff"
     bordercolor="#000000"
     borderopacity="0.25"
     inkscape:showpageshadow="2"
     inkscape:pageopacity="0.0"
     inkscape:pagecheckerboard="0"
     inkscape:deskcolor="#d1d1d1"
     showgrid="false"
     inkscape:zoom="0.4635864"
     inkscape:cx="928.62949"
     inkscape:cy="-300.91478"
     inkscape:window-width="1846"
     inkscape:window-height="1016"
     inkscape:window-x="0"
     inkscape:window-y="0"
     inkscape:window-maximized="1"
     inkscape:current-layer="g10">
    <inkscape:page
       x="0"
       y="0"
       id="page8"
       width="1400"
       height="331" />
  </sodipodi:namedview>
  <g
     id="g10"
     inkscape:groupmode="layer"
     inkscape:label="Page 1"
     transform="matrix(1.3333333,0,0,-1.3333333,0,1439.88)">
    <path
       d="m 654.89623,1077.6124 c -16.652,0 -34.478,-10.228 -34.478,-35.85 0,25.622 -17.825,35.85 -34.477,35.85 -20.667,0 -37.42,-16.753 -37.42,-37.42 0,-39.034 71.897,-93.44503 71.897,-93.44503 0,0 71.898,54.41103 71.898,93.44503 0,20.667 -16.754,37.42 -37.42,37.42"
       style="fill:#aa0000;fill-opacity:1;fill-rule:nonzero;stroke:none;stroke-width:0.1"
       id="path914" />
  </g>
</svg>
