<?xml version="1.0" encoding="UTF-8" standalone="no"?>
<!-- Created with Inkscape (http://www.inkscape.org/) -->

<svg
   version="1.1"
   id="svg2"
   width="2900"
   height="1440"
   viewBox="0 0 2900 1440"
   sodipodi:docname="doacao.svg"
   inkscape:version="1.2.2 (1:1.2.2+202212051552+b0a8486541)"
   xmlns:inkscape="http://www.inkscape.org/namespaces/inkscape"
   xmlns:sodipodi="http://sodipodi.sourceforge.net/DTD/sodipodi-0.dtd"
   xmlns="http://www.w3.org/2000/svg"
   xmlns:svg="http://www.w3.org/2000/svg">
  <defs
     id="defs6">
    <clipPath
       clipPathUnits="userSpaceOnUse"
       id="clipPath22">
      <path
         d="M 0,0 H 22595 V 10799 H 0 Z"
         id="path20" />
    </clipPath>
    <clipPath
       clipPathUnits="userSpaceOnUse"
       id="clipPath28">
      <path
         d="m 22595.3,0 h -5000 v 5000.01 h 5000 z"
         id="path26" />
    </clipPath>
    <clipPath
       clipPathUnits="userSpaceOnUse"
       id="clipPath184">
      <path
         d="m 16713.4,0 h -5000 v 5000.01 h 5000 z"
         id="path182" />
    </clipPath>
    <clipPath
       clipPathUnits="userSpaceOnUse"
       id="clipPath196">
      <path
         d="M 16713.4,0.902344 H 12409 V 3796.07 h 4304.4 z"
         id="path194" />
    </clipPath>
    <clipPath
       clipPathUnits="userSpaceOnUse"
       id="clipPath236">
      <path
         d="m 13710.9,1100.51 h -1997.5 v 3899.5 h 1997.5 z"
         id="path234" />
    </clipPath>
    <clipPath
       clipPathUnits="userSpaceOnUse"
       id="clipPath262">
      <path
         d="m 13710.9,1100.51 h -1997.5 v 3899.5 h 1997.5 z"
         id="path260" />
    </clipPath>
    <clipPath
       clipPathUnits="userSpaceOnUse"
       id="clipPath268">
      <path
         d="m 13536.7,2629.11 c 0,793.22 -448.8,1553.44 -1234.8,1553.44 -786,0 -1234.7,-760.22 -1234.7,-1553.44 0,-205.79 87.5,-401.48 79.3,-578.44 -23.6,-505.17 2.4,-723.5 170.3,-723.5 194.9,0 200.1,1301.94 200.1,1301.94 0,0 287.7,158.62 785,158.62 497.3,0 773.9,-158.62 773.9,-158.62 0,0 5.1,-1301.94 200.1,-1301.94 167.9,0 205,218.33 181.5,723.5 -8.3,176.96 79.3,372.65 79.3,578.44 z"
         id="path266" />
    </clipPath>
    <clipPath
       clipPathUnits="userSpaceOnUse"
       id="clipPath328">
      <path
         d="M 0,0 H 22595 V 10799 H 0 Z"
         id="path326" />
    </clipPath>
    <clipPath
       clipPathUnits="userSpaceOnUse"
       id="clipPath334">
      <path
         d="m 22595.3,5798.2 h -5000 v 5000 h 5000 z"
         id="path332" />
    </clipPath>
    <clipPath
       clipPathUnits="userSpaceOnUse"
       id="clipPath346">
      <path
         d="m 17595.3,10798.2 h 4349.2 V 7084.17 h -4349.2 z"
         id="path344" />
    </clipPath>
    <clipPath
       clipPathUnits="userSpaceOnUse"
       id="clipPath376">
      <path
         d="M 0,0 H 22595 V 10799 H 0 Z"
         id="path374" />
    </clipPath>
    <clipPath
       clipPathUnits="userSpaceOnUse"
       id="clipPath382">
      <path
         d="m 22595.3,5798.2 h -3477.1 v 4462 h 3477.1 z"
         id="path380" />
    </clipPath>
    <clipPath
       clipPathUnits="userSpaceOnUse"
       id="clipPath406">
      <path
         d="M 0,0 H 22595 V 10799 H 0 Z"
         id="path404" />
    </clipPath>
    <clipPath
       clipPathUnits="userSpaceOnUse"
       id="clipPath412">
      <path
         d="m 22595.3,5798.2 h -3477.1 v 4462 h 3477.1 z"
         id="path410" />
    </clipPath>
    <clipPath
       clipPathUnits="userSpaceOnUse"
       id="clipPath418">
      <path
         d="m 20459.4,6726.43 c 52.3,583.98 3.3,970.42 177.5,1751.92 61.1,273.9 533.9,311.48 1070.9,311.48 537.1,0 1009.8,-37.58 1070.9,-311.48 174.3,-781.5 125.3,-1167.94 177.6,-1751.92 31.9,-356.88 115.5,-628.23 82.6,-931.7 -23,-211.92 -187.7,-297.78 -187.7,-297.78 0,0 -608.7,-85.2 -1143.4,-85.2 -534.7,0 -1143.3,85.2 -1143.3,85.2 0,0 -164.7,85.86 -187.7,297.78 -32.9,303.47 50.7,574.82 82.6,931.7 z"
         id="path416" />
    </clipPath>
    <clipPath
       clipPathUnits="userSpaceOnUse"
       id="clipPath466">
      <path
         d="m 19118,5798 h 3477 v 4463 h -3477 z"
         id="path464" />
    </clipPath>
    <clipPath
       clipPathUnits="userSpaceOnUse"
       id="clipPath478">
      <path
         d="m 22288,8754.04 c 0,-70.06 -259.7,-168.53 -580.2,-168.53 -320.4,0 -580.1,98.47 -580.1,168.53 l 36.6,371.73 c 0,76.5 193.7,93 543.5,93 349.9,0 543.6,-16.5 543.6,-93 z"
         id="path476" />
    </clipPath>
    <clipPath
       clipPathUnits="userSpaceOnUse"
       id="clipPath502">
      <path
         d="m 19118,5798 h 3477 v 4463 h -3477 z"
         id="path500" />
    </clipPath>
    <clipPath
       clipPathUnits="userSpaceOnUse"
       id="clipPath514">
      <path
         d="m 16713.4,5798.2 h -5000 v 5000 h 5000 z"
         id="path512" />
    </clipPath>
    <clipPath
       clipPathUnits="userSpaceOnUse"
       id="clipPath570">
      <path
         d="m 12733,9590.42 c 100.8,50.28 172.2,-20.25 205.3,-88.99 l 171.2,-367.9 c 6,6.83 12.3,12.78 18.3,19.18 l -201.1,605.49 c -25,72.29 -32.6,166.53 74.7,206.96 83.9,31.56 162.4,-43.84 187.4,-116.13 l 178.3,-554.28 c 2.2,0.69 3.9,1.43 6.1,2.13 l 17.3,4.36 -98.7,641.42 c -13.9,75.14 9.6,175.84 105,193.34 99.8,18.4 153.8,-68.1 167.7,-143.18 l 99.2,-639.89 c 8.9,-0.18 17.4,0.1 26.4,-0.08 l -18.1,430.52 c -6.3,76.56 28.9,171.68 120.2,179 95.2,7.64 149.8,-80.3 156.1,-156.45 l 28.5,-558.84 v 0 c 55.7,162.55 137.2,267.21 142,274.97 39.3,65.82 124.6,86.84 190.4,47.51 65.3,-39.73 86.8,-124.56 47.1,-190.35 -43.7,-72.76 -153.2,-257.05 -154.7,-483.73 -2,-308.34 -101.8,-446.08 -101.8,-446.08 l -874,-145.9 c 0,0 -170.8,157.74 -242.9,436.99 -0.2,0.6 -0.3,1.19 -0.5,1.79 -38.6,153.74 -105.1,240.08 -173.9,382.9 l -120,255.63 c -33.4,69.25 -23.8,175.57 44.5,209.61 z"
         id="path568" />
    </clipPath>
    <clipPath
       clipPathUnits="userSpaceOnUse"
       id="clipPath616">
      <path
         d="m 15703.9,9256.54 c -96.1,58.67 -173.2,-5.54 -212.1,-71.21 l -201.8,-352 c -5.4,7.3 -11.2,13.77 -16.6,20.66 l 251.8,586.19 c 31.1,69.9 46.7,163.15 -56.9,212.57 -80.8,38.58 -165.5,-29.86 -196.5,-99.77 L 15047,9015.86 c -2.1,0.89 -3.8,1.77 -5.9,2.66 l -16.9,5.81 153,630.7 c 20.2,73.64 5.3,175.99 -88.2,201.56 -98,26.79 -159.1,-54.74 -179.3,-128.39 l -153.3,-629.13 c -8.9,0.58 -17.3,1.58 -26.2,2.16 l 54.6,427.42 c 12.8,75.75 -14.2,173.52 -104.6,188.59 -94.2,15.7 -156,-67.28 -168.8,-142.62 l -76,-554.38 v 0 c -41.6,166.7 -113.9,277.9 -118,286.04 -33.6,68.93 -116.8,97.13 -185.7,63.53 -68.5,-34.02 -97.1,-116.71 -63.1,-185.65 37.3,-76.21 130.7,-269.15 112.9,-495.13 -24.2,-307.38 63.6,-453.12 63.6,-453.12 l 858.3,-219.71 c 0,0 183.7,142.64 279.3,414.75 0.2,0.57 0.4,1.15 0.6,1.73 51.5,149.91 125.1,230.28 205.8,366.72 l 141.4,244.5 c 39.2,66.15 38.6,172.91 -26.6,212.64 z"
         id="path614" />
    </clipPath>
    <clipPath
       clipPathUnits="userSpaceOnUse"
       id="clipPath812">
      <path
         d="M 0,0 H 22595 V 10799 H 0 Z"
         id="path810" />
    </clipPath>
    <clipPath
       clipPathUnits="userSpaceOnUse"
       id="clipPath818">
      <path
         d="M 10800,4511.32 H 0.90625 V 10799.1 H 10800 Z"
         id="path816" />
    </clipPath>
    <clipPath
       clipPathUnits="userSpaceOnUse"
       id="clipPath832">
      <path
         d="M 10800,395.703 H 6521.49 V 3675.47 H 10800 Z"
         id="path830" />
    </clipPath>
    <clipPath
       clipPathUnits="userSpaceOnUse"
       id="clipPath928">
      <path
         d="M 0,395.703 H 4278.51 V 3675.47 H 0 Z"
         id="path926" />
    </clipPath>
  </defs>
  <sodipodi:namedview
     id="namedview4"
     pagecolor="#ffffff"
     bordercolor="#000000"
     borderopacity="0.25"
     inkscape:showpageshadow="2"
     inkscape:pageopacity="0.0"
     inkscape:pagecheckerboard="0"
     inkscape:deskcolor="#d1d1d1"
     showgrid="false"
     inkscape:zoom="0.32780509"
     inkscape:cx="1513.0942"
     inkscape:cy="816.03369"
     inkscape:window-width="1366"
     inkscape:window-height="836"
     inkscape:window-x="0"
     inkscape:window-y="0"
     inkscape:window-maximized="1"
     inkscape:current-layer="g10">
    <inkscape:page
       x="0"
       y="0"
       id="page8"
       width="2900"
       height="1440" />
  </sodipodi:namedview>
  <g
     id="g10"
     inkscape:groupmode="layer"
     inkscape:label="Page 1"
     transform="matrix(1.3333333,0,0,-1.3333333,0,1439.88)">
    <path
       d="M 2175.0907,-0.090027 H 0.090625 V 1079.91 H 2175.0907 V -0.090027"
       style="fill:#0e4696;fill-opacity:1;fill-rule:nonzero;stroke:none;stroke-width:0.141936"
       id="path730" />
    <g
       id="g806"
       transform="scale(0.1)">
      <g
         id="g808"
         clip-path="url(#clipPath812)">
        <g
           id="g814"
           clip-path="url(#clipPath818)">
          <path
             d="m 1855.72,11259.3 c 278,-263.5 542.38,-591.6 546.08,-994 3.69,-402.03 -306.41,-662.67 -597.38,-890.8 C 1506.09,9140.6 1186.76,8931.18 914.168,8666.02 662.73,8421.43 426.996,8101.84 424.148,7735.4 c -2.55,-327.97 235.918,-595.98 563.282,-628.54 150.53,-14.98 312.75,24.72 426.07,128.7 114.3,104.86 160.47,329.97 -10.4,409.5 -146.28,68.08 -359.68,5.19 -472.194,-91.26 C 812.199,7452.04 736.969,7358.73 699.059,7150.56 577.531,6483.24 1398.52,5192.25 -821.926,4924.74"
             style="fill:none;stroke:#ffffff;stroke-width:50;stroke-linecap:round;stroke-linejoin:round;stroke-miterlimit:10;stroke-dasharray:124.361, 124.361;stroke-dashoffset:0;stroke-opacity:1"
             id="path820" />
          <path
             d="m 8004.57,11396.4 c -191.74,-243.5 -196.32,-614.3 -13.51,-863.9 230.7,-315 641.41,-371.8 1002.05,-397.1 168.32,-11.8 352,-14.1 506.63,-89.7 142.64,-69.8 235.27,-201.63 268.66,-354.67 58.94,-270.08 26.86,-652.75 -266.03,-776.1 -212.9,-89.67 -539.58,-12.92 -486.71,276.65 25.82,141.43 149.69,245.11 286.2,274.55 160.16,34.54 333.98,-32.6 463.81,-123.64 317.33,-222.48 415.53,-633.51 273.83,-986.01 -73.52,-183.01 -193.68,-340.46 -299.78,-505.06 -106.83,-165.73 -176.91,-337.28 -181.3,-536.78 -17.04,-774.2 686.28,-1371.2 1506.48,-1595.27"
             style="fill:none;stroke:#ffffff;stroke-width:52.489;stroke-linecap:round;stroke-linejoin:round;stroke-miterlimit:10;stroke-dasharray:130.552, 130.552;stroke-dashoffset:0;stroke-opacity:1"
             id="path822" />
        </g>
      </g>
    </g>
    <path
       d="M 994.65,514.957 C 994.65,332.208 788.603,169.9301 534.434,152.5102 280.266,135.0801 74.2219,269.094 74.2219,451.842 74.2219,634.59 280.266,796.866 534.434,814.294 788.603,831.723 994.65,697.705 994.65,514.957"
       style="fill:#0e7496;fill-opacity:1;fill-rule:nonzero;stroke:none;stroke-width:0.1"
       id="path824" />
    <path
       d="m 325.32,728.336 c 4.647,5.437 10.65,9.399 18.186,10.649 18.066,2.997 54.954,-4.413 73.194,-2.949 20.28,1.629 45.907,7.398 81.19,5.576 34.794,-1.797 103.848,-14.915 138.574,-14.806 34.046,0.107 73.305,14.309 114.059,11.177 23.109,-1.776 35.152,-28.502 35.201,-48.403 0.039,-15.831 -4.235,-30.051 -13.238,-39.786 -4.629,-5.014 -11.169,-7.81 -17.991,-7.826 -25.278,-0.062 -50.557,-0.123 -75.835,-0.185 -45.5,-0.111 -72.999,-0.221 -118.498,-0.332 -65.964,-0.161 -132.154,0.711 -198.091,-0.622 -12.114,-0.245 -27.197,-1.98 -36.363,7.834 -9.05,9.691 -13.392,23.89 -13.431,39.72 -0.03,12.708 3.86,29.209 13.043,39.953"
       style="fill:#934b00;fill-opacity:1;fill-rule:nonzero;stroke:none;stroke-width:0.1"
       id="path846" />
    <path
       d="m 553.594,688.1 c 1.014,-1.149 1.462,-2.501 1.703,-3.838 0.215,-1.345 0.168,-2.705 -0.123,-4.021 -0.293,-1.315 -0.826,-2.595 -1.631,-3.737 -0.822,-1.117 -1.9,-2.168 -3.379,-2.605 l -0.069,-0.02 c -0.06,-0.018 -0.123,0.016 -0.14,0.077 -0.011,0.035 -0.003,0.072 0.017,0.1 0.726,0.981 1.281,2.077 1.744,3.204 0.454,1.134 0.792,2.315 1.043,3.511 0.274,1.192 0.461,2.406 0.56,3.627 0.088,1.222 0.115,2.45 0.029,3.673 -0.005,0.063 0.043,0.117 0.105,0.121 0.036,0.003 0.07,-0.012 0.092,-0.037 l 0.049,-0.055"
       style="fill:#23304e;fill-opacity:1;fill-rule:nonzero;stroke:none;stroke-width:0.1"
       id="path848" />
    <path
       d="m 551.033,711.196 c 1.276,-0.621 2.118,-1.513 2.828,-2.459 0.689,-0.958 1.19,-2.007 1.51,-3.113 0.324,-1.102 0.47,-2.263 0.401,-3.448 -0.083,-1.184 -0.348,-2.398 -1.078,-3.59 l -0.041,-0.067 c -0.031,-0.053 -0.1,-0.069 -0.152,-0.037 -0.029,0.017 -0.047,0.046 -0.052,0.076 -0.188,1.076 -0.373,2.149 -0.612,3.212 -0.234,1.064 -0.516,2.118 -0.838,3.158 -0.293,1.049 -0.623,2.089 -0.994,3.113 -0.378,1.022 -0.767,2.044 -1.193,3.044 -0.024,0.057 0.002,0.122 0.059,0.147 0.03,0.013 0.064,0.011 0.092,-0.002 l 0.07,-0.034"
       style="fill:#23304e;fill-opacity:1;fill-rule:nonzero;stroke:none;stroke-width:0.1"
       id="path850" />
    <path
       d="m 564.943,700.028 c 1.14,-0.897 1.815,-1.995 2.328,-3.134 0.487,-1.147 0.758,-2.355 0.823,-3.571 0.066,-1.216 -0.067,-2.441 -0.417,-3.63 -0.376,-1.186 -0.905,-2.346 -1.909,-3.388 l -0.054,-0.056 c -0.043,-0.044 -0.113,-0.046 -0.158,-0.003 -0.025,0.023 -0.036,0.056 -0.034,0.088 0.161,2.285 0.276,4.571 0.103,6.85 -0.084,2.284 -0.455,4.542 -0.922,6.782 -0.013,0.061 0.026,0.119 0.086,0.132 0.033,0.007 0.067,-10e-4 0.091,-0.021 l 0.063,-0.049"
       style="fill:#23304e;fill-opacity:1;fill-rule:nonzero;stroke:none;stroke-width:0.1"
       id="path852" />
    <path
       d="m 649.359,712.138 c 1.292,-0.824 2.097,-1.999 2.697,-3.218 0.578,-1.232 0.909,-2.553 0.993,-3.898 0.081,-1.344 -0.077,-2.722 -0.536,-4.042 -0.481,-1.3 -1.226,-2.608 -2.527,-3.437 l -0.06,-0.038 c -0.053,-0.034 -0.123,-0.018 -0.156,0.035 -0.02,0.031 -0.023,0.068 -0.011,0.1 0.427,1.144 0.657,2.351 0.79,3.562 0.123,1.215 0.122,2.443 0.033,3.663 -0.067,1.221 -0.222,2.44 -0.464,3.64 -0.253,1.199 -0.567,2.386 -0.988,3.538 -0.021,0.059 0.009,0.124 0.068,0.145 0.034,0.013 0.07,0.008 0.099,-0.01 l 0.062,-0.04"
       style="fill:#23304e;fill-opacity:1;fill-rule:nonzero;stroke:none;stroke-width:0.1"
       id="path854" />
    <path
       d="m 638.901,701.646 c 1.016,-1.037 1.544,-2.212 1.905,-3.409 0.337,-1.199 0.449,-2.432 0.357,-3.646 -0.091,-1.215 -0.38,-2.412 -0.88,-3.546 -0.526,-1.128 -1.2,-2.211 -2.33,-3.115 l -0.061,-0.049 c -0.048,-0.038 -0.118,-0.03 -0.157,0.018 -0.021,0.027 -0.028,0.06 -0.021,0.092 0.453,2.245 0.861,4.497 0.983,6.779 0.21,2.276 0.134,4.563 -0.042,6.845 -0.004,0.061 0.042,0.115 0.103,0.12 0.034,0.002 0.066,-0.01 0.088,-0.033 l 0.055,-0.056"
       style="fill:#23304e;fill-opacity:1;fill-rule:nonzero;stroke:none;stroke-width:0.1"
       id="path856" />
    <path
       d="m 725.463,707.703 c -0.18,1.218 -0.412,2.427 -0.684,3.626 -0.28,1.196 -0.626,2.377 -1.044,3.529 -0.393,1.161 -0.861,2.297 -1.435,3.377 -0.584,1.073 -1.252,2.104 -2.062,3.021 -0.042,0.047 -0.037,0.119 0.01,0.16 0.027,0.024 0.063,0.033 0.096,0.026 l 0.072,-0.014 c 1.509,-0.306 2.681,-1.225 3.618,-2.243 0.921,-1.043 1.589,-2.249 2.034,-3.507 0.445,-1.26 0.664,-2.581 0.647,-3.919 -0.043,-1.339 -0.263,-2.699 -1.006,-4.031 l -0.036,-0.064 c -0.03,-0.054 -0.099,-0.074 -0.153,-0.043 -0.032,0.017 -0.052,0.048 -0.057,0.082"
       style="fill:#23304e;fill-opacity:1;fill-rule:nonzero;stroke:none;stroke-width:0.1"
       id="path858" />
    <path
       d="m 736.779,695.833 c 0.46,2.256 0.658,4.565 0.477,6.857 -0.098,2.298 -0.59,4.56 -1.308,6.75 -0.019,0.059 0.013,0.122 0.072,0.141 0.032,0.011 0.067,0.005 0.094,-0.011 l 0.065,-0.042 c 1.234,-0.78 2.009,-1.864 2.593,-3.013 0.56,-1.159 0.873,-2.411 0.952,-3.674 0.082,-1.263 -0.076,-2.542 -0.488,-3.76 -0.435,-1.211 -1.074,-2.393 -2.218,-3.31 l -0.059,-0.048 c -0.048,-0.038 -0.119,-0.031 -0.158,0.018 -0.021,0.027 -0.028,0.061 -0.022,0.092"
       style="fill:#23304e;fill-opacity:1;fill-rule:nonzero;stroke:none;stroke-width:0.1"
       id="path860" />
    <path
       d="m 747.2,710.012 c -0.2,2.061 -0.653,4.102 -1.49,5.987 -0.389,0.953 -0.864,1.872 -1.444,2.719 -0.588,0.84 -1.261,1.625 -2.061,2.273 -0.048,0.038 -0.055,0.108 -0.017,0.155 0.021,0.025 0.049,0.039 0.08,0.04 l 0.082,0.005 c 1.387,0.074 2.58,-0.557 3.53,-1.332 0.942,-0.8 1.645,-1.81 2.107,-2.897 0.464,-1.087 0.686,-2.262 0.643,-3.448 -0.069,-1.185 -0.347,-2.395 -1.183,-3.491 l -0.051,-0.066 c -0.037,-0.049 -0.105,-0.058 -0.154,-0.021 -0.025,0.019 -0.039,0.047 -0.042,0.076"
       style="fill:#23304e;fill-opacity:1;fill-rule:nonzero;stroke:none;stroke-width:0.1"
       id="path862" />
    <path
       d="m 747.402,687.019 c 0.199,0.912 0.298,1.862 0.39,2.799 0.078,0.943 0.1,1.89 0.093,2.836 0.048,1.896 -0.113,3.787 -0.255,5.685 -0.005,0.059 0.04,0.111 0.099,0.115 0.029,0.003 0.056,-0.007 0.077,-0.025 l 0.069,-0.058 c 0.986,-0.835 1.527,-1.773 1.929,-2.739 0.371,-0.969 0.559,-1.974 0.554,-2.988 -0.003,-1.013 -0.187,-2.034 -0.593,-3.018 -0.434,-0.972 -1.014,-1.951 -2.126,-2.68 l -0.067,-0.044 c -0.051,-0.033 -0.12,-0.019 -0.154,0.033 -0.017,0.025 -0.021,0.056 -0.016,0.084"
       style="fill:#23304e;fill-opacity:1;fill-rule:nonzero;stroke:none;stroke-width:0.1"
       id="path864" />
    <path
       d="m 312.277,688.38 c 0.037,-15.826 4.377,-30.024 13.431,-39.715 9.166,-9.82 24.254,-8.081 36.366,-7.837 45.289,0.916 90.691,0.795 136.065,0.682 26.797,8.418 33.251,40.472 33.251,46.449 0,32.644 -17.201,50.312 -38.209,53.848 -32.867,1.113 -57.121,-4.218 -76.483,-5.771 -18.239,-1.468 -55.129,5.949 -73.191,2.946 -7.539,-1.244 -13.543,-5.21 -18.191,-10.644 -9.176,-10.747 -13.068,-27.246 -13.039,-39.958"
       style="fill:#f0820e;fill-opacity:1;fill-rule:nonzero;stroke:none;stroke-width:0.1"
       id="path866" />
    <path
       d="m 348.946,660.42 c 27.627,0.074 55.238,-0.948 82.852,-1.09 6.904,-0.02 13.808,-0.024 20.709,0.101 6.897,0.117 13.813,0.268 20.686,0.659 6.825,0.562 13.717,2.056 19.664,5.495 2.952,1.718 5.611,3.962 7.643,6.701 2.042,2.731 3.408,5.927 4.163,9.258 1.491,6.67 1.012,13.788 -1.302,20.217 -1.174,3.205 -2.863,6.244 -5.147,8.773 -0.61,0.591 -1.16,1.25 -1.818,1.786 -0.679,0.509 -1.298,1.104 -2.024,1.544 -0.737,0.421 -1.429,0.915 -2.203,1.278 -0.778,0.354 -1.532,0.76 -2.339,1.048 -6.367,2.577 -13.35,3.212 -20.205,3.105 -6.882,-0.102 -13.749,-0.924 -20.637,-1.448 -13.769,-1.109 -27.584,-1.869 -41.41,-1.772 -13.827,0.07 -27.626,0.931 -41.406,1.834 -3.447,0.216 -6.889,0.525 -10.321,0.6 -3.432,0.079 -6.874,-0.073 -10.238,-0.683 -3.337,-0.617 -6.694,-1.652 -9.524,-3.464 -2.774,-1.911 -4.912,-4.704 -6.175,-7.852 -0.692,-1.553 -1.092,-3.216 -1.429,-4.879 -0.241,-1.679 -0.433,-3.38 -0.321,-5.079 0.093,-3.401 1.036,-6.763 2.738,-9.687 0.898,-1.433 1.957,-2.765 3.2,-3.918 1.261,-1.131 2.661,-2.102 4.153,-2.918 1.508,-0.786 3.095,-1.42 4.722,-1.937 1.635,-0.495 3.307,-0.864 4.995,-1.153 3.382,-0.545 6.828,-0.685 10.274,-0.799 3.444,-0.104 6.893,-0.108 10.342,-0.063 l 20.709,0.467 41.43,-0.023 10.362,0.01 c 3.456,-0.007 6.905,-0.077 10.342,0.072 3.431,0.146 6.874,0.518 10.175,1.398 3.256,0.95 6.345,2.698 8.606,5.226 1.113,1.264 2.026,2.751 2.361,4.382 0.304,1.631 0.024,3.36 -0.789,4.829 -1.613,2.975 -4.591,5.061 -7.785,6.162 -3.228,1.134 -6.667,1.586 -10.096,1.686 -3.436,0.109 -6.875,-0.166 -10.322,-0.378 -13.779,-0.884 -27.565,-1.846 -41.378,-2.183 -13.809,-0.365 -27.622,-0.407 -41.432,-0.412 -0.11,0 -0.2,0.09 -0.2,0.2 0,0.101 0.076,0.184 0.173,0.197 l 0.027,0.003 c 13.807,1.846 27.598,2.288 41.355,2.766 13.754,0.441 27.458,1.502 41.259,2.493 6.783,0.491 14.287,1.185 21.691,-1.33 0.458,-0.162 0.91,-0.337 1.368,-0.517 0.469,-0.218 0.958,-0.406 1.406,-0.66 0.919,-0.47 1.788,-1.026 2.618,-1.65 1.657,-1.239 3.143,-2.83 4.241,-4.834 1.114,-1.973 1.612,-4.59 1.147,-7.024 -0.138,-0.589 -0.294,-1.189 -0.502,-1.746 -0.236,-0.526 -0.456,-1.119 -0.737,-1.578 -0.527,-0.976 -1.175,-1.842 -1.865,-2.643 -2.821,-3.167 -6.357,-5.156 -10.191,-6.319 -1.004,-0.285 -1.883,-0.471 -2.801,-0.66 -0.914,-0.181 -1.827,-0.326 -2.74,-0.46 -1.824,-0.247 -3.638,-0.396 -5.432,-0.487 -3.588,-0.182 -7.096,-0.134 -10.503,-0.154 l -10.307,-0.089 -20.751,-0.119 -10.376,0.003 -5.186,10e-4 c -1.702,0.004 -3.407,-0.007 -5.115,-0.03 l -20.71,-0.49 c -3.486,-0.048 -6.99,-0.048 -10.509,0.055 -1.761,0.054 -3.524,0.133 -5.289,0.237 -1.824,0.12 -3.658,0.312 -5.497,0.6 -1.841,0.311 -3.686,0.715 -5.521,1.27 -1.832,0.579 -3.651,1.299 -5.414,2.219 -1.753,0.953 -3.434,2.111 -4.964,3.486 -1.515,1.399 -2.822,3.031 -3.915,4.784 -2.094,3.568 -3.193,7.608 -3.309,11.554 -0.125,1.984 0.085,3.958 0.37,5.914 0.385,1.942 0.859,3.88 1.671,5.727 1.494,3.714 4.072,7.188 7.615,9.623 0.435,0.309 0.922,0.549 1.384,0.82 0.468,0.262 0.949,0.541 1.383,0.715 0.886,0.415 1.793,0.764 2.703,1.098 1.828,0.646 3.692,1.109 5.552,1.45 7.458,1.376 14.793,0.585 21.539,0.161 13.761,-0.932 27.484,-1.83 41.164,-1.934 13.681,-0.133 27.37,0.581 41.084,1.647 l 10.309,0.851 c 3.477,0.284 7.005,0.512 10.579,0.553 7.112,0.086 14.581,-0.564 21.634,-3.431 0.887,-0.323 1.733,-0.772 2.594,-1.17 0.857,-0.407 1.736,-1.007 2.594,-1.513 0.86,-0.532 1.597,-1.221 2.393,-1.835 0.772,-0.64 1.418,-1.397 2.124,-2.097 2.651,-2.953 4.537,-6.402 5.835,-9.966 1.291,-3.575 2.033,-7.29 2.241,-11.031 0.21,-3.739 -0.064,-7.511 -0.941,-11.213 -0.86,-3.683 -2.459,-7.383 -4.834,-10.5 -2.361,-3.133 -5.414,-5.651 -8.698,-7.526 -3.292,-1.885 -6.807,-3.176 -10.352,-4.081 -3.55,-0.901 -7.143,-1.42 -10.728,-1.677 l -2.689,-0.143 -2.602,-0.071 -5.199,-0.14 c -3.465,-0.048 -6.931,-0.134 -10.395,-0.139 -6.928,-0.067 -13.85,-0.005 -20.769,0.074 -13.836,0.192 -27.652,0.594 -41.453,0.979 -6.902,0.207 -13.8,0.321 -20.695,0.626 -6.895,0.327 -13.782,0.866 -20.688,1.858 l -0.028,0.004 c -0.109,0.016 -0.185,0.117 -0.169,0.225 0.014,0.1 0.099,0.171 0.196,0.171"
       style="fill:#23304e;fill-opacity:1;fill-rule:nonzero;stroke:none;stroke-width:0.1"
       id="path868" />
    <path
       d="m 312.078,688.383 c -0.267,11.246 1.899,22.71 7.137,32.929 1.332,2.536 2.831,5.013 4.65,7.273 1.765,2.299 3.842,4.385 6.155,6.2 2.317,1.811 4.909,3.306 7.678,4.394 1.384,0.544 2.814,0.969 4.262,1.314 1.462,0.357 2.891,0.485 4.339,0.718 5.772,0.664 11.468,0.524 17.127,0.311 5.66,-0.241 11.284,-0.659 16.891,-1.105 5.603,-0.451 11.19,-0.924 16.755,-1.292 5.556,-0.352 11.128,-0.653 16.527,-0.42 2.641,0.128 5.417,0.425 8.172,0.761 2.756,0.326 5.52,0.704 8.292,1.091 5.545,0.748 11.125,1.494 16.729,2.176 11.211,1.349 22.541,2.312 33.904,2.489 5.682,0.133 11.367,-0.015 17.048,-0.23 2.836,-0.172 5.689,-0.322 8.513,-0.552 2.817,-0.257 5.652,-0.455 8.455,-0.764 11.242,-1.129 22.405,-2.536 33.549,-3.991 22.251,-3.07 44.449,-6.412 66.657,-8.499 2.772,-0.217 5.549,-0.486 8.317,-0.662 l 4.151,-0.239 c 1.386,-0.089 2.768,-0.161 4.142,-0.175 l 4.13,-0.096 c 1.378,-0.043 2.743,0.043 4.115,0.058 2.738,0.011 5.489,0.237 8.239,0.413 2.75,0.201 5.505,0.517 8.26,0.801 2.757,0.362 5.507,0.676 8.273,1.068 5.523,0.73 11.054,1.586 16.6,2.444 11.088,1.72 22.244,3.476 33.517,4.54 11.263,1.067 22.655,1.502 33.993,0.6 l 2.129,-0.165 2.207,-0.3 2.18,-0.453 c 0.715,-0.202 1.433,-0.391 2.141,-0.606 2.824,-0.908 5.501,-2.221 7.944,-3.845 4.901,-3.255 8.829,-7.684 11.87,-12.536 6.044,-9.758 9.009,-21.182 8.798,-32.453 -10e-4,-0.11 -0.09,-0.2 -0.201,-0.2 -0.108,10e-4 -0.197,0.091 -0.199,0.199 -0.039,5.593 -0.951,11.171 -2.539,16.532 -1.598,5.358 -3.891,10.525 -6.963,15.196 -3.067,4.657 -6.961,8.83 -11.682,11.813 -4.702,3.01 -10.221,4.64 -15.819,4.715 -11.191,0.696 -22.43,0.131 -33.574,-1.095 -11.152,-1.215 -22.218,-3.119 -33.285,-5.002 -11.07,-1.853 -22.154,-3.781 -33.368,-4.7 -11.22,-0.993 -22.505,-0.437 -33.688,0.523 -22.387,1.984 -44.621,5.215 -66.877,8.164 -11.125,1.495 -22.254,2.97 -33.412,4.147 -2.787,0.322 -5.583,0.531 -8.374,0.802 -2.793,0.241 -5.591,0.403 -8.388,0.588 -5.599,0.241 -11.205,0.417 -16.812,0.315 -11.214,-0.116 -22.408,-1.005 -33.553,-2.287 -5.573,-0.642 -11.138,-1.374 -16.709,-2.07 -2.787,-0.346 -5.575,-0.685 -8.37,-0.975 -2.794,-0.297 -5.592,-0.56 -8.415,-0.655 -5.637,-0.154 -11.252,0.239 -16.851,0.675 -5.6,0.453 -11.187,1.009 -16.774,1.541 -5.587,0.526 -11.177,1.024 -16.775,1.344 -5.594,0.299 -11.218,0.493 -16.784,-0.045 -1.381,-0.192 -2.783,-0.285 -4.141,-0.587 -1.36,-0.293 -2.705,-0.66 -4.011,-1.141 -2.613,-0.96 -5.079,-2.307 -7.312,-3.973 -2.228,-1.67 -4.259,-3.613 -6.007,-5.787 -1.801,-2.135 -3.309,-4.503 -4.663,-6.943 -1.364,-2.44 -2.496,-5.007 -3.467,-7.628 -0.988,-2.617 -1.789,-5.304 -2.428,-8.028 -1.312,-5.441 -1.975,-11.04 -2.005,-16.634 -0.001,-0.111 -0.091,-0.199 -0.201,-0.199 -0.109,0.001 -0.197,0.09 -0.199,0.198"
       style="fill:#ffffff;fill-opacity:1;fill-rule:nonzero;stroke:none;stroke-width:0.1"
       id="path870" />
    <path
       d="m 788.765,645.835 c -4.968,5.813 -11.386,10.049 -19.444,11.386 -19.315,3.204 -58.752,-4.719 -78.253,-3.154 -21.682,1.741 -49.08,7.91 -86.801,5.962 -37.2,-1.921 -111.028,-15.947 -148.154,-15.83 -36.399,0.115 -97.616,15.298 -141.187,11.95 -24.707,-1.899 -37.583,-30.472 -37.635,-51.75 -0.041,-16.925 4.527,-32.127 14.153,-42.535 4.949,-5.361 11.941,-8.35 19.234,-8.367 27.027,-0.066 54.053,-0.132 81.079,-0.198 48.644,-0.118 97.288,-0.236 145.933,-0.355 70.523,-0.171 141.288,0.76 211.783,-0.665 12.952,-0.262 29.078,-2.117 38.877,8.376 9.676,10.361 14.318,25.541 14.359,42.466 0.033,13.586 -4.126,31.228 -13.944,42.714"
       style="fill:#af4fb6;fill-opacity:1;fill-rule:nonzero;stroke:none;stroke-width:0.1"
       id="path872" />
    <path
       d="m 544.974,602.787 c -0.092,-1.308 -0.063,-2.621 0.031,-3.927 0.105,-1.305 0.306,-2.603 0.599,-3.878 0.268,-1.279 0.63,-2.541 1.115,-3.753 0.495,-1.206 1.088,-2.377 1.864,-3.427 0.04,-0.053 0.028,-0.13 -0.025,-0.17 -0.032,-0.023 -0.072,-0.029 -0.107,-0.018 l -0.073,0.022 c -1.576,0.469 -2.747,1.585 -3.599,2.79 -0.887,1.21 -1.438,2.586 -1.757,3.989 -0.306,1.408 -0.375,2.861 -0.119,4.3 0.231,1.427 0.73,2.875 1.808,4.102 l 0.051,0.058 c 0.044,0.051 0.121,0.056 0.171,0.012 0.03,-0.026 0.043,-0.064 0.041,-0.1"
       style="fill:#ffffff;fill-opacity:1;fill-rule:nonzero;stroke:none;stroke-width:0.1"
       id="path874" />
    <path
       d="m 547.686,627.392 c -0.456,-1.069 -0.872,-2.162 -1.276,-3.254 -0.396,-1.097 -0.749,-2.208 -1.062,-3.329 -0.345,-1.112 -0.647,-2.238 -0.897,-3.376 -0.255,-1.137 -0.453,-2.284 -0.654,-3.434 -0.011,-0.065 -0.073,-0.109 -0.138,-0.097 -0.035,0.006 -0.064,0.027 -0.081,0.055 l -0.044,0.072 c -0.773,1.273 -1.073,2.574 -1.151,3.838 -0.075,1.267 0.081,2.507 0.428,3.687 0.341,1.181 0.877,2.303 1.614,3.327 0.75,1.014 1.665,1.964 3.024,2.629 l 0.074,0.036 c 0.059,0.029 0.131,0.005 0.16,-0.055 0.016,-0.032 0.015,-0.068 0.003,-0.099"
       style="fill:#ffffff;fill-opacity:1;fill-rule:nonzero;stroke:none;stroke-width:0.1"
       id="path876" />
    <path
       d="m 532.834,615.504 c -0.499,-2.395 -0.896,-4.809 -0.986,-7.251 -0.185,-2.436 -0.062,-4.88 0.11,-7.323 0.005,-0.066 -0.045,-0.123 -0.111,-0.128 -0.036,-0.002 -0.07,0.012 -0.094,0.036 l -0.058,0.06 c -1.066,1.115 -1.649,2.354 -2.041,3.623 -0.374,1.271 -0.516,2.581 -0.445,3.881 0.069,1.3 0.358,2.591 0.88,3.817 0.538,1.22 1.275,2.391 2.489,3.352 l 0.065,0.051 c 0.052,0.041 0.127,0.032 0.168,-0.019 0.023,-0.029 0.03,-0.065 0.023,-0.099"
       style="fill:#ffffff;fill-opacity:1;fill-rule:nonzero;stroke:none;stroke-width:0.1"
       id="path878" />
    <path
       d="m 423.326,628.416 c -0.449,-1.232 -0.785,-2.501 -1.055,-3.782 -0.259,-1.284 -0.425,-2.587 -0.496,-3.893 -0.096,-1.304 -0.097,-2.616 0.035,-3.915 0.143,-1.296 0.388,-2.585 0.844,-3.808 0.024,-0.063 -0.008,-0.133 -0.071,-0.157 -0.037,-0.013 -0.076,-0.008 -0.107,0.012 l -0.065,0.041 c -1.384,0.887 -2.201,2.282 -2.687,3.676 -0.519,1.408 -0.668,2.883 -0.587,4.32 0.095,1.437 0.43,2.853 1.074,4.165 0.616,1.308 1.496,2.561 2.871,3.443 l 0.066,0.042 c 0.056,0.036 0.13,0.019 0.167,-0.037 0.021,-0.033 0.024,-0.073 0.011,-0.107"
       style="fill:#ffffff;fill-opacity:1;fill-rule:nonzero;stroke:none;stroke-width:0.1"
       id="path880" />
    <path
       d="m 434.526,617.267 c -0.188,-2.439 -0.27,-4.885 -0.045,-7.318 0.13,-2.44 0.567,-4.847 1.052,-7.248 0.013,-0.065 -0.029,-0.128 -0.094,-0.141 -0.036,-0.007 -0.071,0.002 -0.098,0.024 l -0.064,0.052 c -1.202,0.968 -1.939,2.122 -2.492,3.33 -0.534,1.213 -0.843,2.493 -0.941,3.791 -0.098,1.298 0.022,2.616 0.382,3.899 0.377,1.279 0.956,2.535 2.037,3.644 l 0.058,0.059 c 0.046,0.048 0.122,0.049 0.169,0.003 0.026,-0.026 0.038,-0.061 0.036,-0.095"
       style="fill:#ffffff;fill-opacity:1;fill-rule:nonzero;stroke:none;stroke-width:0.1"
       id="path882" />
    <path
       d="m 341.454,623.803 c -0.788,1.422 -1.042,2.881 -1.062,4.307 -0.045,1.435 0.208,2.845 0.678,4.193 0.481,1.341 1.178,2.64 2.187,3.741 0.978,1.103 2.248,2.076 3.856,2.406 l 0.076,0.015 c 0.066,0.013 0.13,-0.029 0.143,-0.094 0.008,-0.039 -0.004,-0.078 -0.028,-0.105 -0.867,-0.98 -1.581,-2.083 -2.205,-3.23 -0.614,-1.155 -1.114,-2.37 -1.535,-3.611 -0.446,-1.232 -0.815,-2.494 -1.116,-3.773 -0.29,-1.281 -0.539,-2.573 -0.731,-3.877 -0.009,-0.066 -0.071,-0.111 -0.137,-0.102 -0.038,0.006 -0.07,0.029 -0.088,0.061 l -0.038,0.069"
       style="fill:#ffffff;fill-opacity:1;fill-rule:nonzero;stroke:none;stroke-width:0.1"
       id="path884" />
    <path
       d="m 329.363,611.019 c -1.217,0.981 -1.915,2.243 -2.371,3.538 -0.441,1.303 -0.609,2.67 -0.522,4.021 0.085,1.35 0.42,2.688 1.018,3.927 0.615,1.231 1.459,2.386 2.772,3.223 l 0.069,0.043 c 0.056,0.036 0.13,0.019 0.166,-0.037 0.02,-0.031 0.023,-0.069 0.012,-0.101 -0.768,-2.342 -1.293,-4.76 -1.398,-7.217 -0.089,-1.224 -0.093,-2.455 -0.005,-3.681 0.099,-1.223 0.261,-2.444 0.515,-3.65 0.014,-0.064 -0.028,-0.128 -0.092,-0.141 -0.037,-0.008 -0.073,0.002 -0.1,0.023 l -0.064,0.052"
       style="fill:#ffffff;fill-opacity:1;fill-rule:nonzero;stroke:none;stroke-width:0.1"
       id="path886" />
    <path
       d="m 318.214,626.256 c -0.889,1.171 -1.2,2.467 -1.264,3.732 -0.047,1.268 0.191,2.525 0.686,3.687 0.495,1.162 1.246,2.241 2.253,3.097 1.008,0.835 2.296,1.499 3.774,1.424 l 0.087,-0.004 c 0.065,-0.004 0.115,-0.059 0.112,-0.124 -0.001,-0.035 -0.019,-0.066 -0.043,-0.086 -0.856,-0.692 -1.576,-1.531 -2.204,-2.429 -0.62,-0.907 -1.129,-1.889 -1.544,-2.907 -0.441,-1.008 -0.794,-2.058 -1.055,-3.13 -0.251,-1.075 -0.439,-2.167 -0.538,-3.271 -0.006,-0.064 -0.063,-0.112 -0.127,-0.106 -0.034,0.003 -0.063,0.02 -0.083,0.045 l -0.054,0.072"
       style="fill:#ffffff;fill-opacity:1;fill-rule:nonzero;stroke:none;stroke-width:0.1"
       id="path888" />
    <path
       d="m 318.009,601.584 c -1.184,0.78 -1.819,1.825 -2.273,2.865 -0.434,1.052 -0.631,2.144 -0.635,3.227 -0.006,1.083 0.196,2.158 0.593,3.195 0.419,1.033 1.014,2.034 2.063,2.928 l 0.072,0.062 c 0.049,0.041 0.121,0.035 0.162,-0.013 0.021,-0.024 0.03,-0.055 0.028,-0.084 -0.153,-2.028 -0.325,-4.051 -0.274,-6.077 -0.007,-1.012 0.017,-2.024 0.1,-3.032 0.098,-1.003 0.204,-2.018 0.416,-2.993 0.014,-0.064 -0.026,-0.127 -0.091,-0.142 -0.032,-0.007 -0.064,0 -0.09,0.017 l -0.071,0.047"
       style="fill:#ffffff;fill-opacity:1;fill-rule:nonzero;stroke:none;stroke-width:0.1"
       id="path890" />
    <path
       d="m 802.71,603.117 c -0.04,-16.92 -4.68,-32.1 -14.36,-42.459 -9.8,-10.5 -25.93,-8.641 -38.88,-8.38 -48.42,0.979 -96.96,0.849 -145.47,0.729 -28.65,9 -35.55,43.27 -35.55,49.66 0,34.9 18.39,53.79 40.85,57.57 35.14,1.19 61.07,-4.509 81.77,-6.17 19.5,-1.569 58.94,6.36 78.25,3.15 8.06,-1.33 14.48,-5.57 19.45,-11.38 9.81,-11.489 13.97,-29.13 13.94,-42.72"
       style="fill:#5a0160;fill-opacity:1;fill-rule:nonzero;stroke:none;stroke-width:0.1"
       id="path892" />
    <path
       d="m 763.504,572.811 c -29.526,0.044 -59.041,-1.083 -88.576,-1.271 -7.383,-0.029 -14.767,-0.041 -22.151,0.084 -7.387,0.117 -14.76,0.267 -22.151,0.68 -7.354,0.598 -14.8,2.194 -21.279,5.928 -3.216,1.866 -6.129,4.315 -8.359,7.314 -2.243,2.99 -3.744,6.498 -4.569,10.122 -1.63,7.264 -1.121,14.972 1.39,21.978 1.275,3.492 3.113,6.816 5.62,9.599 0.669,0.652 1.274,1.375 1.998,1.967 0.746,0.564 1.429,1.218 2.229,1.705 0.811,0.467 1.584,1.015 2.427,1.411 0.846,0.387 1.669,0.83 2.546,1.145 6.932,2.814 14.488,3.501 21.865,3.396 7.413,-0.103 14.758,-0.975 22.112,-1.525 14.711,-1.167 29.457,-1.961 44.21,-1.841 14.753,0.091 29.489,1.032 44.217,2.008 7.329,0.473 14.813,1.241 22.18,-0.125 3.657,-0.688 7.278,-1.789 10.478,-3.837 3.116,-2.151 5.484,-5.273 6.877,-8.751 0.761,-1.717 1.202,-3.55 1.57,-5.383 0.264,-1.849 0.471,-3.721 0.348,-5.592 -0.107,-3.741 -1.15,-7.465 -3.047,-10.712 -0.999,-1.592 -2.18,-3.071 -3.561,-4.35 -1.401,-1.253 -2.952,-2.325 -4.596,-3.221 -1.662,-0.865 -3.402,-1.557 -5.18,-2.12 -1.786,-0.538 -3.606,-0.938 -5.439,-1.249 -3.679,-0.587 -7.388,-0.732 -11.079,-0.85 -3.696,-0.107 -7.393,-0.108 -11.087,-0.055 l -22.141,0.526 -44.293,0.026 -11.069,0.023 c -3.687,-0.002 -7.384,-0.074 -11.085,0.091 -3.698,0.163 -7.404,0.563 -11.011,1.53 -3.579,1.051 -6.956,2.96 -9.468,5.77 -1.232,1.404 -2.262,3.067 -2.65,4.951 -0.351,1.879 -0.015,3.877 0.905,5.532 1.825,3.35 5.126,5.631 8.633,6.84 3.526,1.235 7.259,1.717 10.959,1.821 3.71,0.113 7.406,-0.188 11.085,-0.418 14.734,-0.962 29.46,-2.007 44.218,-2.384 14.756,-0.408 29.52,-0.471 44.283,-0.492 0.111,0 0.2,-0.089 0.2,-0.2 0,-0.101 -0.077,-0.185 -0.175,-0.197 l -0.025,-0.003 c -14.765,-1.819 -29.552,-2.157 -44.36,-1.863 -14.816,0.273 -29.625,1.219 -44.336,2.075 -3.716,0.208 -7.304,0.469 -10.798,0.334 -3.492,-0.122 -6.896,-0.61 -9.973,-1.716 l -1.131,-0.444 c -0.335,-0.171 -0.686,-0.298 -1.011,-0.494 -0.667,-0.351 -1.301,-0.772 -1.891,-1.229 -1.196,-0.905 -2.15,-2.035 -2.754,-3.172 -0.619,-1.152 -0.735,-2.261 -0.546,-3.339 0.082,-0.271 0.147,-0.544 0.253,-0.819 0.152,-0.277 0.213,-0.541 0.41,-0.84 0.325,-0.596 0.765,-1.161 1.244,-1.705 1.952,-2.172 4.883,-3.84 7.883,-4.679 0.716,-0.194 1.588,-0.373 2.42,-0.531 0.841,-0.155 1.693,-0.278 2.549,-0.392 1.719,-0.209 3.47,-0.331 5.244,-0.397 3.55,-0.133 7.189,-0.038 10.924,-0.008 l 11.125,0.055 22.11,0.15 11.054,0.013 5.53,0.006 c 1.871,0.006 3.738,-0.004 5.6,-0.027 l 22.141,-0.505 c 3.656,-0.048 7.297,-0.043 10.919,0.066 1.809,0.057 3.615,0.14 5.415,0.246 1.741,0.118 3.461,0.301 5.151,0.565 1.68,0.288 3.329,0.654 4.914,1.132 1.573,0.501 3.081,1.106 4.488,1.837 1.383,0.76 2.652,1.645 3.785,2.654 1.109,1.032 2.04,2.212 2.846,3.484 1.506,2.603 2.392,5.65 2.477,8.844 0.11,1.587 -0.081,3.185 -0.299,4.759 -0.321,1.552 -0.688,3.111 -1.328,4.534 -1.163,2.911 -3.091,5.352 -5.438,6.98 -0.289,0.212 -0.619,0.35 -0.923,0.536 -0.311,0.174 -0.594,0.361 -0.991,0.518 -0.732,0.344 -1.495,0.633 -2.26,0.916 -1.542,0.544 -3.155,0.945 -4.806,1.247 -3.307,0.601 -6.776,0.764 -10.31,0.681 -1.77,-0.037 -3.549,-0.134 -5.361,-0.257 l -5.529,-0.376 c -14.747,-0.948 -29.56,-1.851 -44.46,-1.908 -14.897,-0.083 -29.77,0.756 -44.535,1.965 l -11.046,0.957 c -3.64,0.313 -7.245,0.557 -10.815,0.613 -7.12,0.126 -14.189,-0.547 -20.436,-3.07 -0.796,-0.28 -1.529,-0.68 -2.292,-1.022 -0.758,-0.354 -1.345,-0.796 -2.035,-1.177 -0.666,-0.394 -1.231,-0.955 -1.86,-1.414 -0.609,-0.489 -1.118,-1.113 -1.691,-1.656 -2.14,-2.359 -3.782,-5.273 -4.934,-8.406 -2.265,-6.279 -2.812,-13.42 -1.391,-19.951 0.72,-3.272 1.988,-6.276 3.898,-8.88 1.901,-2.605 4.42,-4.78 7.304,-6.488 5.8,-3.425 12.823,-5.044 19.862,-5.666 l 2.659,-0.181 2.753,-0.118 5.51,-0.233 c 3.676,-0.105 7.351,-0.253 11.031,-0.315 7.357,-0.183 14.723,-0.229 22.091,-0.257 14.738,-0.021 29.491,0.184 44.259,0.369 7.383,0.078 14.769,0.229 22.161,0.112 7.391,-0.119 14.791,-0.591 22.172,-1.585 l 0.026,-0.003 c 0.109,-0.014 0.185,-0.115 0.171,-0.224 -0.013,-0.1 -0.099,-0.173 -0.198,-0.172"
       style="fill:#ffffff;fill-opacity:1;fill-rule:nonzero;stroke:none;stroke-width:0.1"
       id="path894" />
    <path
       d="M 573.281,229.008 H 272.34 V 426.986 H 573.281 V 229.008"
       style="fill:#d37c2e;fill-opacity:1;fill-rule:nonzero;stroke:none;stroke-width:0.1"
       id="path896" />
    <path
       d="M 573.281,426.986 H 272.34 V 574.719 H 573.281 V 426.986"
       style="fill:#23304e;fill-opacity:1;fill-rule:nonzero;stroke:none;stroke-width:0.1"
       id="path898" />
    <path
       d="m 573.281,574.717 -28.8,-115.17 H 243.532 l 28.81,115.17 h 300.939"
       style="fill:#d37c2e;fill-opacity:1;fill-rule:nonzero;stroke:none;stroke-width:0.1"
       id="path900" />
    <path
       d="m 573.475,574.668 c -2.099,-9.671 -4.203,-19.343 -6.414,-28.988 l -6.544,-28.957 c -2.143,-9.661 -4.466,-19.278 -6.72,-28.912 l -6.799,-28.893 -0.456,-1.938 -2.061,-0.027 -37.619,-0.491 -37.619,-0.172 -75.236,-0.338 -75.237,0.343 -37.619,0.172 -37.619,0.496 -3.345,0.044 0.839,3.167 7.6,28.694 c 2.543,9.561 5.029,19.137 7.684,28.672 l 7.854,28.629 c 2.588,9.55 5.285,19.074 7.985,28.597 l 10e-4,0.006 c 0.03,0.106 0.141,0.168 0.247,0.138 0.104,-0.03 0.166,-0.137 0.14,-0.242 l -28.725,-115.19 -0.28,0.357 150.475,0.112 150.474,-0.112 -0.28,-0.217 28.886,115.148 c 0.027,0.108 0.135,0.172 0.243,0.146 0.105,-0.027 0.169,-0.132 0.146,-0.237 l -10e-4,-0.007"
       style="fill:#ffffff;fill-opacity:1;fill-rule:nonzero;stroke:none;stroke-width:0.1"
       id="path902" />
    <path
       d="m 442.884,418.852 c -16.652,0 -34.477,-10.228 -34.477,-35.85 0,25.622 -17.825,35.85 -34.478,35.85 -20.666,0 -37.42,-16.753 -37.42,-37.42 0,-39.034 71.898,-93.445 71.898,-93.445 0,0 71.897,54.411 71.897,93.445 0,20.667 -16.753,37.42 -37.42,37.42"
       style="fill:#aa0000;fill-opacity:1;fill-rule:nonzero;stroke:none;stroke-width:0.1"
       id="path904" />
    <g
       id="g826"
       transform="matrix(0.1,0,0,0.1,0,102)">
      <g
         id="g828"
         clip-path="url(#clipPath832)">
        <path
           d="m 8155.2,1426.18 c 87,-93.8 206,-156.51 332.5,-175.8 588.9,-85.31 1181.5,-111.51 1775.7,-72.01 374.4,24.81 752.9,75.4 1103.6,207.9 v 2459.81 c -150,-139.81 -299.8,-279.81 -452.1,-417.11 -104.1,-93.69 -209.4,-192.7 -312.9,-283.59 -81.5,-71.51 -537.7,-217.1 -647.5,-254.2 -473.6,-159.91 -953.4,-303.7 -1418.3,-488.21 -165.6,-65.7 -333,-131.1 -435.8,-286.39 -140.9,-212.61 -119,-502.81 54.8,-690.4"
           style="fill:#f68174;fill-opacity:1;fill-rule:nonzero;stroke:none"
           id="path834" />
        <path
           d="m 7026.28,2353.54 c -111.23,-87.05 -13.59,-267.44 75.14,-311 58.23,-28.68 407.57,-47.81 504.54,-59.07 61.64,-7.46 99.24,-53.9 106.73,-106.15 7.7,-53.69 -17.22,-113.56 -77.64,-141.48 0,0 -968.31,-391.63 -1042.45,-421.95 -142.41,-58.25 -154.1,-191.81 -120.54,-289.34 21.12,-61.37 85.65,-96.538 149.12,-82.96 l 400.3,85.63 623.36,-243.419 c 152.5,-59.5 316.42,-54.301 461.71,13.898 451.52,211.711 794.1,405.751 794.1,405.751 l -409.11,1162.5 c -322.59,245.51 -564.01,124.83 -932.5,25.51 -171.66,-46.27 -511.9,-21.6 -532.76,-37.92"
           style="fill:#f68174;fill-opacity:1;fill-rule:nonzero;stroke:none"
           id="path836" />
        <path
           d="m 7019.49,1025.7 c -17.25,22.33 -32.98,46.16 -44.3,72.32 -11.39,26.01 -18.63,54.47 -17.32,83.4 1.38,28.86 11.61,57.11 28.35,80.53 16.75,23.51 38.58,42.72 63.98,56.93 0.26,0.15 0.53,0.25 0.81,0.31 l 0.18,0.04 263.27,59.37 263.56,58.05 -0.6,-0.19 123.73,48.47 123.95,47.9 c 1.28,0.49 2.72,-0.14 3.21,-1.42 0.44,-1.12 0,-2.37 -0.99,-3 l -0.38,-0.23 c -19.06,-11.99 -38.41,-23.29 -57.89,-34.26 -19.35,-11.3 -39.13,-21.49 -58.73,-32.15 -19.55,-10.8 -39.53,-20.49 -59.34,-30.61 -19.83,-10.09 -39.66,-20.18 -59.79,-29.49 l -0.56,-0.21 -4.45,-1.32 -64.81,-19.32 -65.2,-17.62 c -43.43,-11.92 -87.08,-22.81 -130.91,-32.96 -43.79,-10.25 -87.73,-19.86 -131.83,-28.77 -44.01,-9.3 -88.5,-16.46 -132.77,-24.6 l 8.97,3.18 c 0.09,0.14 -1.56,-0.68 -2.51,-1.15 l -3.51,-1.88 -7.26,-4.21 c -4.91,-2.87 -9.76,-6.06 -14.36,-9.51 -9.28,-6.84 -17.81,-14.61 -25.07,-23.22 -14.35,-17.26 -25.1,-37.09 -29.12,-60.17 -1.82,-11.53 -2.02,-23.61 -1.47,-36.14 0.9,-12.5 3.28,-25.3 6.81,-38.07 6.46,-25.87 17.91,-51.35 30.31,-76.96 l 0.22,-0.45 c 0.6,-1.23 0.09,-2.71 -1.14,-3.3 -1.08,-0.53 -2.34,-0.2 -3.04,0.71"
           style="fill:#23304e;fill-opacity:1;fill-rule:nonzero;stroke:none"
           id="path838" />
        <path
           d="m 7291.77,919.391 c -20.63,26.449 -38.55,55.422 -50.49,87.189 -5.65,15.95 -9.98,32.55 -11.41,49.61 -1.44,17.03 -0.03,34.37 4.28,50.99 8.74,33.23 29.08,63.08 56.27,83.94 13.57,10.46 28.63,18.95 44.59,25.12 16.1,6.42 32.57,9.35 48.68,13.66 64.84,16.13 129.63,32.44 194.63,47.97 l 194.83,47.13 -0.57,-0.18 143.9,58.33 144.13,57.75 c 1.28,0.51 2.72,-0.1 3.23,-1.38 0.46,-1.15 0.01,-2.43 -1.01,-3.04 l -0.32,-0.21 c -22.36,-13.7 -45.02,-26.65 -67.81,-39.29 -22.65,-12.99 -45.78,-24.79 -68.69,-37.14 -22.85,-12.49 -46.22,-23.71 -69.33,-35.57 l -34.75,-17.57 -35.07,-16.8 -4.71,-1.54 -47.65,-15.8 c -15.87,-5.31 -31.97,-9.66 -47.95,-14.54 -31.98,-9.59 -63.97,-19.15 -96.24,-27.59 -64.48,-17.09 -129.31,-32.75 -194.75,-46.13 l -24.6,-4.79 -6.15,-1.19 -4.5,-1.05 c -2.82,-0.67 -6.21,-1.64 -9.22,-2.64 -12.5,-3.86 -24.08,-9.93 -35.05,-16.77 -10.94,-6.92 -20.86,-15.43 -29.08,-25.47 -8.29,-10.15 -14.92,-21.66 -20.03,-33.89 -10.26,-24.62 -10.68,-54.11 -4.81,-84.51 1.68,-7.56 3.52,-15.177 5.96,-22.767 1.95,-7.782 4.91,-15.301 7.66,-23 2.79,-7.692 6.43,-15.043 9.4,-22.891 l 10.6,-22.891 0.22,-0.492 c 0.58,-1.226 0.04,-2.707 -1.2,-3.277 -1.06,-0.492 -2.3,-0.16 -2.99,0.719"
           style="fill:#23304e;fill-opacity:1;fill-rule:nonzero;stroke:none"
           id="path840" />
        <path
           d="m 7616.64,792.402 c -27.28,18.547 -52.52,41.571 -71.74,71.481 -9.34,15.039 -17.14,31.867 -21.67,50.398 -4.5,18.512 -4.88,38.59 -1.64,58.039 3.34,19.43 10.1,38.33 19.78,54.98 9.7,16.54 21.54,32.03 35.45,45.43 13.84,13.47 29.33,25.33 46.27,34.62 16.93,9.29 35,16.31 53.6,21.34 4.64,1.33 9.37,2.25 14.06,3.38 l 11.87,2.53 23.73,5.08 c 15.79,3.54 31.69,6.39 47.55,9.5 31.71,6.33 63.57,11.77 95.37,17.5 63.76,10.66 127.54,21.16 191.79,28.9 l -13.27,-4.74 c 22.47,11.12 44.73,22.6 67.79,32.65 22.92,10.33 45.59,21.08 69.08,30.38 l 34.98,14.42 35.6,13.33 c 23.81,8.73 47.97,16.86 72.8,23.8 l 0.56,0.16 c 1.32,0.37 2.68,-0.4 3.05,-1.71 0.3,-1.1 -0.19,-2.24 -1.15,-2.8 -43.33,-25.05 -86.41,-50.54 -129.95,-75.24 L 8070.2,1151.3 c -0.45,-0.25 -0.97,-0.43 -1.45,-0.51 l -191.02,-33.33 c -63.59,-10.91 -127.8,-21.19 -190.89,-32.61 -30.8,-7.04 -60.16,-21.2 -84,-41.96 -23.71,-20.66 -42.73,-47.757 -50.46,-78.218 -7.91,-30.512 -2.53,-63.281 11.17,-91.832 13.68,-28.75 34.02,-54.137 56.61,-76.938 0.96,-0.902 0.96,-2.5 -0.01,-3.5 -0.86,-0.8 -2.18,-0.902 -3.15,-0.3 l -0.36,0.3"
           style="fill:#23304e;fill-opacity:1;fill-rule:nonzero;stroke:none"
           id="path842" />
        <path
           d="m 9266.61,1653.06 c 9.18,-25.54 8.77,-53.84 5.35,-80.78 -4.53,-26.74 -12.04,-52.98 -22.68,-77.48 -21.19,-49.12 -51.04,-93.14 -85.58,-132.13 -34.67,-38.93 -74.2,-73.16 -117.75,-101.53 -43.76,-27.77 -91.55,-51.15 -144.1,-59.88 l -0.79,-0.13 c -1.33,-0.22 -2.59,0.68 -2.81,2 -0.17,1.03 0.34,2.03 1.2,2.52 21.52,12.27 42.22,25.95 62.26,40.5 20.17,14.38 39.72,29.64 58.62,45.65 37.8,32.04 73.27,66.83 105.96,104.02 32.94,36.9 63.28,76.31 88.24,118.96 12.42,21.32 23.41,43.51 31.91,66.59 8.58,23.01 14.44,47.17 15.17,71.69 0.04,1.34 1.16,2.4 2.51,2.36 1.03,-0.03 1.89,-0.7 2.22,-1.61 l 0.27,-0.75"
           style="fill:#23304e;fill-opacity:1;fill-rule:nonzero;stroke:none"
           id="path844" />
      </g>
    </g>
    <path
       d="M 573.281,229.008 H 807.66 V 426.986 H 573.281 V 229.008"
       style="fill:#d37c2e;fill-opacity:1;fill-rule:nonzero;stroke:none;stroke-width:0.1"
       id="path906" />
    <path
       d="m 573.481,426.986 0.199,-98.989 -0.199,-98.99 c 0,-0.109 -0.09,-0.199 -0.2,-0.199 -0.105,0.001 -0.19,0.081 -0.199,0.183 l -10e-4,0.016 -0.511,6.188 -0.385,6.186 -0.761,12.374 c -0.398,8.249 -0.758,16.498 -0.986,24.747 -0.313,8.249 -0.383,16.498 -0.567,24.747 -0.112,8.25 -0.122,16.499 -0.188,24.748 l 0.178,24.747 c 0.19,8.249 0.25,16.498 0.567,24.748 0.144,4.124 0.238,8.249 0.425,12.373 l 0.561,12.374 0.766,12.373 0.388,6.187 0.513,6.187 10e-4,0.015 c 0.009,0.111 0.106,0.193 0.216,0.183 0.104,-0.009 0.183,-0.096 0.183,-0.198"
       style="fill:#ffffff;fill-opacity:1;fill-rule:nonzero;stroke:none;stroke-width:0.1"
       id="path908" />
    <path
       d="M 573.281,426.986 H 807.66 V 574.719 H 573.281 V 426.986"
       style="fill:#23304e;fill-opacity:1;fill-rule:nonzero;stroke:none;stroke-width:0.1"
       id="path910" />
    <path
       d="m 652.149,229.358 19.439,0.171 19.438,0.061 38.878,0.117 38.878,-0.118 19.439,-0.061 19.439,-0.17 v -0.7 c -12.959,-2.462 -25.919,-3.75 -38.878,-4.625 l -4.86,-0.346 c -1.62,-0.109 -3.239,-0.15 -4.859,-0.229 l -9.72,-0.418 c -6.48,-0.195 -12.959,-0.213 -19.439,-0.329 -6.479,0.097 -12.959,0.142 -19.439,0.313 l -9.719,0.421 -4.86,0.221 -4.86,0.349 c -12.959,0.871 -25.918,2.166 -38.877,4.643 v 0.7"
       style="fill:#23304e;fill-opacity:1;fill-rule:nonzero;stroke:none;stroke-width:0.1"
       id="path912" />
    <path
       d="m 734.948,418.852 c -16.652,0 -34.478,-10.228 -34.478,-35.85 0,25.622 -17.825,35.85 -34.477,35.85 -20.667,0 -37.42,-16.753 -37.42,-37.42 0,-39.034 71.897,-93.445 71.897,-93.445 0,0 71.898,54.411 71.898,93.445 0,20.667 -16.754,37.42 -37.42,37.42"
       style="fill:#aa0000;fill-opacity:1;fill-rule:nonzero;stroke:none;stroke-width:0.1"
       id="path914" />
    <path
       d="m 573.281,574.717 28.801,-115.17 h 234.385 l -28.81,115.17 H 573.281"
       style="fill:#d37c2e;fill-opacity:1;fill-rule:nonzero;stroke:none;stroke-width:0.1"
       id="path916" />
    <path
       d="m 573.475,574.766 4.102,-14.27 3.977,-14.303 7.948,-28.606 15.322,-57.353 -2.743,2.14 14.65,0.233 14.649,0.083 29.298,0.154 58.596,0.299 58.597,-0.305 29.298,-0.153 14.649,-0.091 14.649,-0.231 -2.731,-3.498 -13.485,57.814 -6.459,28.979 -3.226,14.49 -3.103,14.52 -10e-4,0.007 c -0.023,0.109 0.045,0.215 0.153,0.238 0.106,0.022 0.21,-0.043 0.236,-0.147 l 28.907,-115.145 0.094,-0.373 h -0.385 l -117.193,-0.1 -117.193,0.099 h -0.235 l -0.057,0.227 -28.702,115.194 c -0.027,0.108 0.039,0.216 0.146,0.244 0.105,0.025 0.21,-0.037 0.24,-0.139 l 0.002,-0.007"
       style="fill:#ffffff;fill-opacity:1;fill-rule:nonzero;stroke:none;stroke-width:0.1"
       id="path918" />
    <path
       d="m 272.34,574.919 16.729,0.514 16.728,0.387 33.458,0.766 66.915,0.948 16.729,0.234 16.728,0.091 33.458,0.155 66.915,0.301 66.915,-0.308 33.457,-0.153 16.729,-0.099 16.729,-0.233 66.915,-0.946 33.457,-0.761 16.729,-0.386 16.729,-0.51 0.006,-10e-4 c 0.11,-0.003 0.197,-0.094 0.193,-0.206 -0.002,-0.107 -0.092,-0.193 -0.199,-0.193 L 540,574.32 272.34,574.519 c -0.111,0 -0.2,0.09 -0.2,0.2 0,0.109 0.086,0.196 0.193,0.199 l 0.007,10e-4"
       style="fill:#ffffff;fill-opacity:1;fill-rule:nonzero;stroke:none;stroke-width:0.1"
       id="path920" />
    <g
       id="g922"
       transform="matrix(0.1,0,0,0.1,0,102)">
      <g
         id="g924"
         clip-path="url(#clipPath928)">
        <path
           d="m 2644.8,1426.18 c -87,-93.8 -206,-156.51 -332.5,-175.8 -588.9,-85.31 -1181.5,-111.51 -1775.702,-72.01 -374.399,24.81 -752.899,75.4 -1103.598,207.9 v 2459.81 c 150,-139.81 299.801,-279.81 452.098,-417.11 104.1012,-93.69 209.4059,-192.7 312.902,-283.59 81.504,-71.51 537.699,-217.1 647.5,-254.2 473.6,-159.91 953.4,-303.7 1418.3,-488.21 165.6,-65.7 333,-131.1 435.8,-286.39 140.9,-212.61 119,-502.81 -54.8,-690.4"
           style="fill:#f68174;fill-opacity:1;fill-rule:nonzero;stroke:none"
           id="path930" />
        <path
           d="m 3773.72,2353.54 c 111.23,-87.05 13.59,-267.44 -75.14,-311 -58.24,-28.68 -407.57,-47.81 -504.55,-59.07 -61.64,-7.46 -99.22,-53.9 -106.72,-106.15 -7.7,-53.69 17.22,-113.56 77.65,-141.48 0,0 968.29,-391.63 1042.44,-421.95 142.41,-58.25 154.1,-191.81 120.54,-289.34 -21.12,-61.37 -85.65,-96.538 -149.12,-82.96 l -400.29,85.63 -623.38,-243.419 c -152.49,-59.5 -316.4,-54.301 -461.7,13.898 -451.52,211.711 -794.1,405.751 -794.1,405.751 l 409.1,1162.5 c 322.6,245.51 564.02,124.83 932.51,25.51 171.66,-46.27 511.91,-21.6 532.76,-37.92"
           style="fill:#f68174;fill-opacity:1;fill-rule:nonzero;stroke:none"
           id="path932" />
        <path
           d="m 3122.39,1237.94 162.23,-58.75 c 54.16,-19.32 108.5,-38.14 163.01,-56.4 54.4,-18.59 109,-36.55 164.01,-53.17 27.58,-7.97 55.17,-15.96 83.01,-22.84 27.76,-7.29 55.79,-13.25 84.1,-17.07 1.34,-0.18 2.29,-1.42 2.11,-2.78 -0.15,-1.07 -0.96,-1.89 -1.96,-2.09 l -0.6,-0.11 c -29.8,-5.89 -60.32,-5.55 -89.99,-4.16 -14.71,1.23 -29.65,2.43 -44.25,4.21 -14.66,1.64 -29.02,4.53 -43.59,6.76 -57.76,10.08 -113.88,25.59 -168.86,43.89 -54.83,18.71 -108.58,40.33 -160.57,66.32 -52.16,25.53 -103.04,54.37 -150.45,91.53 l -0.54,0.43 c -1.07,0.83 -1.26,2.37 -0.42,3.43 0.67,0.86 1.8,1.16 2.76,0.8"
           style="fill:#23304e;fill-opacity:1;fill-rule:nonzero;stroke:none"
           id="path934" />
        <path
           d="m 3775.67,2356.03 c 10.46,-6.83 20.55,-14.75 29.3,-24.37 8.59,-9.69 15.97,-20.78 21.67,-32.87 10.78,-24.43 14.37,-51.97 12.52,-78.5 -0.78,-13.35 -2.78,-26.59 -6.14,-39.43 -3.16,-12.91 -7.32,-25.52 -12.33,-37.79 -9.91,-24.61 -22.9,-47.97 -39.05,-69.69 -16.3,-21.61 -35.78,-41.53 -61.5,-57.67 -6.08,-4.14 -14.35,-7.34 -22.08,-10.59 -4.22,-1.85 -7.07,-2.48 -10.47,-3.59 l -9.91,-3.04 c -6.8,-2.22 -12.8,-3.43 -19.17,-5.09 -6.26,-1.5 -12.68,-3.26 -18.79,-4.46 -24.76,-5.61 -49.36,-9.83 -73.83,-13.66 -24.5,-3.96 -48.89,-7.46 -73.27,-10.88 l -73.05,-9.77 c -24.32,-3.06 -48.67,-5.46 -72.96,-8.13 -48.27,-5.26 -97.71,-10.12 -143.59,-16.23 -3.37,-0.35 -4.33,-0.81 -6.28,-1.16 -1.77,-0.32 -3.51,-0.67 -5.15,-1.28 -3.43,-0.9 -6.53,-2.21 -9.69,-3.32 -6.12,-2.58 -11.52,-6.06 -16.37,-10.25 -9.66,-8.36 -17.06,-20.24 -20.87,-34.01 -3.87,-13.82 -3.57,-28.63 0.2,-42.42 3.68,-13.87 11.45,-25.81 21.5,-35.34 4.87,-4.77 11.19,-9.17 17.02,-12.53 1.37,-0.72 2.7,-1.47 4.04,-2.29 l 8.43,-3.51 16.87,-6.99 67.49,-28 c 44.92,-18.8 90.12,-36.99 134.82,-56.31 l 133.99,-58.33 66.96,-29.26 66.52,-30.31 c 177.6,-80.38 353.77,-164.29 526.1,-258.15 l 0.3,-0.16 c 1.53,-0.83 2.09,-2.75 1.26,-4.27 -0.77,-1.43 -2.49,-2.01 -3.95,-1.41 l -541.82,221.02 -270.9,110.5 -135.44,55.26 -67.73,27.62 -16.92,6.91 -8.47,3.45 -8.13,4.2 c -10.65,5.9 -20.77,12.89 -29.56,21.35 -35.98,33.37 -50.16,87.46 -36.34,134.54 6.74,23.48 20.16,45.19 38.94,60.98 9.36,7.89 19.94,14.38 31.31,19 11.38,4.6 23.45,7.28 35.59,8.76 97.08,9.94 194.4,16.24 291.41,26.1 48.49,4.9 96.99,10.11 145.04,17.9 11.97,2.07 23.97,4.19 35.74,7 11.82,2.82 23.4,5.9 33.89,11.72 20.96,11.77 39.09,28.34 54.69,46.73 30.95,36.91 53.89,81.65 61.16,129.3 3.62,23.72 2.27,48.29 -5.43,70.85 -4.01,11.22 -9.61,21.8 -16.54,31.46 -7.09,9.57 -15.69,17.9 -24.93,25.44 -1.34,1.1 -1.54,3.09 -0.45,4.43 1.03,1.26 2.83,1.53 4.16,0.66 l 0.19,-0.12"
           style="fill:#23304e;fill-opacity:1;fill-rule:nonzero;stroke:none"
           id="path936" />
        <path
           d="m 2664.92,2511.96 c 46.58,12.56 95.45,15.49 143.9,14.87 24.2,-0.74 48.33,-2.71 72.35,-5.16 24.05,-2.36 47.66,-6.68 71.29,-10.63 94.32,-17.06 185.01,-42.05 274.56,-66.63 l 16.76,-4.72 c 5.66,-1.63 11.21,-3.18 16.14,-4.39 10.13,-2.73 20.72,-4.99 31.45,-7.11 21.39,-4.63 43.55,-7.87 65.9,-11.31 22.38,-3.46 45.08,-6.33 67.93,-8.83 l 34.38,-3.57 34.56,-3.99 c 23.09,-2.68 46.31,-4.45 69.58,-7.25 l 70.06,-8.08 c 23.42,-3.39 46.92,-6.15 70.47,-10.25 11.79,-2.13 23.56,-4.18 35.4,-6.75 5.9,-1.42 11.78,-2.84 17.71,-4.61 5.95,-1.9 11.73,-3.08 17.98,-7.93 1.14,-0.89 1.35,-2.53 0.46,-3.67 -0.8,-1.04 -2.22,-1.3 -3.33,-0.69 l -0.37,0.21 c -3.61,2.01 -10.17,2.91 -15.67,3.54 -5.74,0.71 -11.57,1.09 -17.4,1.46 -11.66,0.73 -23.37,1.06 -35.08,1.42 l -70.35,1.33 c -46.92,0.51 -93.86,1.11 -140.76,2.86 -46.91,1.71 -93.79,4.56 -140.46,9.63 -23.31,2.63 -46.57,5.87 -69.63,10.24 -23.11,4.18 -45.76,10.43 -68.33,16.79 -90.59,24.52 -180.23,52.49 -271.27,75.16 -45.53,11.24 -91.45,21.06 -137.89,27.34 -46.44,6.06 -93.39,8.55 -140.03,5.46 -1.44,-0.09 -2.67,0.99 -2.77,2.43 -0.09,1.26 0.74,2.36 1.92,2.68 l 0.54,0.15"
           style="fill:#ffffff;fill-opacity:1;fill-rule:nonzero;stroke:none"
           id="path938" />
      </g>
    </g>
  </g>
</svg>
