<?xml version="1.0" encoding="UTF-8" standalone="no"?>
<!-- Created with Inkscape (http://www.inkscape.org/) -->

<svg
   version="1.1"
   id="svg2"
   width="1500"
   height="1570"
   viewBox="0 0 1500 1570"
   sodipodi:docname="logincaixaTeste.svg"
   inkscape:version="1.2.2 (1:1.2.2+202305151914+b0a8486541)"
   xmlns:inkscape="http://www.inkscape.org/namespaces/inkscape"
   xmlns:sodipodi="http://sodipodi.sourceforge.net/DTD/sodipodi-0.dtd"
   xmlns="http://www.w3.org/2000/svg"
   xmlns:svg="http://www.w3.org/2000/svg">
  <defs
     id="defs6">
    <clipPath
       clipPathUnits="userSpaceOnUse"
       id="clipPath22">
      <path
         d="M 0,0 H 22595 V 10799 H 0 Z"
         id="path20" />
    </clipPath>
    <clipPath
       clipPathUnits="userSpaceOnUse"
       id="clipPath28">
      <path
         d="m 22595.3,0 h -5000 v 5000.01 h 5000 z"
         id="path26" />
    </clipPath>
    <clipPath
       clipPathUnits="userSpaceOnUse"
       id="clipPath184">
      <path
         d="m 16713.4,0 h -5000 v 5000.01 h 5000 z"
         id="path182" />
    </clipPath>
    <clipPath
       clipPathUnits="userSpaceOnUse"
       id="clipPath196">
      <path
         d="M 16713.4,0.902344 H 12409 V 3796.07 h 4304.4 z"
         id="path194" />
    </clipPath>
    <clipPath
       clipPathUnits="userSpaceOnUse"
       id="clipPath236">
      <path
         d="m 13710.9,1100.51 h -1997.5 v 3899.5 h 1997.5 z"
         id="path234" />
    </clipPath>
    <clipPath
       clipPathUnits="userSpaceOnUse"
       id="clipPath262">
      <path
         d="m 13710.9,1100.51 h -1997.5 v 3899.5 h 1997.5 z"
         id="path260" />
    </clipPath>
    <clipPath
       clipPathUnits="userSpaceOnUse"
       id="clipPath268">
      <path
         d="m 13536.7,2629.11 c 0,793.22 -448.8,1553.44 -1234.8,1553.44 -786,0 -1234.7,-760.22 -1234.7,-1553.44 0,-205.79 87.5,-401.48 79.3,-578.44 -23.6,-505.17 2.4,-723.5 170.3,-723.5 194.9,0 200.1,1301.94 200.1,1301.94 0,0 287.7,158.62 785,158.62 497.3,0 773.9,-158.62 773.9,-158.62 0,0 5.1,-1301.94 200.1,-1301.94 167.9,0 205,218.33 181.5,723.5 -8.3,176.96 79.3,372.65 79.3,578.44 z"
         id="path266" />
    </clipPath>
    <clipPath
       clipPathUnits="userSpaceOnUse"
       id="clipPath328">
      <path
         d="M 0,0 H 22595 V 10799 H 0 Z"
         id="path326" />
    </clipPath>
    <clipPath
       clipPathUnits="userSpaceOnUse"
       id="clipPath334">
      <path
         d="m 22595.3,5798.2 h -5000 v 5000 h 5000 z"
         id="path332" />
    </clipPath>
    <clipPath
       clipPathUnits="userSpaceOnUse"
       id="clipPath346">
      <path
         d="m 17595.3,10798.2 h 4349.2 V 7084.17 h -4349.2 z"
         id="path344" />
    </clipPath>
    <clipPath
       clipPathUnits="userSpaceOnUse"
       id="clipPath376">
      <path
         d="M 0,0 H 22595 V 10799 H 0 Z"
         id="path374" />
    </clipPath>
    <clipPath
       clipPathUnits="userSpaceOnUse"
       id="clipPath382">
      <path
         d="m 22595.3,5798.2 h -3477.1 v 4462 h 3477.1 z"
         id="path380" />
    </clipPath>
    <clipPath
       clipPathUnits="userSpaceOnUse"
       id="clipPath406">
      <path
         d="M 0,0 H 22595 V 10799 H 0 Z"
         id="path404" />
    </clipPath>
    <clipPath
       clipPathUnits="userSpaceOnUse"
       id="clipPath412">
      <path
         d="m 22595.3,5798.2 h -3477.1 v 4462 h 3477.1 z"
         id="path410" />
    </clipPath>
    <clipPath
       clipPathUnits="userSpaceOnUse"
       id="clipPath418">
      <path
         d="m 20459.4,6726.43 c 52.3,583.98 3.3,970.42 177.5,1751.92 61.1,273.9 533.9,311.48 1070.9,311.48 537.1,0 1009.8,-37.58 1070.9,-311.48 174.3,-781.5 125.3,-1167.94 177.6,-1751.92 31.9,-356.88 115.5,-628.23 82.6,-931.7 -23,-211.92 -187.7,-297.78 -187.7,-297.78 0,0 -608.7,-85.2 -1143.4,-85.2 -534.7,0 -1143.3,85.2 -1143.3,85.2 0,0 -164.7,85.86 -187.7,297.78 -32.9,303.47 50.7,574.82 82.6,931.7 z"
         id="path416" />
    </clipPath>
    <clipPath
       clipPathUnits="userSpaceOnUse"
       id="clipPath466">
      <path
         d="m 19118,5798 h 3477 v 4463 h -3477 z"
         id="path464" />
    </clipPath>
    <clipPath
       clipPathUnits="userSpaceOnUse"
       id="clipPath478">
      <path
         d="m 22288,8754.04 c 0,-70.06 -259.7,-168.53 -580.2,-168.53 -320.4,0 -580.1,98.47 -580.1,168.53 l 36.6,371.73 c 0,76.5 193.7,93 543.5,93 349.9,0 543.6,-16.5 543.6,-93 z"
         id="path476" />
    </clipPath>
    <clipPath
       clipPathUnits="userSpaceOnUse"
       id="clipPath502">
      <path
         d="m 19118,5798 h 3477 v 4463 h -3477 z"
         id="path500" />
    </clipPath>
    <clipPath
       clipPathUnits="userSpaceOnUse"
       id="clipPath514">
      <path
         d="m 16713.4,5798.2 h -5000 v 5000 h 5000 z"
         id="path512" />
    </clipPath>
    <clipPath
       clipPathUnits="userSpaceOnUse"
       id="clipPath570">
      <path
         d="m 12733,9590.42 c 100.8,50.28 172.2,-20.25 205.3,-88.99 l 171.2,-367.9 c 6,6.83 12.3,12.78 18.3,19.18 l -201.1,605.49 c -25,72.29 -32.6,166.53 74.7,206.96 83.9,31.56 162.4,-43.84 187.4,-116.13 l 178.3,-554.28 c 2.2,0.69 3.9,1.43 6.1,2.13 l 17.3,4.36 -98.7,641.42 c -13.9,75.14 9.6,175.84 105,193.34 99.8,18.4 153.8,-68.1 167.7,-143.18 l 99.2,-639.89 c 8.9,-0.18 17.4,0.1 26.4,-0.08 l -18.1,430.52 c -6.3,76.56 28.9,171.68 120.2,179 95.2,7.64 149.8,-80.3 156.1,-156.45 l 28.5,-558.84 v 0 c 55.7,162.55 137.2,267.21 142,274.97 39.3,65.82 124.6,86.84 190.4,47.51 65.3,-39.73 86.8,-124.56 47.1,-190.35 -43.7,-72.76 -153.2,-257.05 -154.7,-483.73 -2,-308.34 -101.8,-446.08 -101.8,-446.08 l -874,-145.9 c 0,0 -170.8,157.74 -242.9,436.99 -0.2,0.6 -0.3,1.19 -0.5,1.79 -38.6,153.74 -105.1,240.08 -173.9,382.9 l -120,255.63 c -33.4,69.25 -23.8,175.57 44.5,209.61 z"
         id="path568" />
    </clipPath>
    <clipPath
       clipPathUnits="userSpaceOnUse"
       id="clipPath616">
      <path
         d="m 15703.9,9256.54 c -96.1,58.67 -173.2,-5.54 -212.1,-71.21 l -201.8,-352 c -5.4,7.3 -11.2,13.77 -16.6,20.66 l 251.8,586.19 c 31.1,69.9 46.7,163.15 -56.9,212.57 -80.8,38.58 -165.5,-29.86 -196.5,-99.77 L 15047,9015.86 c -2.1,0.89 -3.8,1.77 -5.9,2.66 l -16.9,5.81 153,630.7 c 20.2,73.64 5.3,175.99 -88.2,201.56 -98,26.79 -159.1,-54.74 -179.3,-128.39 l -153.3,-629.13 c -8.9,0.58 -17.3,1.58 -26.2,2.16 l 54.6,427.42 c 12.8,75.75 -14.2,173.52 -104.6,188.59 -94.2,15.7 -156,-67.28 -168.8,-142.62 l -76,-554.38 v 0 c -41.6,166.7 -113.9,277.9 -118,286.04 -33.6,68.93 -116.8,97.13 -185.7,63.53 -68.5,-34.02 -97.1,-116.71 -63.1,-185.65 37.3,-76.21 130.7,-269.15 112.9,-495.13 -24.2,-307.38 63.6,-453.12 63.6,-453.12 l 858.3,-219.71 c 0,0 183.7,142.64 279.3,414.75 0.2,0.57 0.4,1.15 0.6,1.73 51.5,149.91 125.1,230.28 205.8,366.72 l 141.4,244.5 c 39.2,66.15 38.6,172.91 -26.6,212.64 z"
         id="path614" />
    </clipPath>
    <clipPath
       clipPathUnits="userSpaceOnUse"
       id="clipPath812">
      <path
         d="M 0,0 H 22595 V 10799 H 0 Z"
         id="path810" />
    </clipPath>
    <clipPath
       clipPathUnits="userSpaceOnUse"
       id="clipPath818">
      <path
         d="M 10800,4511.32 H 0.90625 V 10799.1 H 10800 Z"
         id="path816" />
    </clipPath>
    <clipPath
       clipPathUnits="userSpaceOnUse"
       id="clipPath832">
      <path
         d="M 10800,395.703 H 6521.49 V 3675.47 H 10800 Z"
         id="path830" />
    </clipPath>
    <clipPath
       clipPathUnits="userSpaceOnUse"
       id="clipPath928">
      <path
         d="M 0,395.703 H 4278.51 V 3675.47 H 0 Z"
         id="path926" />
    </clipPath>
  </defs>
  <sodipodi:namedview
     id="namedview4"
     pagecolor="#ffffff"
     bordercolor="#000000"
     borderopacity="0.25"
     inkscape:showpageshadow="2"
     inkscape:pageopacity="0.0"
     inkscape:pagecheckerboard="0"
     inkscape:deskcolor="#d1d1d1"
     showgrid="false"
     showguides="true"
     inkscape:zoom="0.23179321"
     inkscape:cx="-230.80918"
     inkscape:cy="-502.60316"
     inkscape:window-width="1846"
     inkscape:window-height="1016"
     inkscape:window-x="0"
     inkscape:window-y="0"
     inkscape:window-maximized="1"
     inkscape:current-layer="g10">
    <inkscape:page
       x="0"
       y="0"
       id="page8"
       width="1500"
       height="1570" />
  </sodipodi:namedview>
  <g
     id="g10"
     inkscape:groupmode="layer"
     inkscape:label="Page 1"
     transform="matrix(1.3333333,0,0,-1.3333333,0,1439.88)">
    <path
       d="M 1125.4508,-97.637049 H 1.0472066 V 984.63645 H 1125.4508 V -97.637049"
       style="fill:#0e4696;fill-opacity:1;fill-rule:nonzero;stroke:none;stroke-width:0.220627"
       id="path14" />
    <g
       id="g18"
       clip-path="url(#clipPath22)"
       transform="matrix(0.22502388,0,0,0.25356718,-3958.7649,-187.80844)"
       style="stroke:#ffffff;stroke-opacity:1">
      <g
         id="g24"
         clip-path="url(#clipPath28)"
         style="stroke:#ffffff;stroke-opacity:1">
        <path
           d="m 22885.4,3766.92 c 69.3,-324.59 -31.5,-668.57 -266.3,-903.23 -216.5,-216.28 -459.8,-252.02 -674.6,-283.56 -49.6,-7.29 -100.9,-14.83 -151.5,-24.36 -76,-14.32 -121,-34.76 -133.6,-60.76 -22,-45.3 -22.2,-150.35 -22.4,-243.03 -0.4,-206.35 -94.1,-398.61 -250.5,-514.31 l -53,-39.22"
           style="fill:none;stroke:#ffffff;stroke-width:30;stroke-linecap:round;stroke-linejoin:round;stroke-miterlimit:10;stroke-dasharray:130.552, 130.552;stroke-dashoffset:0;stroke-opacity:1"
           id="path30" />
        <path
           d="m 18857.1,1698.45 -53,39.22 c -156.4,115.71 -250,307.97 -250.4,514.3 -0.2,92.69 -0.4,197.75 -22.4,243.03 -12.7,26 -57.6,46.45 -133.6,60.77 -50.6,9.53 -101.9,17.07 -151.6,24.36 -214.7,31.54 -458.1,67.28 -674.5,283.56 -234.8,234.66 -335.7,578.65 -266.3,903.23"
           style="fill:none;stroke:#ffffff;stroke-width:30;stroke-linecap:round;stroke-linejoin:round;stroke-miterlimit:10;stroke-dasharray:130.552, 130.552;stroke-dashoffset:0;stroke-opacity:1"
           id="path32" />
        <path
           d="m 22685.382,3879.5114 c 63,-280.6976 -17.4,-589.4241 -207.698,-793.4497 -212.099,-227.3974 -449.097,-216.2052 -721.795,-271.3295 -312.398,-63.1618 -318.398,-244.202 -318.898,-536.4781 -0.3,-153.1936 -65.4,-297.2123 -169.399,-379.7862 h -2344.484 c -103.999,82.5739 -169.099,226.5926 -169.399,379.7862 -0.6,292.2761 -6.5,473.3163 -318.998,536.4781 -272.598,55.1243 -509.596,43.9321 -721.695,271.3295 -190.298,204.0256 -270.698,512.7521 -207.698,793.4497 v 1471.2959 h 5180.064 V 3879.5114"
           style="fill:#0e7496;fill-opacity:1;fill-rule:nonzero;stroke:#ffffff;stroke-width:1.03589;stroke-opacity:1"
           id="path34" />
      </g>
    </g>
    <path
       d="M 856.66669,-98.819724 H 265.95801 V 151.28344 H 856.66669 V -98.819724"
       style="fill:#d37c2e;fill-opacity:1;fill-rule:nonzero;stroke:none;stroke-width:0.189655"
       id="path36" />
    <path
       d="M 856.66669,151.28344 H 265.95801 V 294.48876 H 856.66669 V 151.28344"
       style="fill:#23304e;fill-opacity:1;fill-rule:nonzero;stroke:none;stroke-width:0.189655"
       id="path38" />
    <path
       d="m 760.14096,82.831935 c 1.99805,-1.990342 3.01585,-3.973239 3.75096,-5.954613 0.67857,-1.980602 0.99898,-3.957406 0.96124,-5.932667 -0.019,-1.97469 -0.35805,-3.946333 -1.07435,-5.913587 -0.75393,-1.971633 -1.80946,-3.936592 -3.80752,-5.894687 L 759.80173,58.9797 c -0.0941,-0.0931 -0.24504,-0.08929 -0.33933,0.006 -0.038,0.04389 -0.0571,0.09901 -0.0571,0.156482 -0.22612,3.94996 -0.13183,7.898578 -0.18848,11.848538 0.13193,3.947666 0.0941,7.898388 0.37696,11.846254 0,0.131859 0.11312,0.233374 0.24504,0.223644 0.0571,-0.004 0.11311,-0.03057 0.15085,-0.06875 l 0.15075,-0.160109"
       style="fill:#ffffff;fill-opacity:1;fill-rule:nonzero;stroke:none;stroke-width:0.189655"
       id="path48" />
    <path
       d="m 779.06535,47.221422 c 1.99806,-1.984992 3.01585,-3.969412 3.73205,-5.954413 0.69748,-1.98423 1.01789,-3.949951 0.98016,-5.934381 -0.018,-1.96554 -0.35815,-3.950732 -1.07435,-5.915681 -0.77276,-1.965541 -1.80947,-3.931261 -3.82634,-5.896982 l -0.15075,-0.152092 c -0.0941,-0.0962 -0.24504,-0.07666 -0.33933,0.01864 -0.038,0.03798 -0.0571,0.0954 -0.0751,0.152863 -0.20741,3.949951 -0.11311,7.899911 -0.18849,11.849872 0.13193,3.950722 0.11301,7.900873 0.37697,11.832124 0.019,0.133392 0.13183,0.247514 0.26386,0.228804 0.0571,0 0.11301,-0.01924 0.15085,-0.05722 l 0.15074,-0.171553"
       style="fill:#ffffff;fill-opacity:1;fill-rule:nonzero;stroke:none;stroke-width:0.189655"
       id="path50" />
    <path
       d="m 798.5552,82.5224 c 1.97913,-1.992437 2.99703,-3.975334 3.73215,-5.953651 0.67856,-1.982707 0.99897,-3.959691 0.98015,-5.934952 -0.019,-1.973167 -0.35815,-3.944048 -1.09326,-5.913587 -0.75404,-1.969348 -1.80947,-3.935069 -3.80752,-5.893164 l -0.15075,-0.15591 c -0.11311,-0.0939 -0.26396,-0.09159 -0.33933,0.005 -0.0571,0.04179 -0.0751,0.09771 -0.0751,0.155148 -0.2073,3.949961 -0.11311,7.897817 -0.18848,11.850062 0.13193,3.948438 0.0941,7.896294 0.37687,11.844731 0,0.133382 0.11321,0.234717 0.24504,0.223643 0.0751,-0.004 0.11321,-0.03056 0.15084,-0.06925 l 0.16967,-0.158205"
       style="fill:#ffffff;fill-opacity:1;fill-rule:nonzero;stroke:none;stroke-width:0.189655"
       id="path52" />
    <path
       d="m 797.98975,10.5816 c 1.97913,-2.0029398 2.99703,-3.9879312 3.73214,-5.9536519 0.67847,-1.9842368 0.99898,-3.96866812 0.98006,-5.9343868 -0.019,-1.9849964 -0.37687,-3.9507241 -1.09317,-5.9156822 -0.75393,-1.9655332 -1.80946,-3.9507251 -3.80752,-5.8969841 l -0.16966,-0.152853 c -0.0941,-0.09541 -0.24504,-0.09541 -0.33923,0 -0.037,0.03873 -0.0571,0.09617 -0.0571,0.152853 -0.2073,3.9507206 -0.11301,7.9006842 -0.18848,11.8508341 0.13202,3.9499545 0.0941,7.89991 0.37706,11.8498709 0,0.134154 0.11301,0.229576 0.24504,0.229576 0.0571,-0.01924 0.11301,-0.03878 0.15075,-0.07676 l 0.16957,-0.152853"
       style="fill:#ffffff;fill-opacity:1;fill-rule:nonzero;stroke:none;stroke-width:0.189655"
       id="path54" />
    <path
       d="m 361.14543,102.15083 c 0.28274,-3.948241 0.24504,-7.898392 0.37699,-11.846047 -0.0754,-3.950733 0.0189,-7.898589 -0.18849,-11.848549 0,-0.134154 -0.11309,-0.237012 -0.24504,-0.229566 -0.0566,0.004 -0.11309,0.02676 -0.15079,0.06694 l -0.16965,0.156671 c -1.99799,1.957323 -3.05353,3.925339 -3.8075,5.894687 -0.71626,1.967254 -1.07439,3.938897 -1.09323,5.913396 -0.0189,1.975081 0.30158,3.952055 0.98014,5.932858 0.73512,1.980792 1.75297,3.9635 3.7321,5.95384 l 0.16965,0.16031 c 0.0943,0.0935 0.24504,0.0935 0.32043,-0.002 0.0566,-0.0439 0.0754,-0.0992 0.0754,-0.15266"
       style="fill:#ffffff;fill-opacity:1;fill-rule:nonzero;stroke:none;stroke-width:0.189655"
       id="path56" />
    <path
       d="m 342.22105,66.544341 c 0.28274,-3.948437 0.24503,-7.898588 0.37697,-11.846244 -0.0754,-3.947104 0.0189,-7.897065 -0.18849,-11.847025 0,-0.133383 -0.11309,-0.248256 -0.24504,-0.228795 -0.0566,0 -0.11309,0.01854 -0.15078,0.05722 l -0.16965,0.171554 c -1.99798,1.946269 -3.05353,3.91199 -3.80749,5.87771 -0.71626,1.98424 -1.0744,3.949961 -1.09324,5.923127 -0.0189,1.972976 0.30158,3.949951 0.98015,5.932667 0.7351,1.980613 1.75294,3.96351 3.7321,5.953852 l 0.16963,0.1603 c 0.0943,0.0939 0.24504,0.0939 0.33928,-0.002 0.0376,-0.04409 0.0566,-0.09771 0.0566,-0.152853"
       style="fill:#ffffff;fill-opacity:1;fill-rule:nonzero;stroke:none;stroke-width:0.189655"
       id="path58" />
    <path
       d="m 322.75003,101.83979 c 0.26389,-3.948249 0.24504,-7.896486 0.37698,-11.844352 -0.0754,-3.952246 0.0189,-7.900873 -0.18848,-11.850824 -0.0189,-0.135687 -0.13194,-0.23625 -0.26389,-0.228804 -0.0566,0.004 -0.11309,0.02826 -0.15079,0.06694 l -0.1508,0.158004 c -2.01684,1.958285 -3.05353,3.923244 -3.82635,5.892592 -0.71626,1.969549 -1.05554,3.941182 -1.07439,5.914349 -0.0189,1.974689 0.28274,3.953588 0.98015,5.932477 0.71627,1.980792 1.73411,3.963509 3.7321,5.955758 l 0.1508,0.15838 c 0.0943,0.0954 0.24504,0.0935 0.33928,-0.002 0.0376,-0.0439 0.0754,-0.0973 0.0754,-0.15266"
       style="fill:#ffffff;fill-opacity:1;fill-rule:nonzero;stroke:none;stroke-width:0.189655"
       id="path60" />
    <path
       d="m 427.92743,6.6511003 c 0.28273,-3.9501479 0.24504,-7.9001024 0.37697,-11.8508265 -0.0565,-3.9499556 0.0189,-7.8999138 -0.18848,-11.8500628 0,-0.134153 -0.11309,-0.228804 -0.24504,-0.228804 -0.0566,0 -0.11309,0.03797 -0.15079,0.07614 l -0.16964,0.152664 c -1.998,1.965723 -3.05354,3.930684 -3.8075,5.896408 -0.71626,1.9657279 -1.07438,3.9312611 -1.09324,5.9156834 -0.0189,1.9657267 0.30158,3.9499635 0.98015,5.93495998 0.73511,1.96495802 1.75295,3.95014592 3.73209,5.95383692 l 0.16965,0.1526732 c 0.0943,0.095402 0.24504,0.095402 0.33928,0 0.0376,-0.038782 0.0566,-0.095402 0.0566,-0.1526732"
       style="fill:#ffffff;fill-opacity:1;fill-rule:nonzero;stroke:none;stroke-width:0.189655"
       id="path62" />
    <path
       d="m 409.00304,-28.957868 c 0.28273,-3.949959 0.24504,-7.899917 0.37698,-11.850066 -0.0566,-3.950722 0.0376,-7.900681 -0.18849,-11.850639 0,-0.133389 -0.1131,-0.228803 -0.24504,-0.228803 -0.0566,0 -0.11309,0.03797 -0.1508,0.07594 l -0.16964,0.152855 c -1.99799,1.965724 -3.05353,3.931257 -3.80749,5.896217 -0.71626,1.965725 -1.05555,3.931447 -1.09325,5.916447 -0.0189,1.96496 0.30159,3.949958 0.98015,5.934383 0.73511,1.984234 1.75297,3.949959 3.73211,5.953658 l 0.16963,0.152854 c 0.0943,0.09541 0.24504,0.09541 0.33929,0 0.0376,-0.03797 0.0566,-0.09541 0.0566,-0.152854"
       style="fill:#ffffff;fill-opacity:1;fill-rule:nonzero;stroke:none;stroke-width:0.189655"
       id="path64" />
    <path
       d="M 842.71846,283.89587 954.606,157.59414 968.55433,168.18703 856.66669,294.48876 842.71846,283.89587"
       style="fill:#23304e;fill-opacity:1;fill-rule:nonzero;stroke:none;stroke-width:0.189655"
       id="path66" />
    <path
       d="M 279.90626,283.89587 167.99977,157.59414 154.05152,168.18703 265.95801,294.48876 279.90626,283.89587"
       style="fill:#23304e;fill-opacity:1;fill-rule:nonzero;stroke:none;stroke-width:0.189655"
       id="path68" />
    <path
       d="M 856.66669,294.48876 H 265.95801 L 225.14993,190.47388 h 672.32484 l -40.80808,104.01488"
       style="fill:#d37c2e;fill-opacity:1;fill-rule:nonzero;stroke:none;stroke-width:0.189655"
       id="path70" />
    <path
       d="m 329.57337,277.09093 c -0.41469,-3.96542 -1.1121,-7.88122 -1.63986,-11.82374 -0.75396,-3.91007 -1.31943,-7.84305 -2.20533,-11.72831 -0.0189,-0.13167 -0.1508,-0.21182 -0.28273,-0.1832 -0.0566,0.0133 -0.1131,0.0477 -0.1508,0.0935 l -0.11309,0.18129 c -1.65871,2.29184 -2.35612,4.4234 -2.77081,6.50915 -0.37698,2.07813 -0.37698,4.09518 -0.0566,6.05881 0.30159,1.96363 0.94247,3.87191 1.9603,5.71913 1.05555,1.84149 2.39383,3.63338 4.69341,5.26496 l 0.18848,0.13167 c 0.0943,0.0764 0.24504,0.0496 0.32044,-0.0592 0.0376,-0.0496 0.0566,-0.10877 0.0566,-0.1641"
       style="fill:#ffffff;fill-opacity:1;fill-rule:nonzero;stroke:none;stroke-width:0.189655"
       id="path72" />
    <path
       d="m 343.0127,241.02816 c -0.39582,-3.96541 -1.09324,-7.88122 -1.63986,-11.82182 -0.73512,-3.91008 -1.31943,-7.84496 -2.18649,-11.73023 -0.0376,-0.13166 -0.16963,-0.21181 -0.30157,-0.18128 -0.0566,0.0133 -0.0943,0.0458 -0.13195,0.0935 l -0.13194,0.18127 c -1.63987,2.28804 -2.33728,4.42342 -2.75196,6.50726 -0.37698,2.07812 -0.39582,4.09709 -0.0754,6.0588 0.32043,1.96363 0.9613,3.87192 1.97914,5.71914 1.0367,1.84149 2.39382,3.63527 4.67456,5.26685 l 0.18848,0.12977 c 0.11311,0.0764 0.26389,0.0515 0.33929,-0.0592 0.0376,-0.0496 0.0376,-0.10878 0.0376,-0.16411"
       style="fill:#ffffff;fill-opacity:1;fill-rule:nonzero;stroke:none;stroke-width:0.189655"
       id="path74" />
    <path
       d="m 367.93107,275.44408 c -0.39582,-3.96541 -1.09323,-7.88122 -1.63986,-11.82374 -0.73511,-3.90817 -1.31943,-7.84305 -2.18648,-11.72832 -0.0376,-0.13166 -0.16964,-0.21372 -0.28274,-0.18319 -0.0754,0.0133 -0.11309,0.0477 -0.15079,0.0935 l -0.13195,0.18129 c -1.63985,2.29184 -2.33726,4.4234 -2.75194,6.50915 -0.37699,2.07813 -0.37699,4.09519 -0.0755,6.05882 0.32044,1.96553 0.9613,3.8738 1.97914,5.71912 1.05555,1.8415 2.39383,3.63337 4.69341,5.26686 l 0.16964,0.12976 c 0.11309,0.0764 0.26388,0.0496 0.33928,-0.0592 0.0376,-0.0496 0.0566,-0.10687 0.0376,-0.16412"
       style="fill:#ffffff;fill-opacity:1;fill-rule:nonzero;stroke:none;stroke-width:0.189655"
       id="path76" />
    <path
       d="m 793.61677,277.18253 c 2.28083,-1.63158 3.63786,-3.42347 4.67457,-5.26496 1.0179,-1.84722 1.65872,-3.7555 1.97914,-5.71913 0.32041,-1.96363 0.30159,-3.98068 -0.0751,-6.05881 -0.4146,-2.08575 -1.11198,-4.21731 -2.75189,-6.50915 l -0.13193,-0.18129 c -0.0751,-0.10877 -0.22622,-0.13167 -0.33933,-0.0534 -0.037,0.0343 -0.0751,0.0878 -0.0751,0.14312 -0.88587,3.88527 -1.47014,7.81824 -2.20526,11.72831 -0.54663,3.94252 -1.24401,7.85832 -1.6399,11.82375 -0.019,0.13357 0.0751,0.24998 0.2074,0.26524 0.0751,0.005 0.13193,-0.0114 0.16957,-0.042 l 0.18858,-0.13168"
       style="fill:#ffffff;fill-opacity:1;fill-rule:nonzero;stroke:none;stroke-width:0.189655"
       id="path78" />
    <path
       d="m 780.15862,241.12166 c 2.29955,-1.63158 3.63786,-3.42536 4.69339,-5.26685 1.01779,-1.84722 1.65872,-3.75551 1.97913,-5.71914 0.3016,-1.96171 0.3016,-3.98068 -0.0751,-6.0588 -0.41471,-2.08384 -1.11219,-4.21922 -2.75199,-6.50726 l -0.13193,-0.18127 c -0.0751,-0.10878 -0.22622,-0.13359 -0.33933,-0.0553 -0.0571,0.0363 -0.0751,0.0878 -0.0941,0.14312 -0.86715,3.88527 -1.45142,7.82015 -2.18654,11.73022 -0.54653,3.9406 -1.24402,7.85641 -1.6399,11.82183 -0.019,0.13358 0.0751,0.25189 0.2074,0.26526 0.0571,0.008 0.11311,-0.01 0.16957,-0.042 l 0.16976,-0.12977"
       style="fill:#ffffff;fill-opacity:1;fill-rule:nonzero;stroke:none;stroke-width:0.189655"
       id="path80" />
    <path
       d="m 266.27845,294.35708 -9.36796,-26.33432 -9.59414,-26.25418 -19.16943,-52.50264 -2.99699,4.47684 84.02883,1.27664 c 28.02845,0.35494 56.03805,0.98658 84.04766,0.99422 l 168.07653,0.80911 168.09527,-0.81866 20.99782,-0.10113 21.01663,-0.28624 42.01436,-0.61639 84.04774,-1.27664 -2.97811,-4.45011 -19.18835,52.49881 -9.59408,26.25228 -9.36795,26.33241 -0.019,0.01 c -0.0571,0.1851 0.037,0.38548 0.2074,0.45417 0.18848,0.0648 0.37687,-0.0268 0.45224,-0.20227 l 40.88355,-103.98244 c 0.0941,-0.22518 -0.019,-0.48089 -0.24503,-0.57249 -0.037,-0.0209 -0.0941,-0.0287 -0.15085,-0.0287 L 561.30277,189.7701 225.1498,190.03345 c -0.24503,0 -0.43353,0.19655 -0.43353,0.44081 0,0.0553 0,0.11259 0.0189,0.16221 l 40.90232,103.98243 c 0.0754,0.18129 0.26389,0.26907 0.45237,0.19846 0.16965,-0.0706 0.26389,-0.27098 0.1885,-0.44845 v -0.0114"
       style="fill:#ffffff;fill-opacity:1;fill-rule:nonzero;stroke:none;stroke-width:0.189655"
       id="path82" />
    <path
       d="m 856.66669,294.13382 -18.47205,-0.90453 -18.45314,-0.68507 -36.92518,-1.35298 -73.83145,-1.67356 -18.45324,-0.41219 -18.47205,-0.2309 -36.90626,-0.42364 -73.85037,-0.31487 -73.83156,0.33204 c -24.61678,0.34349 -49.23356,0.39883 -73.8315,1.07054 l -73.85037,1.67167 -36.90633,1.34152 -18.47201,0.68317 -18.45317,0.8988 -0.0189,0.002 c -0.18848,0.01 -0.33928,0.17558 -0.32043,0.37021 0,0.18701 0.1508,0.33395 0.33928,0.33395 l 295.34501,0.35304 295.36374,-0.35304 c 0.18848,0 0.33933,-0.15838 0.33933,-0.35112 0,-0.19082 -0.15085,-0.3435 -0.32051,-0.35304 l -0.019,-0.002"
       style="fill:#ffffff;fill-opacity:1;fill-rule:nonzero;stroke:none;stroke-width:0.189655"
       id="path84" />
  </g>
</svg>
