<?xml version="1.0" encoding="UTF-8" standalone="no"?>
<!-- Created with Inkscape (http://www.inkscape.org/) -->

<svg
   version="1.1"
   id="svg2"
   width="1500"
   height="1440"
   viewBox="0 0 1500 1440"
   sodipodi:docname="logincaixaTeste.svg"
   inkscape:version="1.2.2 (1:1.2.2+202212051552+b0a8486541)"
   xmlns:inkscape="http://www.inkscape.org/namespaces/inkscape"
   xmlns:sodipodi="http://sodipodi.sourceforge.net/DTD/sodipodi-0.dtd"
   xmlns="http://www.w3.org/2000/svg"
   xmlns:svg="http://www.w3.org/2000/svg">
  <defs
     id="defs6">
    <clipPath
       clipPathUnits="userSpaceOnUse"
       id="clipPath22">
      <path
         d="M 0,0 H 22595 V 10799 H 0 Z"
         id="path20" />
    </clipPath>
    <clipPath
       clipPathUnits="userSpaceOnUse"
       id="clipPath28">
      <path
         d="m 22595.3,0 h -5000 v 5000.01 h 5000 z"
         id="path26" />
    </clipPath>
    <clipPath
       clipPathUnits="userSpaceOnUse"
       id="clipPath184">
      <path
         d="m 16713.4,0 h -5000 v 5000.01 h 5000 z"
         id="path182" />
    </clipPath>
    <clipPath
       clipPathUnits="userSpaceOnUse"
       id="clipPath196">
      <path
         d="M 16713.4,0.902344 H 12409 V 3796.07 h 4304.4 z"
         id="path194" />
    </clipPath>
    <clipPath
       clipPathUnits="userSpaceOnUse"
       id="clipPath236">
      <path
         d="m 13710.9,1100.51 h -1997.5 v 3899.5 h 1997.5 z"
         id="path234" />
    </clipPath>
    <clipPath
       clipPathUnits="userSpaceOnUse"
       id="clipPath262">
      <path
         d="m 13710.9,1100.51 h -1997.5 v 3899.5 h 1997.5 z"
         id="path260" />
    </clipPath>
    <clipPath
       clipPathUnits="userSpaceOnUse"
       id="clipPath268">
      <path
         d="m 13536.7,2629.11 c 0,793.22 -448.8,1553.44 -1234.8,1553.44 -786,0 -1234.7,-760.22 -1234.7,-1553.44 0,-205.79 87.5,-401.48 79.3,-578.44 -23.6,-505.17 2.4,-723.5 170.3,-723.5 194.9,0 200.1,1301.94 200.1,1301.94 0,0 287.7,158.62 785,158.62 497.3,0 773.9,-158.62 773.9,-158.62 0,0 5.1,-1301.94 200.1,-1301.94 167.9,0 205,218.33 181.5,723.5 -8.3,176.96 79.3,372.65 79.3,578.44 z"
         id="path266" />
    </clipPath>
    <clipPath
       clipPathUnits="userSpaceOnUse"
       id="clipPath328">
      <path
         d="M 0,0 H 22595 V 10799 H 0 Z"
         id="path326" />
    </clipPath>
    <clipPath
       clipPathUnits="userSpaceOnUse"
       id="clipPath334">
      <path
         d="m 22595.3,5798.2 h -5000 v 5000 h 5000 z"
         id="path332" />
    </clipPath>
    <clipPath
       clipPathUnits="userSpaceOnUse"
       id="clipPath346">
      <path
         d="m 17595.3,10798.2 h 4349.2 V 7084.17 h -4349.2 z"
         id="path344" />
    </clipPath>
    <clipPath
       clipPathUnits="userSpaceOnUse"
       id="clipPath376">
      <path
         d="M 0,0 H 22595 V 10799 H 0 Z"
         id="path374" />
    </clipPath>
    <clipPath
       clipPathUnits="userSpaceOnUse"
       id="clipPath382">
      <path
         d="m 22595.3,5798.2 h -3477.1 v 4462 h 3477.1 z"
         id="path380" />
    </clipPath>
    <clipPath
       clipPathUnits="userSpaceOnUse"
       id="clipPath406">
      <path
         d="M 0,0 H 22595 V 10799 H 0 Z"
         id="path404" />
    </clipPath>
    <clipPath
       clipPathUnits="userSpaceOnUse"
       id="clipPath412">
      <path
         d="m 22595.3,5798.2 h -3477.1 v 4462 h 3477.1 z"
         id="path410" />
    </clipPath>
    <clipPath
       clipPathUnits="userSpaceOnUse"
       id="clipPath418">
      <path
         d="m 20459.4,6726.43 c 52.3,583.98 3.3,970.42 177.5,1751.92 61.1,273.9 533.9,311.48 1070.9,311.48 537.1,0 1009.8,-37.58 1070.9,-311.48 174.3,-781.5 125.3,-1167.94 177.6,-1751.92 31.9,-356.88 115.5,-628.23 82.6,-931.7 -23,-211.92 -187.7,-297.78 -187.7,-297.78 0,0 -608.7,-85.2 -1143.4,-85.2 -534.7,0 -1143.3,85.2 -1143.3,85.2 0,0 -164.7,85.86 -187.7,297.78 -32.9,303.47 50.7,574.82 82.6,931.7 z"
         id="path416" />
    </clipPath>
    <clipPath
       clipPathUnits="userSpaceOnUse"
       id="clipPath466">
      <path
         d="m 19118,5798 h 3477 v 4463 h -3477 z"
         id="path464" />
    </clipPath>
    <clipPath
       clipPathUnits="userSpaceOnUse"
       id="clipPath478">
      <path
         d="m 22288,8754.04 c 0,-70.06 -259.7,-168.53 -580.2,-168.53 -320.4,0 -580.1,98.47 -580.1,168.53 l 36.6,371.73 c 0,76.5 193.7,93 543.5,93 349.9,0 543.6,-16.5 543.6,-93 z"
         id="path476" />
    </clipPath>
    <clipPath
       clipPathUnits="userSpaceOnUse"
       id="clipPath502">
      <path
         d="m 19118,5798 h 3477 v 4463 h -3477 z"
         id="path500" />
    </clipPath>
    <clipPath
       clipPathUnits="userSpaceOnUse"
       id="clipPath514">
      <path
         d="m 16713.4,5798.2 h -5000 v 5000 h 5000 z"
         id="path512" />
    </clipPath>
    <clipPath
       clipPathUnits="userSpaceOnUse"
       id="clipPath570">
      <path
         d="m 12733,9590.42 c 100.8,50.28 172.2,-20.25 205.3,-88.99 l 171.2,-367.9 c 6,6.83 12.3,12.78 18.3,19.18 l -201.1,605.49 c -25,72.29 -32.6,166.53 74.7,206.96 83.9,31.56 162.4,-43.84 187.4,-116.13 l 178.3,-554.28 c 2.2,0.69 3.9,1.43 6.1,2.13 l 17.3,4.36 -98.7,641.42 c -13.9,75.14 9.6,175.84 105,193.34 99.8,18.4 153.8,-68.1 167.7,-143.18 l 99.2,-639.89 c 8.9,-0.18 17.4,0.1 26.4,-0.08 l -18.1,430.52 c -6.3,76.56 28.9,171.68 120.2,179 95.2,7.64 149.8,-80.3 156.1,-156.45 l 28.5,-558.84 v 0 c 55.7,162.55 137.2,267.21 142,274.97 39.3,65.82 124.6,86.84 190.4,47.51 65.3,-39.73 86.8,-124.56 47.1,-190.35 -43.7,-72.76 -153.2,-257.05 -154.7,-483.73 -2,-308.34 -101.8,-446.08 -101.8,-446.08 l -874,-145.9 c 0,0 -170.8,157.74 -242.9,436.99 -0.2,0.6 -0.3,1.19 -0.5,1.79 -38.6,153.74 -105.1,240.08 -173.9,382.9 l -120,255.63 c -33.4,69.25 -23.8,175.57 44.5,209.61 z"
         id="path568" />
    </clipPath>
    <clipPath
       clipPathUnits="userSpaceOnUse"
       id="clipPath616">
      <path
         d="m 15703.9,9256.54 c -96.1,58.67 -173.2,-5.54 -212.1,-71.21 l -201.8,-352 c -5.4,7.3 -11.2,13.77 -16.6,20.66 l 251.8,586.19 c 31.1,69.9 46.7,163.15 -56.9,212.57 -80.8,38.58 -165.5,-29.86 -196.5,-99.77 L 15047,9015.86 c -2.1,0.89 -3.8,1.77 -5.9,2.66 l -16.9,5.81 153,630.7 c 20.2,73.64 5.3,175.99 -88.2,201.56 -98,26.79 -159.1,-54.74 -179.3,-128.39 l -153.3,-629.13 c -8.9,0.58 -17.3,1.58 -26.2,2.16 l 54.6,427.42 c 12.8,75.75 -14.2,173.52 -104.6,188.59 -94.2,15.7 -156,-67.28 -168.8,-142.62 l -76,-554.38 v 0 c -41.6,166.7 -113.9,277.9 -118,286.04 -33.6,68.93 -116.8,97.13 -185.7,63.53 -68.5,-34.02 -97.1,-116.71 -63.1,-185.65 37.3,-76.21 130.7,-269.15 112.9,-495.13 -24.2,-307.38 63.6,-453.12 63.6,-453.12 l 858.3,-219.71 c 0,0 183.7,142.64 279.3,414.75 0.2,0.57 0.4,1.15 0.6,1.73 51.5,149.91 125.1,230.28 205.8,366.72 l 141.4,244.5 c 39.2,66.15 38.6,172.91 -26.6,212.64 z"
         id="path614" />
    </clipPath>
    <clipPath
       clipPathUnits="userSpaceOnUse"
       id="clipPath812">
      <path
         d="M 0,0 H 22595 V 10799 H 0 Z"
         id="path810" />
    </clipPath>
    <clipPath
       clipPathUnits="userSpaceOnUse"
       id="clipPath818">
      <path
         d="M 10800,4511.32 H 0.90625 V 10799.1 H 10800 Z"
         id="path816" />
    </clipPath>
    <clipPath
       clipPathUnits="userSpaceOnUse"
       id="clipPath832">
      <path
         d="M 10800,395.703 H 6521.49 V 3675.47 H 10800 Z"
         id="path830" />
    </clipPath>
    <clipPath
       clipPathUnits="userSpaceOnUse"
       id="clipPath928">
      <path
         d="M 0,395.703 H 4278.51 V 3675.47 H 0 Z"
         id="path926" />
    </clipPath>
  </defs>
  <sodipodi:namedview
     id="namedview4"
     pagecolor="#ffffff"
     bordercolor="#000000"
     borderopacity="0.25"
     inkscape:showpageshadow="2"
     inkscape:pageopacity="0.0"
     inkscape:pagecheckerboard="0"
     inkscape:deskcolor="#d1d1d1"
     showgrid="false"
     showguides="true"
     inkscape:zoom="0.46358642"
     inkscape:cx="1427.997"
     inkscape:cy="229.73063"
     inkscape:window-width="1846"
     inkscape:window-height="1016"
     inkscape:window-x="0"
     inkscape:window-y="0"
     inkscape:window-maximized="1"
     inkscape:current-layer="g10">
    <inkscape:page
       x="0"
       y="0"
       id="page8"
       width="1500"
       height="1440" />
  </sodipodi:namedview>
  <g
     id="g10"
     inkscape:groupmode="layer"
     inkscape:label="Page 1"
     transform="matrix(1.3333333,0,0,-1.3333333,0,1439.88)">
    <path
       d="M 1124.4068,-0.13955184 H 1.0467672 V 1079.8432 H 1124.4068 V -0.13955184"
       style="fill:#0e4696;fill-opacity:1;fill-rule:nonzero;stroke:none;stroke-width:0.220291"
       id="path14" />
    <g
       id="g18"
       clip-path="url(#clipPath22)"
       transform="matrix(0.19921634,0,0,0.22437026,-3442.5596,-41.872054)"
       style="stroke:#ffffff;stroke-opacity:1">
      <g
         id="g24"
         clip-path="url(#clipPath28)"
         style="stroke:#ffffff;stroke-opacity:1">
        <path
           d="m 22885.4,3766.92 c 69.3,-324.59 -31.5,-668.57 -266.3,-903.23 -216.5,-216.28 -459.8,-252.02 -674.6,-283.56 -49.6,-7.29 -100.9,-14.83 -151.5,-24.36 -76,-14.32 -121,-34.76 -133.6,-60.76 -22,-45.3 -22.2,-150.35 -22.4,-243.03 -0.4,-206.35 -94.1,-398.61 -250.5,-514.31 l -53,-39.22"
           style="fill:none;stroke:#ffffff;stroke-width:30;stroke-linecap:round;stroke-linejoin:round;stroke-miterlimit:10;stroke-dasharray:130.552, 130.552;stroke-dashoffset:0;stroke-opacity:1"
           id="path30" />
        <path
           d="m 18857.1,1698.45 -53,39.22 c -156.4,115.71 -250,307.97 -250.4,514.3 -0.2,92.69 -0.4,197.75 -22.4,243.03 -12.7,26 -57.6,46.45 -133.6,60.77 -50.6,9.53 -101.9,17.07 -151.6,24.36 -214.7,31.54 -458.1,67.28 -674.5,283.56 -234.8,234.66 -335.7,578.65 -266.3,903.23"
           style="fill:none;stroke:#ffffff;stroke-width:30;stroke-linecap:round;stroke-linejoin:round;stroke-miterlimit:10;stroke-dasharray:130.552, 130.552;stroke-dashoffset:0;stroke-opacity:1"
           id="path32" />
        <path
           d="m 22685.382,3879.5114 c 63,-280.6976 -17.4,-589.4241 -207.698,-793.4497 -212.099,-227.3974 -449.097,-216.2052 -721.795,-271.3295 -312.398,-63.1618 -318.398,-244.202 -318.898,-536.4781 -0.3,-153.1936 -65.4,-297.2123 -169.399,-379.7862 h -2344.484 c -103.999,82.5739 -169.099,226.5926 -169.399,379.7862 -0.6,292.2761 -6.5,473.3163 -318.998,536.4781 -272.598,55.1243 -509.596,43.9321 -721.695,271.3295 -190.298,204.0256 -270.698,512.7521 -207.698,793.4497 v 1471.2959 h 5180.064 V 3879.5114"
           style="fill:#0e7496;fill-opacity:1;fill-rule:nonzero;stroke:#ffffff;stroke-width:1.03589;stroke-opacity:1"
           id="path34" />
      </g>
    </g>
    <path
       d="M 855.8301,-1.3197243 H 265.69869 V 248.25407 H 855.8301 V -1.3197243"
       style="fill:#d37c2e;fill-opacity:1;fill-rule:nonzero;stroke:none;stroke-width:0.189362"
       id="path36" />
    <path
       d="M 855.8301,248.25407 H 265.69869 V 391.15628 H 855.8301 V 248.25407"
       style="fill:#23304e;fill-opacity:1;fill-rule:nonzero;stroke:none;stroke-width:0.189362"
       id="path38" />
    <path
       d="m 759.3987,179.94745 c 1.9961,-1.98613 3.0129,-3.96483 3.7473,-5.94201 0.6779,-1.97641 0.998,-3.94903 0.9603,-5.92011 -0.019,-1.97051 -0.3577,-3.93798 -1.0733,-5.90107 -0.7532,-1.96746 -1.8077,-3.92826 -3.8038,-5.88221 l -0.1694,-0.15635 c -0.094,-0.0929 -0.2448,-0.0891 -0.339,0.006 -0.038,0.0438 -0.057,0.0988 -0.057,0.15615 -0.2259,3.9416 -0.1317,7.88186 -0.1883,11.82346 0.1318,3.93931 0.094,7.88167 0.3766,11.82118 0,0.13158 0.113,0.23288 0.2448,0.22317 0.057,-0.004 0.113,-0.0305 0.1507,-0.0686 l 0.1506,-0.15977"
       style="fill:#ffffff;fill-opacity:1;fill-rule:nonzero;stroke:none;stroke-width:0.189362"
       id="path48" />
    <path
       d="m 778.3046,144.41231 c 1.9961,-1.98079 3.0129,-3.96101 3.7284,-5.94181 0.6968,-1.98003 1.0169,-3.94159 0.9792,-5.92182 -0.018,-1.96138 -0.3578,-3.94237 -1.0733,-5.90316 -0.772,-1.96138 -1.8077,-3.92294 -3.8226,-5.8845 l -0.1506,-0.15177 c -0.094,-0.096 -0.2448,-0.0765 -0.339,0.0186 -0.038,0.0379 -0.057,0.0952 -0.075,0.15254 -0.2072,3.94159 -0.113,7.88319 -0.1883,11.82479 0.1318,3.94236 0.1129,7.88415 0.3766,11.80708 0.019,0.13311 0.1317,0.24699 0.2636,0.22832 0.057,0 0.1129,-0.0192 0.1507,-0.0571 l 0.1506,-0.17119"
       style="fill:#ffffff;fill-opacity:1;fill-rule:nonzero;stroke:none;stroke-width:0.189362"
       id="path50" />
    <path
       d="m 797.7754,179.63857 c 1.9772,-1.98822 2.9941,-3.96692 3.7285,-5.94105 0.6779,-1.97851 0.998,-3.95131 0.9792,-5.92239 -0.019,-1.96899 -0.3578,-3.9357 -1.0922,-5.90107 -0.7533,-1.96518 -1.8077,-3.92674 -3.8038,-5.88069 l -0.1506,-0.15558 c -0.113,-0.0937 -0.2637,-0.0914 -0.339,0.005 -0.057,0.0417 -0.075,0.0975 -0.075,0.15482 -0.2071,3.9416 -0.113,7.8811 -0.1883,11.82498 0.1318,3.94008 0.094,7.87958 0.3765,11.81966 0,0.1331 0.1131,0.23422 0.2448,0.22317 0.075,-0.004 0.1131,-0.0305 0.1507,-0.0691 l 0.1695,-0.15787"
       style="fill:#ffffff;fill-opacity:1;fill-rule:nonzero;stroke:none;stroke-width:0.189362"
       id="path52" />
    <path
       d="m 797.2105,107.85004 c 1.9772,-1.9987 2.9941,-3.97949 3.7285,-5.94105 0.6778,-1.980037 0.998,-3.960268 0.9791,-5.921826 -0.019,-1.980795 -0.3765,-3.942362 -1.0921,-5.903161 -0.7532,-1.961373 -1.8077,-3.942363 -3.8038,-5.884502 l -0.1695,-0.15253 c -0.094,-0.09521 -0.2448,-0.09521 -0.3389,0 -0.037,0.03865 -0.057,0.09597 -0.057,0.15253 -0.2071,3.942358 -0.1129,7.883961 -0.1883,11.82575 0.1319,3.941594 0.094,7.883189 0.3767,11.824789 0,0.13387 0.1129,0.22909 0.2448,0.22909 0.057,-0.0192 0.1129,-0.0387 0.1506,-0.0766 L 797.21,107.85"
       style="fill:#ffffff;fill-opacity:1;fill-rule:nonzero;stroke:none;stroke-width:0.189362"
       id="path54" />
    <path
       d="m 360.79309,199.22545 c 0.28246,-3.93988 0.2448,-7.88167 0.37662,-11.82097 -0.0753,-3.94237 0.0189,-7.88187 -0.18831,-11.82347 0,-0.13387 -0.11298,-0.23651 -0.2448,-0.22908 -0.0565,0.004 -0.11298,0.0267 -0.15064,0.0668 l -0.16948,0.15634 c -1.99604,1.95318 -3.05055,3.91703 -3.80378,5.88221 -0.71556,1.96309 -1.07334,3.93056 -1.09217,5.90088 -0.0189,1.9709 0.30129,3.94369 0.97919,5.9203 0.7344,1.9766 1.75125,3.95511 3.72845,5.94124 l 0.16948,0.15997 c 0.0942,0.0933 0.2448,0.0933 0.32012,-0.002 0.0565,-0.0438 0.0753,-0.099 0.0753,-0.15234"
       style="fill:#ffffff;fill-opacity:1;fill-rule:nonzero;stroke:none;stroke-width:0.189362"
       id="path56" />
    <path
       d="m 341.8872,163.69433 c 0.28246,-3.94008 0.24479,-7.88187 0.3766,-11.82117 -0.0753,-3.93875 0.0189,-7.88035 -0.1883,-11.82195 0,-0.1331 -0.11298,-0.24773 -0.2448,-0.22831 -0.0565,0 -0.11298,0.0185 -0.15064,0.0571 l -0.16948,0.17119 c -1.99603,1.94215 -3.05055,3.90371 -3.80377,5.86527 -0.71556,1.98004 -1.07335,3.9416 -1.09217,5.91059 -0.0189,1.9688 0.30128,3.94159 0.97919,5.92011 0.73438,1.97642 1.75123,3.95512 3.72845,5.94125 l 0.16947,0.15996 c 0.0942,0.0937 0.2448,0.0937 0.33895,-0.002 0.0376,-0.044 0.0565,-0.0975 0.0565,-0.15253"
       style="fill:#ffffff;fill-opacity:1;fill-rule:nonzero;stroke:none;stroke-width:0.189362"
       id="path58" />
    <path
       d="m 322.43521,198.91507 c 0.26363,-3.93989 0.2448,-7.87977 0.37661,-11.81928 -0.0753,-3.94388 0.0189,-7.88415 -0.1883,-11.82574 -0.0189,-0.1354 -0.13181,-0.23575 -0.26363,-0.22832 -0.0565,0.004 -0.11298,0.0282 -0.15064,0.0668 l -0.15065,0.15767 c -2.01487,1.95414 -3.05055,3.91494 -3.82261,5.88012 -0.71556,1.96538 -1.05451,3.93284 -1.07334,5.90183 -0.0189,1.97051 0.28246,3.94522 0.97919,5.91992 0.71557,1.9766 1.73241,3.95512 3.72845,5.94315 l 0.15065,0.15805 c 0.0942,0.0952 0.2448,0.0933 0.33895,-0.002 0.0376,-0.0438 0.0753,-0.0971 0.0753,-0.15234"
       style="fill:#ffffff;fill-opacity:1;fill-rule:nonzero;stroke:none;stroke-width:0.189362"
       id="path60" />
    <path
       d="m 427.50982,103.92786 c 0.28246,-3.941787 0.2448,-7.883381 0.37661,-11.825743 -0.0565,-3.941595 0.0189,-7.883193 -0.1883,-11.824981 0,-0.133869 -0.11298,-0.228319 -0.2448,-0.228319 -0.0565,0 -0.11298,0.03789 -0.15064,0.07598 l -0.16948,0.15234 c -1.99604,1.961563 -3.05055,3.922365 -3.80378,5.883928 -0.71556,1.961567 -1.07333,3.92294 -1.09217,5.903162 -0.0189,1.961566 0.30129,3.941603 0.97919,5.922398 0.7344,1.960799 1.75124,3.941785 3.72845,5.941235 l 0.16948,0.15235 c 0.0942,0.0952 0.2448,0.0952 0.33895,0 0.0376,-0.0387 0.0565,-0.0952 0.0565,-0.15235"
       style="fill:#ffffff;fill-opacity:1;fill-rule:nonzero;stroke:none;stroke-width:0.189362"
       id="path62" />
    <path
       d="m 408.60393,68.394262 c 0.28245,-3.941598 0.2448,-7.883196 0.37661,-11.824984 -0.0565,-3.94236 0.0376,-7.883958 -0.18831,-11.825556 0,-0.133107 -0.11299,-0.228319 -0.2448,-0.228319 -0.0565,0 -0.11298,0.03789 -0.15065,0.07578 l -0.16947,0.152531 c -1.99604,1.961563 -3.05055,3.922936 -3.80377,5.883737 -0.71556,1.961564 -1.05452,3.923127 -1.09218,5.903924 -0.0189,1.960801 0.30129,3.941598 0.97919,5.921823 0.73439,1.980034 1.75125,3.941598 3.72846,5.941056 l 0.16947,0.15253 c 0.0942,0.09521 0.2448,0.09521 0.33895,0 0.0376,-0.03789 0.0565,-0.09521 0.0565,-0.15253"
       style="fill:#ffffff;fill-opacity:1;fill-rule:nonzero;stroke:none;stroke-width:0.189362"
       id="path64" />
    <path
       d="m 841.8955,380.58581 111.7782,-126.0344 13.9347,10.57047 -111.7783,126.0344 -13.9346,-10.57047"
       style="fill:#23304e;fill-opacity:1;fill-rule:nonzero;stroke:none;stroke-width:0.189362"
       id="path66" />
    <path
       d="m 279.63331,380.58581 -111.79713,-126.0344 -13.93462,10.57047 111.79713,126.0344 13.93462,-10.57047"
       style="fill:#23304e;fill-opacity:1;fill-rule:nonzero;stroke:none;stroke-width:0.189362"
       id="path68" />
    <path
       d="M 855.8301,391.15628 H 265.69869 L 224.93049,287.36156 H 896.5983 l -40.7682,103.79472"
       style="fill:#d37c2e;fill-opacity:1;fill-rule:nonzero;stroke:none;stroke-width:0.189362"
       id="path70" />
    <path
       d="m 329.25188,373.79527 c -0.41428,-3.95702 -1.11101,-7.86453 -1.63826,-11.79871 -0.75322,-3.90179 -1.31814,-7.82645 -2.20317,-11.70349 -0.0189,-0.13139 -0.15065,-0.21137 -0.28246,-0.18281 -0.0565,0.0133 -0.11299,0.0476 -0.15065,0.0933 l -0.11298,0.18091 c -1.65709,2.28699 -2.35382,4.41404 -2.7681,6.49537 -0.37661,2.07373 -0.37661,4.08652 -0.0565,6.04599 0.30129,1.95947 0.94154,3.86371 1.95838,5.70702 1.05452,1.8376 2.39149,3.62569 4.68882,5.25382 l 0.1883,0.13139 c 0.0942,0.0762 0.2448,0.0495 0.32013,-0.0591 0.0376,-0.0495 0.0565,-0.10854 0.0565,-0.16376"
       style="fill:#ffffff;fill-opacity:1;fill-rule:nonzero;stroke:none;stroke-width:0.189362"
       id="path72" />
    <path
       d="m 342.67808,337.80883 c -0.39544,-3.95701 -1.09217,-7.86453 -1.63826,-11.79679 -0.7344,-3.90181 -1.31814,-7.82836 -2.18435,-11.7054 -0.0376,-0.13139 -0.16947,-0.21137 -0.30128,-0.1809 -0.0565,0.0133 -0.0942,0.0457 -0.13182,0.0933 l -0.13181,0.18089 c -1.63827,2.28319 -2.335,4.41405 -2.74927,6.49348 -0.37661,2.07373 -0.39544,4.08842 -0.0753,6.04598 0.32012,1.95947 0.96036,3.86372 1.97721,5.70703 1.03568,1.8376 2.39148,3.62758 4.66999,5.25571 l 0.1883,0.12949 c 0.11299,0.0762 0.26363,0.0514 0.33895,-0.0591 0.0376,-0.0495 0.0376,-0.10855 0.0376,-0.16377"
       style="fill:#ffffff;fill-opacity:1;fill-rule:nonzero;stroke:none;stroke-width:0.189362"
       id="path74" />
    <path
       d="m 367.5721,372.15191 c -0.39544,-3.95702 -1.09217,-7.86454 -1.63826,-11.79871 -0.73439,-3.8999 -1.31814,-7.82645 -2.18435,-11.7035 -0.0376,-0.13138 -0.16947,-0.21327 -0.28246,-0.1828 -0.0753,0.0133 -0.11298,0.0476 -0.15064,0.0933 l -0.13182,0.18091 c -1.63825,2.28699 -2.33498,4.41403 -2.74925,6.49537 -0.37662,2.07373 -0.37662,4.08652 -0.0754,6.04599 0.32013,1.96137 0.96036,3.86561 1.97721,5.70702 1.05451,1.8376 2.39149,3.62568 4.68882,5.25571 l 0.16947,0.12949 c 0.11298,0.0762 0.26363,0.0495 0.33895,-0.0591 0.0376,-0.0495 0.0565,-0.10664 0.0376,-0.16377"
       style="fill:#ffffff;fill-opacity:1;fill-rule:nonzero;stroke:none;stroke-width:0.189362"
       id="path76" />
    <path
       d="m 792.8418,373.88668 c 2.2786,-1.62813 3.6343,-3.41622 4.67,-5.25382 1.0169,-1.84331 1.6571,-3.74755 1.9772,-5.70702 0.3201,-1.95947 0.3013,-3.97226 -0.075,-6.04599 -0.4142,-2.08133 -1.1109,-4.20838 -2.7492,-6.49537 l -0.1318,-0.18091 c -0.075,-0.10854 -0.226,-0.13139 -0.339,-0.0533 -0.037,0.0342 -0.075,0.0876 -0.075,0.14281 -0.885,3.87705 -1.4687,7.8017 -2.2031,11.70349 -0.5461,3.93418 -1.2428,7.84169 -1.6383,11.79872 -0.019,0.13329 0.075,0.24945 0.2072,0.26468 0.075,0.005 0.1318,-0.0114 0.1694,-0.0419 l 0.1884,-0.1314"
       style="fill:#ffffff;fill-opacity:1;fill-rule:nonzero;stroke:none;stroke-width:0.189362"
       id="path78" />
    <path
       d="m 779.3968,337.90214 c 2.2973,-1.62813 3.6343,-3.41811 4.6888,-5.25571 1.0168,-1.84331 1.6571,-3.74756 1.9772,-5.70703 0.3013,-1.95756 0.3013,-3.97225 -0.075,-6.04598 -0.4143,-2.07943 -1.1111,-4.21029 -2.7493,-6.49348 l -0.1318,-0.18089 c -0.075,-0.10855 -0.226,-0.13331 -0.339,-0.0552 -0.057,0.0362 -0.075,0.0876 -0.094,0.14282 -0.8663,3.87704 -1.45,7.80359 -2.1844,11.70539 -0.546,3.93226 -1.2428,7.83978 -1.6383,11.7968 -0.019,0.1333 0.075,0.25136 0.2072,0.2647 0.057,0.008 0.113,-0.01 0.1694,-0.0419 l 0.1696,-0.12949"
       style="fill:#ffffff;fill-opacity:1;fill-rule:nonzero;stroke:none;stroke-width:0.189362"
       id="path80" />
    <path
       d="m 266.01881,391.02488 -9.3588,-26.27858 -9.58476,-26.19861 -19.1507,-52.39151 -2.99406,4.46736 83.94671,1.27394 c 28.00106,0.35419 55.98329,0.98449 83.96553,0.99211 l 167.91227,0.8074 167.931,-0.81693 20.9773,-0.10091 20.9961,-0.28564 41.9733,-0.61508 83.9656,-1.27394 -2.9752,-4.44069 -19.1696,52.38769 -9.5847,26.19671 -9.3588,26.27668 -0.019,0.01 c -0.057,0.18471 0.037,0.38466 0.2072,0.45321 0.1883,0.0647 0.3765,-0.0267 0.4518,-0.20185 l 40.8436,-103.76235 c 0.094,-0.2247 -0.019,-0.47987 -0.2448,-0.57127 -0.037,-0.0209 -0.094,-0.0286 -0.1507,-0.0286 l -335.8433,-0.26469 -335.82446,0.26279 c -0.24479,0 -0.43311,0.19613 -0.43311,0.43988 0,0.0552 0,0.11235 0.0189,0.16186 l 40.86235,103.76234 c 0.0753,0.18091 0.26363,0.2685 0.45193,0.19804 0.16948,-0.0704 0.26363,-0.2704 0.18832,-0.4475 v -0.0114"
       style="fill:#ffffff;fill-opacity:1;fill-rule:nonzero;stroke:none;stroke-width:0.189362"
       id="path82" />
    <path
       d="m 855.8301,390.80209 -18.454,-0.90261 -18.4351,-0.68362 -36.8891,-1.35012 -73.7593,-1.67002 -18.4352,-0.41132 -18.454,-0.23041 -36.8702,-0.42274 -73.7782,-0.3142 -73.7594,0.33133 c -24.59273,0.34277 -49.18545,0.39799 -73.75935,1.06828 l -73.7782,1.66813 -36.87027,1.33868 -18.45396,0.68172 -18.43513,0.8969 -0.0189,0.002 c -0.1883,0.01 -0.33895,0.1752 -0.32012,0.36942 0,0.18662 0.15065,0.33325 0.33895,0.33325 l 295.05638,0.35229 295.0751,-0.35229 c 0.1883,0 0.339,-0.15805 0.339,-0.35038 0,-0.19042 -0.1507,-0.34277 -0.3202,-0.35229 l -0.019,-0.002"
       style="fill:#ffffff;fill-opacity:1;fill-rule:nonzero;stroke:none;stroke-width:0.189362"
       id="path84" />
  </g>
</svg>
