<?xml version="1.0" encoding="UTF-8" standalone="no"?>
<!-- Created with Inkscape (http://www.inkscape.org/) -->

<svg
   version="1.1"
   id="svg20976"
   width="667"
   height="666.66669"
   viewBox="0 0 667 666.66669"
   sodipodi:docname="Madalena.svg"
   inkscape:version="1.2.2 (1:1.2.2+202212051552+b0a8486541)"
   xmlns:inkscape="http://www.inkscape.org/namespaces/inkscape"
   xmlns:sodipodi="http://sodipodi.sourceforge.net/DTD/sodipodi-0.dtd"
   xmlns="http://www.w3.org/2000/svg"
   xmlns:svg="http://www.w3.org/2000/svg">
  <defs
     id="defs20980">
    <clipPath
       clipPathUnits="userSpaceOnUse"
       id="clipPath20998">
      <path
         d="m 3661.82,3487.27 c 0,-423.63 -343.42,-767.06 -767.06,-767.06 -423.63,0 -767.06,343.43 -767.06,767.06 0,423.64 343.43,767.07 767.06,767.07 423.64,0 767.06,-343.43 767.06,-767.07"
         id="path20996" />
    </clipPath>
    <clipPath
       clipPathUnits="userSpaceOnUse"
       id="clipPath21050">
      <path
         d="m 7082.78,3487.27 c 0,-423.63 -343.43,-767.06 -767.06,-767.06 -423.64,0 -767.07,343.43 -767.07,767.06 0,423.64 343.43,767.07 767.07,767.07 423.63,0 767.06,-343.43 767.06,-767.07"
         id="path21048" />
    </clipPath>
    <clipPath
       clipPathUnits="userSpaceOnUse"
       id="clipPath21062">
      <path
         d="m 7082.78,3487.27 c 0,-423.63 -343.43,-767.06 -767.06,-767.06 -423.64,0 -767.07,343.43 -767.07,767.06 0,423.64 343.43,767.07 767.07,767.07 423.63,0 767.06,-343.43 767.06,-767.07"
         id="path21060" />
    </clipPath>
    <clipPath
       clipPathUnits="userSpaceOnUse"
       id="clipPath21068">
      <path
         d="M 6983.9,2704.26 H 5647.53 c 0,0 40.53,224.13 132.38,353.15 91.85,129.1 432.73,176.17 432.73,176.17 l 103.08,-15.9 103.07,15.9 c 0,0 340.99,-47.07 432.84,-176.17 91.85,-129.02 132.27,-353.15 132.27,-353.15"
         id="path21066" />
    </clipPath>
    <clipPath
       clipPathUnits="userSpaceOnUse"
       id="clipPath21082">
      <path
         d="m 7082.78,3487.27 c 0,-423.63 -343.43,-767.06 -767.06,-767.06 -423.64,0 -767.07,343.43 -767.07,767.06 0,423.64 343.43,767.07 767.07,767.07 423.63,0 767.06,-343.43 767.06,-767.07"
         id="path21080" />
    </clipPath>
    <clipPath
       clipPathUnits="userSpaceOnUse"
       id="clipPath21130">
      <path
         d="m 5372.3,3487.27 c 0,-423.63 -343.43,-767.06 -767.06,-767.06 -423.64,0 -767.06,343.43 -767.06,767.06 0,423.64 343.42,767.07 767.06,767.07 423.63,0 767.06,-343.43 767.06,-767.07"
         id="path21128" />
    </clipPath>
    <clipPath
       clipPathUnits="userSpaceOnUse"
       id="clipPath21180">
      <path
         d="m 1951.35,3487.27 c 0,-423.63 -343.43,-767.06 -767.06,-767.06 -423.642,0 -767.063,343.43 -767.063,767.06 0,423.64 343.421,767.07 767.063,767.07 423.63,0 767.06,-343.43 767.06,-767.07"
         id="path21178" />
    </clipPath>
    <clipPath
       clipPathUnits="userSpaceOnUse"
       id="clipPath21230">
      <path
         d="m 3661.82,1512.73 c 0,-423.64 -343.42,-767.058 -767.06,-767.058 -423.63,0 -767.06,343.418 -767.06,767.058 0,423.63 343.43,767.06 767.06,767.06 423.64,0 767.06,-343.43 767.06,-767.06"
         id="path21228" />
    </clipPath>
    <clipPath
       clipPathUnits="userSpaceOnUse"
       id="clipPath21280">
      <path
         d="m 1951.35,1512.73 c 0,-423.64 -343.43,-767.058 -767.06,-767.058 -423.642,0 -767.063,343.418 -767.063,767.058 0,423.63 343.421,767.06 767.063,767.06 423.63,0 767.06,-343.43 767.06,-767.06"
         id="path21278" />
    </clipPath>
    <clipPath
       clipPathUnits="userSpaceOnUse"
       id="clipPath21330">
      <path
         d="m 7082.78,1512.73 c 0,-423.64 -343.43,-767.058 -767.06,-767.058 -423.64,0 -767.07,343.418 -767.07,767.058 0,423.63 343.43,767.06 767.07,767.06 423.63,0 767.06,-343.43 767.06,-767.06"
         id="path21328" />
    </clipPath>
    <clipPath
       clipPathUnits="userSpaceOnUse"
       id="clipPath21382">
      <path
         d="m 5372.3,1543.33 c 0,-423.63 -343.43,-767.06 -767.06,-767.06 -423.64,0 -767.06,343.43 -767.06,767.06 0,423.64 343.42,767.06 767.06,767.06 423.63,0 767.06,-343.42 767.06,-767.06"
         id="path21380" />
    </clipPath>
    <clipPath
       clipPathUnits="userSpaceOnUse"
       id="clipPath18822">
      <path
         d="m 4428.69,2436.21 c 0,-312.26 -253.15,-565.41 -565.41,-565.41 -312.26,0 -565.4,253.15 -565.4,565.41 0,312.26 253.14,565.41 565.4,565.41 312.26,0 565.41,-253.15 565.41,-565.41"
         id="path18820" />
    </clipPath>
    <clipPath
       clipPathUnits="userSpaceOnUse"
       id="clipPath18672">
      <path
         d="m 4435.19,4032.09 c 0,-312.27 -253.14,-565.41 -565.41,-565.41 -312.25,0 -565.4,253.14 -565.4,565.41 0,312.26 253.15,565.4 565.4,565.4 312.27,0 565.41,-253.14 565.41,-565.4"
         id="path18670" />
    </clipPath>
    <clipPath
       clipPathUnits="userSpaceOnUse"
       id="clipPath7959">
      <path
         d="m 5372.3,1543.33 c 0,-423.63 -343.43,-767.06 -767.06,-767.06 -423.64,0 -767.06,343.43 -767.06,767.06 0,423.64 343.42,767.06 767.06,767.06 423.63,0 767.06,-343.42 767.06,-767.06"
         id="path7957" />
    </clipPath>
  </defs>
  <sodipodi:namedview
     id="namedview20978"
     pagecolor="#ffffff"
     bordercolor="#000000"
     borderopacity="0.25"
     inkscape:showpageshadow="2"
     inkscape:pageopacity="0.0"
     inkscape:pagecheckerboard="0"
     inkscape:deskcolor="#d1d1d1"
     showgrid="false"
     inkscape:zoom="0.35399998"
     inkscape:cx="285.31075"
     inkscape:cy="91.807914"
     inkscape:window-width="1366"
     inkscape:window-height="836"
     inkscape:window-x="0"
     inkscape:window-y="0"
     inkscape:window-maximized="1"
     inkscape:current-layer="g20984">
    <inkscape:page
       x="0"
       y="0"
       id="page20982"
       width="667"
       height="666.66669" />
  </sodipodi:namedview>
  <g
     id="g20984"
     inkscape:groupmode="layer"
     inkscape:label="Page 1"
     transform="matrix(1.3333333,0,0,-1.3333333,0,666.66667)">
    <path
       d="m 500.30502,249.70591 c 0,-138.10434 -111.95895,-250.06329209 -250.06328,-250.06329209 -138.10759,0 -250.06327849,111.95895209 -250.06327849,250.06329209 0,138.10758 111.95568849,250.06327 250.06327849,250.06327 138.10433,0 250.06328,-111.95569 250.06328,-250.06327"
       style="fill:#0e4696;fill-opacity:1;fill-rule:nonzero;stroke:none;stroke-width:0.326002"
       id="path7951" />
    <g
       id="g7953"
       transform="matrix(0.32600224,0,0,0.32600224,-1251.0768,-253.42314)">
      <g
         id="g7955"
         clip-path="url(#clipPath7959)">
        <path
           d="m 4724.52,2043.44 c -29.06,148.27 134.66,238.35 232.89,132.15 98.23,-106.2 24.96,-185.89 -74.31,-195.7 -99.26,-9.82 -133.45,67.3 -133.45,67.3 l -25.13,-3.75"
           style="fill:#d76a40;fill-opacity:1;fill-rule:nonzero;stroke:none"
           id="path7961" />
        <path
           d="m 4653.43,2049.22 c 27.37,84.3 172.46,15.71 207.37,-40.86 34.91,-56.58 18.75,-138.82 18.75,-138.82 l -226.12,179.68"
           style="fill:#5b4852;fill-opacity:1;fill-rule:nonzero;stroke:none"
           id="path7963" />
        <path
           d="m 4276.77,1678.96 c -43.9,299.99 166.02,408.93 348.58,404.9 182.56,-4.04 268.87,-149.3 268.87,-149.3 0,0 130.61,-193.82 -29.3,-371.66 -159.92,-177.85 -588.15,116.06 -588.15,116.06"
           style="fill:#d76a40;fill-opacity:1;fill-rule:nonzero;stroke:none"
           id="path7965" />
        <path
           d="M 5202.67,776.27 H 4007.81 c 0,0 55.73,215.089 135,342.51 79.27,127.5 370.27,170.86 370.27,170.86 l 92.16,-15.43 92.16,15.43 c 0,0 291.09,-43.36 370.36,-170.86 79.27,-127.421 134.91,-342.51 134.91,-342.51"
           style="fill:#d88d48;fill-opacity:1;fill-rule:nonzero;stroke:none"
           id="path7967" />
        <path
           d="m 4285.22,1224.71 c 112.33,-231.39 453.5,-253.081 640.11,0 0,0 -272.09,173.9 -640.11,0"
           style="fill:#ffffff;fill-opacity:1;fill-rule:nonzero;stroke:none"
           id="path7969" />
        <path
           d="m 4603.02,1175.82 c -50,0 -90.53,40.53 -90.53,90.52 v 172.93 h 181.05 v -172.93 c 0,-49.99 -40.53,-90.52 -90.52,-90.52"
           style="fill:#f1b69a;fill-opacity:1;fill-rule:nonzero;stroke:none"
           id="path7971" />
        <path
           d="M 4693.55,1459.28 V 1353.1 c 0,0 -30.4,-52.85 -90.53,-52.85 -48.32,0 -90.51,45.82 -90.51,45.82 v 113.21 h 181.04"
           style="fill:#150a08;fill-opacity:1;fill-rule:nonzero;stroke:none"
           id="path7973" />
        <path
           d="m 4349.74,1645.14 c -48.95,74.37 -105.73,26.59 -105.73,-25.76 0,-75.81 82.23,-141.1 129.22,-86.69 46.99,54.41 -23.49,112.45 -23.49,112.45"
           style="fill:#f1b69a;fill-opacity:1;fill-rule:nonzero;stroke:none"
           id="path7975" />
        <path
           d="m 4343.45,1613.14 c -5.25,9.8 -10.95,16.78 -17.01,21.39 -6.04,4.62 -12.52,6.79 -18.69,6.77 -9.81,-0.02 -18.24,-5.22 -24.13,-12.1 -5.9,-6.93 -9.58,-15.7 -9.62,-24.35 0,-5.05 1.35,-10.16 4.58,-14.38 1.67,-2.2 4.81,-2.62 7,-0.94 2.2,1.67 2.62,4.81 0.95,7 -1.67,2.2 -2.52,4.98 -2.53,8.32 -0.04,5.67 2.71,12.63 7.21,17.84 4.52,5.27 10.46,8.64 16.54,8.61 3.87,-0.01 8.04,-1.26 12.63,-4.73 4.58,-3.47 9.5,-9.26 14.25,-18.14 1.3,-2.44 4.33,-3.36 6.77,-2.05 2.43,1.3 3.35,4.33 2.05,6.76"
           style="fill:#e07e61;fill-opacity:1;fill-rule:nonzero;stroke:none"
           id="path7977" />
        <path
           d="m 4838.75,1645.14 c 48.94,74.37 105.72,26.59 105.72,-25.76 0,-75.81 -82.23,-141.1 -129.22,-86.69 -46.99,54.41 23.5,112.45 23.5,112.45"
           style="fill:#f1b69a;fill-opacity:1;fill-rule:nonzero;stroke:none"
           id="path7979" />
        <path
           d="m 4853.86,1608.43 c 4.75,8.88 9.67,14.67 14.24,18.14 4.6,3.47 8.76,4.72 12.63,4.73 6.08,0.03 12.03,-3.34 16.54,-8.61 4.51,-5.21 7.25,-12.17 7.21,-17.84 -0.01,-3.34 -0.85,-6.13 -2.52,-8.32 -1.68,-2.19 -1.25,-5.33 0.94,-7.01 2.2,-1.67 5.34,-1.25 7.01,0.95 3.22,4.22 4.58,9.33 4.57,14.38 -0.04,8.65 -3.72,17.42 -9.61,24.35 -5.89,6.88 -14.32,12.08 -24.14,12.1 -6.16,0.02 -12.64,-2.15 -18.68,-6.77 -6.06,-4.61 -11.76,-11.59 -17.01,-21.39 -1.3,-2.43 -0.39,-5.46 2.05,-6.76 2.43,-1.31 5.46,-0.39 6.77,2.05"
           style="fill:#e07e61;fill-opacity:1;fill-rule:nonzero;stroke:none"
           id="path7981" />
        <path
           d="m 4594.01,1353.1 c -193.43,0.08 -307.81,211.45 -262.59,428.48 37.25,178.84 488.38,178.77 525.63,0 45.22,-217.03 -69.51,-428.55 -263.04,-428.48"
           style="fill:#f1b69a;fill-opacity:1;fill-rule:nonzero;stroke:none"
           id="path7983" />
        <path
           d="m 4601.16,1548.56 c -9.04,0 -32.84,21.81 -32.84,21.81 3.87,-1.85 8.69,-2.54 13.94,-2.54 7.81,0 16.58,1.53 24.66,3.05 8.07,1.53 15.44,3.06 20.46,3.06 3.94,0 6.42,-0.94 6.63,-3.57 0.93,-11.57 -23.8,-21.81 -32.85,-21.81"
           style="fill:#ea9c7b;fill-opacity:1;fill-rule:nonzero;stroke:none"
           id="path7985" />
        <path
           d="m 4564.42,1630.79 c -7.06,-15.28 -10.01,-27.88 -10.02,-38.4 -0.08,-16.44 7.57,-27.54 16.24,-33.82 8.67,-6.35 18.03,-8.5 22.95,-9.17 2.73,-0.36 5.24,1.57 5.6,4.31 0.36,2.74 -1.57,5.25 -4.31,5.6 -3.64,0.46 -11.7,2.39 -18.3,7.31 -6.61,5 -12.09,12.36 -12.18,25.77 0,8.62 2.46,19.85 9.1,34.2 1.16,2.51 0.06,5.48 -2.44,6.64 -2.51,1.16 -5.48,0.07 -6.64,-2.44"
           style="fill:#e07e61;fill-opacity:1;fill-rule:nonzero;stroke:none"
           id="path7987" />
        <path
           d="m 4517.75,1794.99 c -12.09,26.99 -82.92,14.65 -92.94,-4.57 -10.01,-19.22 23.13,-24.62 47.73,-23.41 24.6,1.21 52.9,10.8 45.21,27.98"
           style="fill:#d76a40;fill-opacity:1;fill-rule:nonzero;stroke:none"
           id="path7989" />
        <path
           d="m 4670.74,1794.99 c 12.09,26.99 82.92,14.65 92.93,-4.57 10.02,-19.22 -23.13,-24.62 -47.73,-23.41 -24.6,1.21 -52.89,10.8 -45.2,27.98"
           style="fill:#d76a40;fill-opacity:1;fill-rule:nonzero;stroke:none"
           id="path7991" />
        <path
           d="m 4466.57,1690.95 c 0,-10.75 8.71,-19.46 19.46,-19.46 10.75,0 19.46,8.71 19.46,19.46 0,10.75 -8.71,19.46 -19.46,19.46 -10.75,0 -19.46,-8.71 -19.46,-19.46"
           style="fill:#150a08;fill-opacity:1;fill-rule:nonzero;stroke:none"
           id="path7993" />
        <path
           d="m 4721.91,1690.95 c 0,-10.75 -8.71,-19.46 -19.45,-19.46 -10.75,0 -19.46,8.71 -19.46,19.46 0,10.75 8.71,19.46 19.46,19.46 10.74,0 19.45,-8.71 19.45,-19.46"
           style="fill:#150a08;fill-opacity:1;fill-rule:nonzero;stroke:none"
           id="path7995" />
        <path
           d="m 4525.4,1511.31 c 23.23,-4.46 45.01,-6.42 64.77,-6.42 44.65,0.08 78.9,9.75 97.09,24.16 2.15,1.72 2.5,4.87 0.78,7.03 -1.73,2.15 -4.87,2.5 -7.03,0.78 -14.95,-12.11 -47.74,-22.05 -90.84,-21.97 -19.1,0 -40.26,1.89 -62.88,6.24 -2.72,0.52 -5.34,-1.26 -5.86,-3.97 -0.52,-2.71 1.26,-5.33 3.97,-5.85"
           style="fill:#150a08;fill-opacity:1;fill-rule:nonzero;stroke:none"
           id="path7997" />
        <path
           d="m 4602.95,1439.27 c -0.73,0 -1.44,0.03 -2.14,0.1 -20.49,2 -55.2,40.04 -24.46,40.04 0.03,0 0.06,0 0.1,0 0.07,0 0.14,0 0.21,0 9.02,0 19.33,1.56 29.29,3.11 9.96,1.55 19.57,3.11 27.18,3.11 7.62,0 13.24,-1.56 15.24,-6.22 5.8,-13.53 -24.84,-40.14 -45.42,-40.14"
           style="fill:#ea9c7b;fill-opacity:1;fill-rule:nonzero;stroke:none"
           id="path7999" />
        <path
           d="m 4634.03,1967.74 c -321.39,-105.81 -270.18,-408.39 -211.05,-587.98 0,0 -206.35,296.55 -113.96,482.17 92.39,185.61 325.01,105.81 325.01,105.81"
           style="fill:#d76a40;fill-opacity:1;fill-rule:nonzero;stroke:none"
           id="path8001" />
      </g>
    </g>
  </g>
</svg>
