<?xml version="1.0" encoding="UTF-8" standalone="no"?>
<!-- Created with Inkscape (http://www.inkscape.org/) -->

<svg
   version="1.1"
   id="svg20976"
   width="667"
   height="666.66669"
   viewBox="0 0 667 666.66669"
   sodipodi:docname="Patricia.svg"
   inkscape:version="1.2.2 (1:1.2.2+202212051552+b0a8486541)"
   xmlns:inkscape="http://www.inkscape.org/namespaces/inkscape"
   xmlns:sodipodi="http://sodipodi.sourceforge.net/DTD/sodipodi-0.dtd"
   xmlns="http://www.w3.org/2000/svg"
   xmlns:svg="http://www.w3.org/2000/svg">
  <defs
     id="defs20980">
    <clipPath
       clipPathUnits="userSpaceOnUse"
       id="clipPath20998">
      <path
         d="m 3661.82,3487.27 c 0,-423.63 -343.42,-767.06 -767.06,-767.06 -423.63,0 -767.06,343.43 -767.06,767.06 0,423.64 343.43,767.07 767.06,767.07 423.64,0 767.06,-343.43 767.06,-767.07"
         id="path20996" />
    </clipPath>
    <clipPath
       clipPathUnits="userSpaceOnUse"
       id="clipPath21050">
      <path
         d="m 7082.78,3487.27 c 0,-423.63 -343.43,-767.06 -767.06,-767.06 -423.64,0 -767.07,343.43 -767.07,767.06 0,423.64 343.43,767.07 767.07,767.07 423.63,0 767.06,-343.43 767.06,-767.07"
         id="path21048" />
    </clipPath>
    <clipPath
       clipPathUnits="userSpaceOnUse"
       id="clipPath21062">
      <path
         d="m 7082.78,3487.27 c 0,-423.63 -343.43,-767.06 -767.06,-767.06 -423.64,0 -767.07,343.43 -767.07,767.06 0,423.64 343.43,767.07 767.07,767.07 423.63,0 767.06,-343.43 767.06,-767.07"
         id="path21060" />
    </clipPath>
    <clipPath
       clipPathUnits="userSpaceOnUse"
       id="clipPath21068">
      <path
         d="M 6983.9,2704.26 H 5647.53 c 0,0 40.53,224.13 132.38,353.15 91.85,129.1 432.73,176.17 432.73,176.17 l 103.08,-15.9 103.07,15.9 c 0,0 340.99,-47.07 432.84,-176.17 91.85,-129.02 132.27,-353.15 132.27,-353.15"
         id="path21066" />
    </clipPath>
    <clipPath
       clipPathUnits="userSpaceOnUse"
       id="clipPath21082">
      <path
         d="m 7082.78,3487.27 c 0,-423.63 -343.43,-767.06 -767.06,-767.06 -423.64,0 -767.07,343.43 -767.07,767.06 0,423.64 343.43,767.07 767.07,767.07 423.63,0 767.06,-343.43 767.06,-767.07"
         id="path21080" />
    </clipPath>
    <clipPath
       clipPathUnits="userSpaceOnUse"
       id="clipPath21130">
      <path
         d="m 5372.3,3487.27 c 0,-423.63 -343.43,-767.06 -767.06,-767.06 -423.64,0 -767.06,343.43 -767.06,767.06 0,423.64 343.42,767.07 767.06,767.07 423.63,0 767.06,-343.43 767.06,-767.07"
         id="path21128" />
    </clipPath>
    <clipPath
       clipPathUnits="userSpaceOnUse"
       id="clipPath21180">
      <path
         d="m 1951.35,3487.27 c 0,-423.63 -343.43,-767.06 -767.06,-767.06 -423.642,0 -767.063,343.43 -767.063,767.06 0,423.64 343.421,767.07 767.063,767.07 423.63,0 767.06,-343.43 767.06,-767.07"
         id="path21178" />
    </clipPath>
    <clipPath
       clipPathUnits="userSpaceOnUse"
       id="clipPath21230">
      <path
         d="m 3661.82,1512.73 c 0,-423.64 -343.42,-767.058 -767.06,-767.058 -423.63,0 -767.06,343.418 -767.06,767.058 0,423.63 343.43,767.06 767.06,767.06 423.64,0 767.06,-343.43 767.06,-767.06"
         id="path21228" />
    </clipPath>
    <clipPath
       clipPathUnits="userSpaceOnUse"
       id="clipPath21280">
      <path
         d="m 1951.35,1512.73 c 0,-423.64 -343.43,-767.058 -767.06,-767.058 -423.642,0 -767.063,343.418 -767.063,767.058 0,423.63 343.421,767.06 767.063,767.06 423.63,0 767.06,-343.43 767.06,-767.06"
         id="path21278" />
    </clipPath>
    <clipPath
       clipPathUnits="userSpaceOnUse"
       id="clipPath21330">
      <path
         d="m 7082.78,1512.73 c 0,-423.64 -343.43,-767.058 -767.06,-767.058 -423.64,0 -767.07,343.418 -767.07,767.058 0,423.63 343.43,767.06 767.07,767.06 423.63,0 767.06,-343.43 767.06,-767.06"
         id="path21328" />
    </clipPath>
    <clipPath
       clipPathUnits="userSpaceOnUse"
       id="clipPath21382">
      <path
         d="m 5372.3,1543.33 c 0,-423.63 -343.43,-767.06 -767.06,-767.06 -423.64,0 -767.06,343.43 -767.06,767.06 0,423.64 343.42,767.06 767.06,767.06 423.63,0 767.06,-343.42 767.06,-767.06"
         id="path21380" />
    </clipPath>
    <clipPath
       clipPathUnits="userSpaceOnUse"
       id="clipPath18822">
      <path
         d="m 4428.69,2436.21 c 0,-312.26 -253.15,-565.41 -565.41,-565.41 -312.26,0 -565.4,253.15 -565.4,565.41 0,312.26 253.14,565.41 565.4,565.41 312.26,0 565.41,-253.15 565.41,-565.41"
         id="path18820" />
    </clipPath>
    <clipPath
       clipPathUnits="userSpaceOnUse"
       id="clipPath18672">
      <path
         d="m 4435.19,4032.09 c 0,-312.27 -253.14,-565.41 -565.41,-565.41 -312.25,0 -565.4,253.14 -565.4,565.41 0,312.26 253.15,565.4 565.4,565.4 312.27,0 565.41,-253.14 565.41,-565.4"
         id="path18670" />
    </clipPath>
  </defs>
  <sodipodi:namedview
     id="namedview20978"
     pagecolor="#ffffff"
     bordercolor="#000000"
     borderopacity="0.25"
     inkscape:showpageshadow="2"
     inkscape:pageopacity="0.0"
     inkscape:pagecheckerboard="0"
     inkscape:deskcolor="#d1d1d1"
     showgrid="false"
     inkscape:zoom="0.50063159"
     inkscape:cx="-244.69091"
     inkscape:cy="284.64045"
     inkscape:window-width="1366"
     inkscape:window-height="836"
     inkscape:window-x="0"
     inkscape:window-y="0"
     inkscape:window-maximized="1"
     inkscape:current-layer="g20984">
    <inkscape:page
       x="0"
       y="0"
       id="page20982"
       width="667"
       height="666.66669" />
  </sodipodi:namedview>
  <g
     id="g20984"
     inkscape:groupmode="layer"
     inkscape:label="Page 1"
     transform="matrix(1.3333333,0,0,-1.3333333,0,666.66667)">
    <path
       d="M 500.00649,250.04314 C 500.00649,112.04037 388.13252,0.1703113 250.13302,0.1703113 112.12961,0.1703113 0.25857101,112.04037 0.25857101,250.04314 c 0,137.9995 111.87103899,249.87347 249.87444899,249.87347 137.9995,0 249.87347,-111.87397 249.87347,-249.87347"
       style="fill:#0e7496;fill-opacity:1;fill-rule:nonzero;stroke:none;stroke-width:0.325755"
       id="path21272" />
    <g
       id="g21274"
       transform="matrix(0.32575479,0,0,0.32575479,-135.65512,-242.73591)">
      <g
         id="g21276"
         clip-path="url(#clipPath21280)">
        <path
           d="m 926.426,1949.26 c 4.84,11.42 -62.442,-9.77 -68.164,-12.49 -33.313,-15.81 -58.965,-39.2 -73.309,-73.76 -13.89,-33.45 -16.328,-70.52 -15.5,-106.73 2.551,-111.41 86.68,-251.86 6.934,-351.19 C 735.199,1353.79 663.02,1341.11 608.543,1304.22 504.793,1233.97 483.82,1077.69 543.945,967.77 604.07,857.84 726.84,792.93 850.773,774.539 c 123.934,-18.391 250.147,3.633 372.347,31.293 84.9,19.207 171.74,42.379 240.87,95.27 162.97,124.648 87,280.788 12.22,426.778 -47.93,93.57 38.05,137.62 75.58,253.76 67.52,208.97 -29.2,411.77 -213.93,491.86 -302.66,131.23 -410.829,-122.8 -411.434,-124.24"
           style="fill:#d76a40;fill-opacity:1;fill-rule:nonzero;stroke:none"
           id="path21282" />
        <path
           d="M 1781.71,745.66 H 586.855 c 0,0 55.735,215.09 135.004,342.51 79.274,127.5 370.261,170.86 370.261,170.86 l 92.17,-15.42 92.16,15.42 c 0,0 291.09,-43.36 370.36,-170.86 79.27,-127.42 134.9,-342.51 134.9,-342.51"
           style="fill:#5b4850;fill-opacity:1;fill-rule:nonzero;stroke:none"
           id="path21284" />
        <path
           d="m 918.086,1216.5 c 139.944,-200.01 404.594,-174.5 532.464,0 0,0 -256.52,119.45 -532.464,0"
           style="fill:#f1b69a;fill-opacity:1;fill-rule:nonzero;stroke:none"
           id="path21286" />
        <path
           d="m 1182.06,1145.21 c -49.99,0 -90.52,40.53 -90.52,90.52 v 172.93 h 181.05 v -172.93 c 0,-49.99 -40.53,-90.52 -90.53,-90.52"
           style="fill:#f1b69a;fill-opacity:1;fill-rule:nonzero;stroke:none"
           id="path21288" />
        <path
           d="M 1272.59,1428.67 V 1322.5 c 0,0 -30.39,-52.86 -90.53,-52.86 -48.31,0 -90.51,45.83 -90.51,45.83 v 113.2 h 181.04"
           style="fill:#150a08;fill-opacity:1;fill-rule:nonzero;stroke:none"
           id="path21290" />
        <path
           d="m 928.785,1614.54 c -48.945,74.36 -105.722,26.58 -105.722,-25.77 0,-75.8 82.23,-141.1 129.218,-86.69 46.989,54.42 -23.496,112.46 -23.496,112.46"
           style="fill:#f1b69a;fill-opacity:1;fill-rule:nonzero;stroke:none"
           id="path21292" />
        <path
           d="m 922.492,1582.54 c -5.246,9.8 -10.949,16.77 -17.008,21.38 -6.039,4.62 -12.519,6.79 -18.683,6.78 -9.817,-0.03 -18.246,-5.23 -24.133,-12.11 -5.895,-6.93 -9.574,-15.69 -9.613,-24.35 -0.008,-5.04 1.343,-10.15 4.566,-14.38 1.676,-2.19 4.813,-2.62 7.008,-0.94 2.195,1.67 2.621,4.81 0.945,7.01 -1.668,2.19 -2.515,4.98 -2.519,8.31 -0.043,5.67 2.703,12.63 7.207,17.85 4.515,5.27 10.457,8.63 16.539,8.61 3.871,-0.02 8.035,-1.26 12.629,-4.74 4.578,-3.47 9.496,-9.25 14.246,-18.14 1.304,-2.44 4.332,-3.35 6.769,-2.05 2.434,1.3 3.352,4.33 2.047,6.77"
           style="fill:#e07e61;fill-opacity:1;fill-rule:nonzero;stroke:none"
           id="path21294" />
        <path
           d="m 1417.79,1614.54 c 48.95,74.36 105.73,26.58 105.73,-25.77 0,-75.8 -82.23,-141.1 -129.22,-86.69 -46.99,54.42 23.49,112.46 23.49,112.46"
           style="fill:#f1b69a;fill-opacity:1;fill-rule:nonzero;stroke:none"
           id="path21296" />
        <path
           d="m 1432.9,1577.82 c 4.75,8.89 9.67,14.67 14.25,18.14 4.6,3.48 8.76,4.72 12.63,4.74 6.08,0.02 12.02,-3.34 16.54,-8.61 4.5,-5.22 7.25,-12.18 7.21,-17.85 -0.01,-3.33 -0.86,-6.12 -2.53,-8.31 -1.67,-2.2 -1.25,-5.34 0.95,-7.01 2.2,-1.68 5.33,-1.25 7.01,0.94 3.22,4.23 4.58,9.34 4.57,14.38 -0.04,8.66 -3.72,17.42 -9.62,24.35 -5.88,6.88 -14.31,12.08 -24.13,12.11 -6.17,0.01 -12.64,-2.16 -18.68,-6.78 -6.06,-4.61 -11.77,-11.58 -17.01,-21.38 -1.31,-2.44 -0.39,-5.47 2.05,-6.77 2.43,-1.3 5.46,-0.39 6.76,2.05"
           style="fill:#e07e61;fill-opacity:1;fill-rule:nonzero;stroke:none"
           id="path21298" />
        <path
           d="m 1173.06,1322.5 c -193.431,0.07 -307.81,211.44 -262.591,428.48 37.25,178.83 488.381,178.76 525.631,0 45.22,-217.04 -69.52,-428.56 -263.04,-428.48"
           style="fill:#f1b69a;fill-opacity:1;fill-rule:nonzero;stroke:none"
           id="path21300" />
        <path
           d="m 1180.21,1517.95 c -9.04,0 -32.84,21.81 -32.84,21.81 3.87,-1.85 8.69,-2.54 13.94,-2.54 7.81,0 16.58,1.53 24.65,3.06 8.08,1.52 15.45,3.05 20.47,3.05 3.94,0 6.41,-0.94 6.62,-3.57 0.93,-11.57 -23.79,-21.81 -32.84,-21.81"
           style="fill:#ea9c7b;fill-opacity:1;fill-rule:nonzero;stroke:none"
           id="path21302" />
        <path
           d="m 1143.47,1600.18 c -7.07,-15.28 -10.01,-27.88 -10.02,-38.4 -0.09,-16.44 7.57,-27.53 16.24,-33.81 8.67,-6.36 18.03,-8.51 22.94,-9.18 2.74,-0.36 5.25,1.57 5.61,4.31 0.36,2.74 -1.57,5.25 -4.31,5.61 -3.64,0.45 -11.7,2.39 -18.3,7.31 -6.61,4.99 -12.09,12.35 -12.18,25.76 0,8.62 2.45,19.86 9.09,34.21 1.16,2.5 0.07,5.47 -2.44,6.63 -2.5,1.16 -5.47,0.07 -6.63,-2.44"
           style="fill:#e07e61;fill-opacity:1;fill-rule:nonzero;stroke:none"
           id="path21304" />
        <path
           d="m 1096.79,1764.38 c -12.08,26.99 -82.91,14.65 -92.93,-4.57 -10.016,-19.22 23.13,-24.61 47.73,-23.4 24.6,1.21 52.9,10.79 45.2,27.97"
           style="fill:#d76a40;fill-opacity:1;fill-rule:nonzero;stroke:none"
           id="path21306" />
        <path
           d="m 1249.79,1764.38 c 12.08,26.99 82.91,14.65 92.93,-4.57 10.01,-19.22 -23.13,-24.61 -47.73,-23.4 -24.6,1.21 -52.9,10.79 -45.2,27.97"
           style="fill:#150a08;fill-opacity:1;fill-rule:nonzero;stroke:none"
           id="path21308" />
        <path
           d="m 1045.62,1660.34 c 0,-10.74 8.71,-19.45 19.46,-19.45 10.75,0 19.46,8.71 19.46,19.45 0,10.75 -8.71,19.46 -19.46,19.46 -10.75,0 -19.46,-8.71 -19.46,-19.46"
           style="fill:#150a08;fill-opacity:1;fill-rule:nonzero;stroke:none"
           id="path21310" />
        <path
           d="m 1300.96,1660.34 c 0,-10.74 -8.71,-19.45 -19.46,-19.45 -10.74,0 -19.46,8.71 -19.46,19.45 0,10.75 8.72,19.46 19.46,19.46 10.75,0 19.46,-8.71 19.46,-19.46"
           style="fill:#150a08;fill-opacity:1;fill-rule:nonzero;stroke:none"
           id="path21312" />
        <path
           d="m 1100.89,1491.59 c 74.04,-7.96 123.54,0.18 158.67,-1.02 0,0 -44.35,-62.64 -96.49,-50.18 -52.13,12.46 -62.18,51.2 -62.18,51.2"
           style="fill:#ffffff;fill-opacity:1;fill-rule:nonzero;stroke:none"
           id="path21314" />
        <path
           d="m 1178.57,1382.03 c -0.72,0 -1.44,0.03 -2.14,0.1 -20.49,2 -55.2,40.05 -24.46,40.05 0.03,0 0.06,0 0.1,0 0.07,0 0.14,0 0.21,0 9.02,0 19.34,1.55 29.3,3.1 9.95,1.56 19.56,3.11 27.17,3.11 7.62,0 13.24,-1.55 15.24,-6.21 5.8,-13.54 -24.83,-40.15 -45.42,-40.15"
           style="fill:#ea9c7b;fill-opacity:1;fill-rule:nonzero;stroke:none"
           id="path21316" />
        <path
           d="m 1045.62,1941.7 c -0.36,-182.22 345.78,-269.77 412.89,-226.69 67.11,43.08 14.79,197.7 -161.98,239.58 -176.78,41.87 -250.81,41.37 -250.91,-12.89"
           style="fill:#d76a40;fill-opacity:1;fill-rule:nonzero;stroke:none"
           id="path21318" />
        <path
           d="m 1046.37,1942.99 c 44.11,-88.04 -77.097,-282.38 -145.964,-269.51 -68.863,12.87 -68.863,89 -15.144,179.26 53.715,90.25 140.178,132.03 161.108,90.25"
           style="fill:#d76a40;fill-opacity:1;fill-rule:nonzero;stroke:none"
           id="path21320" />
      </g>
    </g>
  </g>
</svg>
