<?xml version="1.0" encoding="UTF-8" standalone="no"?>
<!-- Created with Inkscape (http://www.inkscape.org/) -->

<svg
   version="1.1"
   id="svg20976"
   width="667"
   height="666.66669"
   viewBox="0 0 667 666.66669"
   sodipodi:docname="Roger.svg"
   inkscape:version="1.2.2 (1:1.2.2+202212051552+b0a8486541)"
   xmlns:inkscape="http://www.inkscape.org/namespaces/inkscape"
   xmlns:sodipodi="http://sodipodi.sourceforge.net/DTD/sodipodi-0.dtd"
   xmlns="http://www.w3.org/2000/svg"
   xmlns:svg="http://www.w3.org/2000/svg">
  <defs
     id="defs20980">
    <clipPath
       clipPathUnits="userSpaceOnUse"
       id="clipPath20998">
      <path
         d="m 3661.82,3487.27 c 0,-423.63 -343.42,-767.06 -767.06,-767.06 -423.63,0 -767.06,343.43 -767.06,767.06 0,423.64 343.43,767.07 767.06,767.07 423.64,0 767.06,-343.43 767.06,-767.07"
         id="path20996" />
    </clipPath>
    <clipPath
       clipPathUnits="userSpaceOnUse"
       id="clipPath21050">
      <path
         d="m 7082.78,3487.27 c 0,-423.63 -343.43,-767.06 -767.06,-767.06 -423.64,0 -767.07,343.43 -767.07,767.06 0,423.64 343.43,767.07 767.07,767.07 423.63,0 767.06,-343.43 767.06,-767.07"
         id="path21048" />
    </clipPath>
    <clipPath
       clipPathUnits="userSpaceOnUse"
       id="clipPath21062">
      <path
         d="m 7082.78,3487.27 c 0,-423.63 -343.43,-767.06 -767.06,-767.06 -423.64,0 -767.07,343.43 -767.07,767.06 0,423.64 343.43,767.07 767.07,767.07 423.63,0 767.06,-343.43 767.06,-767.07"
         id="path21060" />
    </clipPath>
    <clipPath
       clipPathUnits="userSpaceOnUse"
       id="clipPath21068">
      <path
         d="M 6983.9,2704.26 H 5647.53 c 0,0 40.53,224.13 132.38,353.15 91.85,129.1 432.73,176.17 432.73,176.17 l 103.08,-15.9 103.07,15.9 c 0,0 340.99,-47.07 432.84,-176.17 91.85,-129.02 132.27,-353.15 132.27,-353.15"
         id="path21066" />
    </clipPath>
    <clipPath
       clipPathUnits="userSpaceOnUse"
       id="clipPath21082">
      <path
         d="m 7082.78,3487.27 c 0,-423.63 -343.43,-767.06 -767.06,-767.06 -423.64,0 -767.07,343.43 -767.07,767.06 0,423.64 343.43,767.07 767.07,767.07 423.63,0 767.06,-343.43 767.06,-767.07"
         id="path21080" />
    </clipPath>
    <clipPath
       clipPathUnits="userSpaceOnUse"
       id="clipPath21130">
      <path
         d="m 5372.3,3487.27 c 0,-423.63 -343.43,-767.06 -767.06,-767.06 -423.64,0 -767.06,343.43 -767.06,767.06 0,423.64 343.42,767.07 767.06,767.07 423.63,0 767.06,-343.43 767.06,-767.07"
         id="path21128" />
    </clipPath>
    <clipPath
       clipPathUnits="userSpaceOnUse"
       id="clipPath21180">
      <path
         d="m 1951.35,3487.27 c 0,-423.63 -343.43,-767.06 -767.06,-767.06 -423.642,0 -767.063,343.43 -767.063,767.06 0,423.64 343.421,767.07 767.063,767.07 423.63,0 767.06,-343.43 767.06,-767.07"
         id="path21178" />
    </clipPath>
    <clipPath
       clipPathUnits="userSpaceOnUse"
       id="clipPath21230">
      <path
         d="m 3661.82,1512.73 c 0,-423.64 -343.42,-767.058 -767.06,-767.058 -423.63,0 -767.06,343.418 -767.06,767.058 0,423.63 343.43,767.06 767.06,767.06 423.64,0 767.06,-343.43 767.06,-767.06"
         id="path21228" />
    </clipPath>
    <clipPath
       clipPathUnits="userSpaceOnUse"
       id="clipPath21280">
      <path
         d="m 1951.35,1512.73 c 0,-423.64 -343.43,-767.058 -767.06,-767.058 -423.642,0 -767.063,343.418 -767.063,767.058 0,423.63 343.421,767.06 767.063,767.06 423.63,0 767.06,-343.43 767.06,-767.06"
         id="path21278" />
    </clipPath>
    <clipPath
       clipPathUnits="userSpaceOnUse"
       id="clipPath21330">
      <path
         d="m 7082.78,1512.73 c 0,-423.64 -343.43,-767.058 -767.06,-767.058 -423.64,0 -767.07,343.418 -767.07,767.058 0,423.63 343.43,767.06 767.07,767.06 423.63,0 767.06,-343.43 767.06,-767.06"
         id="path21328" />
    </clipPath>
    <clipPath
       clipPathUnits="userSpaceOnUse"
       id="clipPath21382">
      <path
         d="m 5372.3,1543.33 c 0,-423.63 -343.43,-767.06 -767.06,-767.06 -423.64,0 -767.06,343.43 -767.06,767.06 0,423.64 343.42,767.06 767.06,767.06 423.63,0 767.06,-343.42 767.06,-767.06"
         id="path21380" />
    </clipPath>
    <clipPath
       clipPathUnits="userSpaceOnUse"
       id="clipPath18822">
      <path
         d="m 4428.69,2436.21 c 0,-312.26 -253.15,-565.41 -565.41,-565.41 -312.26,0 -565.4,253.15 -565.4,565.41 0,312.26 253.14,565.41 565.4,565.41 312.26,0 565.41,-253.15 565.41,-565.41"
         id="path18820" />
    </clipPath>
    <clipPath
       clipPathUnits="userSpaceOnUse"
       id="clipPath18672">
      <path
         d="m 4435.19,4032.09 c 0,-312.27 -253.14,-565.41 -565.41,-565.41 -312.25,0 -565.4,253.14 -565.4,565.41 0,312.26 253.15,565.4 565.4,565.4 312.27,0 565.41,-253.14 565.41,-565.4"
         id="path18670" />
    </clipPath>
  </defs>
  <sodipodi:namedview
     id="namedview20978"
     pagecolor="#ffffff"
     bordercolor="#000000"
     borderopacity="0.25"
     inkscape:showpageshadow="2"
     inkscape:pageopacity="0.0"
     inkscape:pagecheckerboard="0"
     inkscape:deskcolor="#d1d1d1"
     showgrid="false"
     inkscape:zoom="0.50063158"
     inkscape:cx="773.02355"
     inkscape:cy="440.44365"
     inkscape:window-width="1366"
     inkscape:window-height="836"
     inkscape:window-x="0"
     inkscape:window-y="0"
     inkscape:window-maximized="1"
     inkscape:current-layer="g20984">
    <inkscape:page
       x="0"
       y="0"
       id="page20982"
       width="667"
       height="666.66669" />
  </sodipodi:namedview>
  <g
     id="g20984"
     inkscape:groupmode="layer"
     inkscape:label="Page 1"
     transform="matrix(1.3333333,0,0,-1.3333333,0,666.66667)">
    <path
       d="m 499.79367,249.81067 c 0,-138.00195 -111.87054,-249.87248172 -249.87248,-249.87248172 -137.99311,0 -249.86806046,111.87053172 -249.86806046,249.87248172 0,137.99752 111.87495046,249.86806 249.86806046,249.86806 138.00194,0 249.87248,-111.87054 249.87248,-249.86806"
       style="fill:#0e4696;fill-opacity:1;fill-rule:nonzero;stroke:none;stroke-width:0.441931"
       id="path18664" />
    <g
       id="g18666"
       transform="matrix(0.44193148,0,0,0.44193148,-1460.2564,-1532.0968)">
      <g
         id="g18668"
         clip-path="url(#clipPath18672)">
        <path
           d="m 4424.19,3436.65 h -1090.9 c 50.29,225.8 185.29,270.9 185.29,270.9 l 260.21,121.7 98.59,0.9 h 2.71 l 98.7,-0.9 260.19,-121.7 c 0,0 134.9,-45.1 185.21,-270.9"
           style="fill:#ffffff;fill-opacity:1;fill-rule:nonzero;stroke:none"
           id="path18674" />
        <path
           d="m 3938.35,4477.89 c 0,0 90.79,40.45 122.98,-36.05 30.98,-73.64 -92.07,-143.83 -92.07,-143.83 l -30.91,179.88"
           style="fill:#140a0a;fill-opacity:1;fill-rule:nonzero;stroke:none"
           id="path18676" />
        <path
           d="m 3768.53,4172.55 c 0.97,-34.01 -25.83,-62.37 -59.84,-63.33 -34.01,-0.96 -62.36,25.83 -63.33,59.85 -0.96,34.01 25.84,62.36 59.84,63.32 34.02,0.97 62.38,-25.83 63.33,-59.84"
           style="fill:#db6a5f;fill-opacity:1;fill-rule:nonzero;stroke:none"
           id="path18678" />
        <path
           d="m 3673.61,4176.11 v 0 c 0.33,0.14 2.83,1.16 6.66,1.16 3.91,-0.02 9.24,-1.01 15.51,-5.22 6.26,-4.22 13.49,-11.76 20.76,-25.01 1,-1.81 3.27,-2.48 5.08,-1.48 1.81,0.99 2.48,3.26 1.48,5.08 -7.69,14.02 -15.65,22.56 -23.14,27.61 -7.47,5.05 -14.45,6.51 -19.69,6.5 -5.89,-0.01 -9.58,-1.75 -9.94,-1.92 -1.85,-0.9 -2.63,-3.14 -1.72,-5 0.9,-1.86 3.14,-2.63 5,-1.72"
           style="fill:#bc453c;fill-opacity:1;fill-rule:nonzero;stroke:none"
           id="path18680" />
        <path
           d="m 3993.47,4170.8 c 0,-34.02 27.59,-61.6 61.62,-61.6 34.03,0 61.61,27.58 61.61,61.6 0,34.03 -27.58,61.62 -61.61,61.62 -34.03,0 -61.62,-27.59 -61.62,-61.62"
           style="fill:#db6a5f;fill-opacity:1;fill-rule:nonzero;stroke:none"
           id="path18682" />
        <path
           d="m 4091.35,4183.86 c -0.34,0.15 -3.74,1.64 -9.16,1.65 -5.19,0.01 -12.24,-1.44 -19.74,-6.65 -7.51,-5.2 -15.45,-14.06 -22.93,-28.67 -0.94,-1.84 -0.21,-4.1 1.62,-5.04 1.84,-0.94 4.1,-0.21 5.04,1.63 7.07,13.81 14.28,21.6 20.53,25.93 6.27,4.33 11.62,5.31 15.48,5.32 2.01,0 3.61,-0.28 4.67,-0.55 l 1.17,-0.34 0.24,-0.1 0.03,0.07 -0.03,-0.06 v -0.01 l 0.03,0.07 -0.03,-0.06 c 1.88,-0.86 4.1,-0.02 4.95,1.86 0.85,1.88 0.02,4.1 -1.87,4.95"
           style="fill:#bc453c;fill-opacity:1;fill-rule:nonzero;stroke:none"
           id="path18684" />
        <path
           d="m 3960.06,4028.84 c 0,0 -34.74,-24.51 -66.39,-30.56 -31.65,-6.05 -62.43,12.32 -62.82,12.54 l -36.97,21.27 -15.13,-202.79 4.09,-3.38 c 53.67,-44.28 131.04,-44.8 185.31,-1.26 l 7.94,6.37 -16.03,197.81"
           style="fill:#db6a5f;fill-opacity:1;fill-rule:nonzero;stroke:none"
           id="path18686" />
        <path
           d="m 3778.75,4053.41 c 0,0 34.52,-113 113.96,-111.75 65.3,1.04 75.83,111.75 75.83,111.75 h -189.79"
           style="fill:#140a0a;fill-opacity:1;fill-rule:nonzero;stroke:none"
           id="path18688" />
        <path
           d="m 4047.38,4278.06 c 0.35,-69.64 -9.3,-129.79 -19,-172.49 -9.51,-41.81 -36.73,-71.13 -75.28,-94.82 l -7.02,-4.31 c -40.78,-25.06 -93.62,-25.91 -135.28,-2.17 -42.01,23.95 -71.5,55.65 -80.75,100.41 -16.84,81.42 -19.09,171.68 -19.09,171.68 0,0 -23.65,188.37 157.8,185.88 181.44,-2.5 178.62,-184.18 178.62,-184.18"
           style="fill:#db6a5f;fill-opacity:1;fill-rule:nonzero;stroke:none"
           id="path18690" />
        <path
           d="m 3815.58,4222.81 c 0,-8.11 -6.57,-14.68 -14.68,-14.68 -8.11,0 -14.68,6.57 -14.68,14.68 0,8.11 6.57,14.69 14.68,14.69 8.11,0 14.68,-6.58 14.68,-14.69"
           style="fill:#140a0a;fill-opacity:1;fill-rule:nonzero;stroke:none"
           id="path18692" />
        <path
           d="m 3959.65,4222.81 c 0,-8.11 -6.58,-14.68 -14.68,-14.68 -8.12,0 -14.69,6.57 -14.69,14.68 0,8.11 6.57,14.69 14.69,14.69 8.1,0 14.68,-6.58 14.68,-14.69"
           style="fill:#140a0a;fill-opacity:1;fill-rule:nonzero;stroke:none"
           id="path18694" />
        <path
           d="m 3855.88,4201.37 v -40.5 c 0,-0.99 0.4,-1.95 1.09,-2.65 0.7,-0.69 1.66,-1.09 2.65,-1.09 h 26.16 c 2.07,0 3.74,1.67 3.74,3.74 0,2.06 -1.67,3.74 -3.74,3.74 h -22.42 v 36.76 c 0,2.06 -1.68,3.74 -3.74,3.74 -2.07,0 -3.74,-1.68 -3.74,-3.74"
           style="fill:#bc453c;fill-opacity:1;fill-rule:nonzero;stroke:none"
           id="path18696" />
        <path
           d="m 3746.2,4284.87 95.93,8.65 c 0,0 -8.59,24.86 -47.38,20.82 -39.68,-4.13 -48.55,-29.47 -48.55,-29.47"
           style="fill:#040606;fill-opacity:1;fill-rule:nonzero;stroke:none"
           id="path18698" />
        <path
           d="m 3993.47,4284.87 -95.92,8.65 c 0,0 8.58,24.86 47.37,20.82 39.69,-4.13 48.55,-29.47 48.55,-29.47"
           style="fill:#040606;fill-opacity:1;fill-rule:nonzero;stroke:none"
           id="path18700" />
        <path
           d="m 3826.78,4127.33 h 94.63 c 0,0 -4.44,-28.99 -48.72,-28.99 -44.27,0 -45.91,28.99 -45.91,28.99"
           style="fill:#ffffff;fill-opacity:1;fill-rule:nonzero;stroke:none"
           id="path18702" />
        <path
           d="m 3717.14,4187.21 c 0,0 26.85,203.75 13.72,237.32 0,0 -91.38,-75.6 -13.72,-237.32"
           style="fill:#140a0a;fill-opacity:1;fill-rule:nonzero;stroke:none"
           id="path18704" />
        <path
           d="m 4040.54,4188.85 c 0,0 -30.24,194.56 -21.85,250.54 0,0 88.23,-78.16 21.85,-250.54"
           style="fill:#140a0a;fill-opacity:1;fill-rule:nonzero;stroke:none"
           id="path18706" />
        <path
           d="m 4012.37,4453.27 -83.66,12.65 -7.36,14.47 -44.15,-6.68 -44.16,6.68 -7.37,-14.47 -83.65,-12.65 -11.16,-44.76 2.75,-51.6 c 0,0 13.24,58.52 59.34,46.87 10.87,-2.75 23.88,-7.3 39.1,-10.37 14.21,-3.1 27.75,-4.5 40.53,-4.72 1.51,-0.04 3.07,0 4.62,-0.01 1.53,0.01 3.09,-0.03 4.6,0.01 12.78,0.22 26.32,1.62 40.54,4.72 15.21,3.07 28.51,6.68 39.09,10.37 42.74,14.87 58.48,-44.21 58.48,-44.21 l 3.61,48.94 -11.15,44.76"
           style="fill:#140a0a;fill-opacity:1;fill-rule:nonzero;stroke:none"
           id="path18708" />
        <path
           d="m 4010.7,4402.34 c 0,0 -54.41,-48.55 -124.12,-11.24 0,0 -177.34,-109.26 -227.4,9.68 -41.73,99.15 131.5,233.7 310.23,82.08 l 41.29,-80.52"
           style="fill:#140a0a;fill-opacity:1;fill-rule:nonzero;stroke:none"
           id="path18710" />
        <path
           d="m 3778.75,3829.3 -58.14,-26.72 c 0,0 -0.63,-97.45 157.34,-92.4 161.97,5.18 161.01,90.93 161.01,90.93 l -62.87,29.92 -197.34,-1.73"
           style="fill:#db6a5f;fill-opacity:1;fill-rule:nonzero;stroke:none"
           id="path18712" />
      </g>
    </g>
  </g>
</svg>
