<?xml version="1.0" encoding="UTF-8" standalone="no"?>
<!-- Created with Inkscape (http://www.inkscape.org/) -->

<svg
   width="300mm"
   height="300mm"
   viewBox="0 0 300 300"
   version="1.1"
   id="svg6092"
   inkscape:version="1.2.2 (1:1.2.2+202212051552+b0a8486541)"
   sodipodi:docname="logo whatss.svg"
   xmlns:inkscape="http://www.inkscape.org/namespaces/inkscape"
   xmlns:sodipodi="http://sodipodi.sourceforge.net/DTD/sodipodi-0.dtd"
   xmlns="http://www.w3.org/2000/svg"
   xmlns:svg="http://www.w3.org/2000/svg">
  <sodipodi:namedview
     id="namedview6094"
     pagecolor="#ffffff"
     bordercolor="#000000"
     borderopacity="0.25"
     inkscape:showpageshadow="2"
     inkscape:pageopacity="0.0"
     inkscape:pagecheckerboard="0"
     inkscape:deskcolor="#d1d1d1"
     inkscape:document-units="mm"
     showgrid="false"
     inkscape:zoom="0.4204826"
     inkscape:cx="335.32897"
     inkscape:cy="700.38569"
     inkscape:window-width="1366"
     inkscape:window-height="836"
     inkscape:window-x="0"
     inkscape:window-y="0"
     inkscape:window-maximized="1"
     inkscape:current-layer="layer1" />
  <defs
     id="defs6089" />
  <g
     inkscape:label="Camada 1"
     inkscape:groupmode="layer"
     id="layer1">
    <g
       id="g6127"
       transform="matrix(13.220132,0,0,13.220132,-926.49589,-667.45202)">
      <path
         d="m 92.720443,61.853075 c 0,6.234642 -5.054247,11.288889 -11.288888,11.288889 -6.234748,0 -11.288818,-5.054247 -11.288818,-11.288889 0,-6.234641 5.05407,-11.288888 11.288818,-11.288888 6.234641,0 11.288888,5.054247 11.288888,11.288888"
         style="fill:#5a0160;fill-opacity:1;fill-rule:nonzero;stroke:none;stroke-width:0.0352778"
         id="path4257" />
      <path
         d="m 81.736355,54.253889 c -4.176325,0 -7.562744,3.386314 -7.562744,7.563556 0,1.42875 0.396875,2.765072 1.085638,3.90525 l -1.365497,4.057297 4.187155,-1.340203 c 1.083698,0.599017 2.329709,0.940858 3.655448,0.940858 4.177947,0 7.563908,-3.386313 7.563908,-7.563202 0,-4.177242 -3.385961,-7.563556 -7.563908,-7.563556 z m 0,13.859581 c -1.278114,0 -2.469445,-0.383823 -3.463325,-1.0414 l -2.419703,0.7747 0.786588,-2.338211 c -0.753815,-1.037873 -1.198774,-2.313164 -1.198774,-3.691114 0,-3.472392 2.824304,-6.296731 6.295214,-6.296731 3.472391,0 6.29673,2.824339 6.29673,6.296731 0,3.471333 -2.824339,6.296025 -6.29673,6.296025 z m 3.546475,-4.577645 c -0.189442,-0.104069 -1.120775,-0.606425 -1.2954,-0.677333 -0.174273,-0.07126 -0.301978,-0.10795 -0.438503,0.08043 -0.135467,0.188031 -0.522111,0.608895 -0.638881,0.733425 -0.117827,0.124884 -0.230716,0.136525 -0.420864,0.03246 -0.188736,-0.103717 -0.803627,-0.330906 -1.516238,-1.016353 -0.55492,-0.533047 -0.918634,-1.179336 -1.023761,-1.376892 -0.106187,-0.197555 -7.06e-4,-0.298097 0.09948,-0.390525 0.09031,-0.08396 0.201789,-0.218722 0.30233,-0.32773 0.100189,-0.108656 0.13582,-0.188383 0.204964,-0.314678 0.06915,-0.126294 0.04092,-0.239889 -0.0035,-0.338667 -0.0448,-0.09807 -0.395112,-1.062566 -0.541514,-1.455208 -0.146403,-0.392289 -0.309386,-0.33408 -0.421923,-0.338667 -0.112888,-0.0035 -0.240947,-0.02469 -0.369358,-0.02963 -0.129469,-0.0049 -0.340078,0.03598 -0.523981,0.22225 -0.184256,0.186267 -0.700863,0.634647 -0.736141,1.585031 -0.03584,0.949677 0.62163,1.893711 0.713422,2.02565 0.09148,0.132644 1.255078,2.191808 3.187947,3.038122 1.933928,0.846666 1.944511,0.588786 2.299053,0.569736 0.354894,-0.0187 1.159581,-0.424745 1.337733,-0.869245 0.1778,-0.4445 0.192264,-0.830791 0.147109,-0.912988 -0.04551,-0.0822 -0.172509,-0.135467 -0.36195,-0.239184 v 0"
         style="fill:#ffffff;fill-opacity:1;fill-rule:evenodd;stroke:none;stroke-width:0.0352778"
         id="path4259" />
    </g>
  </g>
</svg>
