<?xml version="1.0" encoding="UTF-8" standalone="no"?>
<!-- Created with Inkscape (http://www.inkscape.org/) -->

<svg
   version="1.1"
   id="svg2"
   width="231"
   height="213"
   viewBox="0 0 231 213"
   sodipodi:docname="coração.svg"
   inkscape:version="1.2.2 (1:1.2.2+202212051552+b0a8486541)"
   xmlns:inkscape="http://www.inkscape.org/namespaces/inkscape"
   xmlns:sodipodi="http://sodipodi.sourceforge.net/DTD/sodipodi-0.dtd"
   xmlns="http://www.w3.org/2000/svg"
   xmlns:svg="http://www.w3.org/2000/svg">
  <defs
     id="defs6">
    <clipPath
       clipPathUnits="userSpaceOnUse"
       id="clipPath22">
      <path
         d="M 0,0 H 22595 V 10799 H 0 Z"
         id="path20" />
    </clipPath>
    <clipPath
       clipPathUnits="userSpaceOnUse"
       id="clipPath28">
      <path
         d="m 22595.3,0 h -5000 v 5000.01 h 5000 z"
         id="path26" />
    </clipPath>
    <clipPath
       clipPathUnits="userSpaceOnUse"
       id="clipPath184">
      <path
         d="m 16713.4,0 h -5000 v 5000.01 h 5000 z"
         id="path182" />
    </clipPath>
    <clipPath
       clipPathUnits="userSpaceOnUse"
       id="clipPath196">
      <path
         d="M 16713.4,0.902344 H 12409 V 3796.07 h 4304.4 z"
         id="path194" />
    </clipPath>
    <clipPath
       clipPathUnits="userSpaceOnUse"
       id="clipPath236">
      <path
         d="m 13710.9,1100.51 h -1997.5 v 3899.5 h 1997.5 z"
         id="path234" />
    </clipPath>
    <clipPath
       clipPathUnits="userSpaceOnUse"
       id="clipPath262">
      <path
         d="m 13710.9,1100.51 h -1997.5 v 3899.5 h 1997.5 z"
         id="path260" />
    </clipPath>
    <clipPath
       clipPathUnits="userSpaceOnUse"
       id="clipPath268">
      <path
         d="m 13536.7,2629.11 c 0,793.22 -448.8,1553.44 -1234.8,1553.44 -786,0 -1234.7,-760.22 -1234.7,-1553.44 0,-205.79 87.5,-401.48 79.3,-578.44 -23.6,-505.17 2.4,-723.5 170.3,-723.5 194.9,0 200.1,1301.94 200.1,1301.94 0,0 287.7,158.62 785,158.62 497.3,0 773.9,-158.62 773.9,-158.62 0,0 5.1,-1301.94 200.1,-1301.94 167.9,0 205,218.33 181.5,723.5 -8.3,176.96 79.3,372.65 79.3,578.44 z"
         id="path266" />
    </clipPath>
    <clipPath
       clipPathUnits="userSpaceOnUse"
       id="clipPath328">
      <path
         d="M 0,0 H 22595 V 10799 H 0 Z"
         id="path326" />
    </clipPath>
    <clipPath
       clipPathUnits="userSpaceOnUse"
       id="clipPath334">
      <path
         d="m 22595.3,5798.2 h -5000 v 5000 h 5000 z"
         id="path332" />
    </clipPath>
    <clipPath
       clipPathUnits="userSpaceOnUse"
       id="clipPath346">
      <path
         d="m 17595.3,10798.2 h 4349.2 V 7084.17 h -4349.2 z"
         id="path344" />
    </clipPath>
    <clipPath
       clipPathUnits="userSpaceOnUse"
       id="clipPath376">
      <path
         d="M 0,0 H 22595 V 10799 H 0 Z"
         id="path374" />
    </clipPath>
    <clipPath
       clipPathUnits="userSpaceOnUse"
       id="clipPath382">
      <path
         d="m 22595.3,5798.2 h -3477.1 v 4462 h 3477.1 z"
         id="path380" />
    </clipPath>
    <clipPath
       clipPathUnits="userSpaceOnUse"
       id="clipPath406">
      <path
         d="M 0,0 H 22595 V 10799 H 0 Z"
         id="path404" />
    </clipPath>
    <clipPath
       clipPathUnits="userSpaceOnUse"
       id="clipPath412">
      <path
         d="m 22595.3,5798.2 h -3477.1 v 4462 h 3477.1 z"
         id="path410" />
    </clipPath>
    <clipPath
       clipPathUnits="userSpaceOnUse"
       id="clipPath418">
      <path
         d="m 20459.4,6726.43 c 52.3,583.98 3.3,970.42 177.5,1751.92 61.1,273.9 533.9,311.48 1070.9,311.48 537.1,0 1009.8,-37.58 1070.9,-311.48 174.3,-781.5 125.3,-1167.94 177.6,-1751.92 31.9,-356.88 115.5,-628.23 82.6,-931.7 -23,-211.92 -187.7,-297.78 -187.7,-297.78 0,0 -608.7,-85.2 -1143.4,-85.2 -534.7,0 -1143.3,85.2 -1143.3,85.2 0,0 -164.7,85.86 -187.7,297.78 -32.9,303.47 50.7,574.82 82.6,931.7 z"
         id="path416" />
    </clipPath>
    <clipPath
       clipPathUnits="userSpaceOnUse"
       id="clipPath466">
      <path
         d="m 19118,5798 h 3477 v 4463 h -3477 z"
         id="path464" />
    </clipPath>
    <clipPath
       clipPathUnits="userSpaceOnUse"
       id="clipPath478">
      <path
         d="m 22288,8754.04 c 0,-70.06 -259.7,-168.53 -580.2,-168.53 -320.4,0 -580.1,98.47 -580.1,168.53 l 36.6,371.73 c 0,76.5 193.7,93 543.5,93 349.9,0 543.6,-16.5 543.6,-93 z"
         id="path476" />
    </clipPath>
    <clipPath
       clipPathUnits="userSpaceOnUse"
       id="clipPath502">
      <path
         d="m 19118,5798 h 3477 v 4463 h -3477 z"
         id="path500" />
    </clipPath>
    <clipPath
       clipPathUnits="userSpaceOnUse"
       id="clipPath514">
      <path
         d="m 16713.4,5798.2 h -5000 v 5000 h 5000 z"
         id="path512" />
    </clipPath>
    <clipPath
       clipPathUnits="userSpaceOnUse"
       id="clipPath570">
      <path
         d="m 12733,9590.42 c 100.8,50.28 172.2,-20.25 205.3,-88.99 l 171.2,-367.9 c 6,6.83 12.3,12.78 18.3,19.18 l -201.1,605.49 c -25,72.29 -32.6,166.53 74.7,206.96 83.9,31.56 162.4,-43.84 187.4,-116.13 l 178.3,-554.28 c 2.2,0.69 3.9,1.43 6.1,2.13 l 17.3,4.36 -98.7,641.42 c -13.9,75.14 9.6,175.84 105,193.34 99.8,18.4 153.8,-68.1 167.7,-143.18 l 99.2,-639.89 c 8.9,-0.18 17.4,0.1 26.4,-0.08 l -18.1,430.52 c -6.3,76.56 28.9,171.68 120.2,179 95.2,7.64 149.8,-80.3 156.1,-156.45 l 28.5,-558.84 v 0 c 55.7,162.55 137.2,267.21 142,274.97 39.3,65.82 124.6,86.84 190.4,47.51 65.3,-39.73 86.8,-124.56 47.1,-190.35 -43.7,-72.76 -153.2,-257.05 -154.7,-483.73 -2,-308.34 -101.8,-446.08 -101.8,-446.08 l -874,-145.9 c 0,0 -170.8,157.74 -242.9,436.99 -0.2,0.6 -0.3,1.19 -0.5,1.79 -38.6,153.74 -105.1,240.08 -173.9,382.9 l -120,255.63 c -33.4,69.25 -23.8,175.57 44.5,209.61 z"
         id="path568" />
    </clipPath>
    <clipPath
       clipPathUnits="userSpaceOnUse"
       id="clipPath616">
      <path
         d="m 15703.9,9256.54 c -96.1,58.67 -173.2,-5.54 -212.1,-71.21 l -201.8,-352 c -5.4,7.3 -11.2,13.77 -16.6,20.66 l 251.8,586.19 c 31.1,69.9 46.7,163.15 -56.9,212.57 -80.8,38.58 -165.5,-29.86 -196.5,-99.77 L 15047,9015.86 c -2.1,0.89 -3.8,1.77 -5.9,2.66 l -16.9,5.81 153,630.7 c 20.2,73.64 5.3,175.99 -88.2,201.56 -98,26.79 -159.1,-54.74 -179.3,-128.39 l -153.3,-629.13 c -8.9,0.58 -17.3,1.58 -26.2,2.16 l 54.6,427.42 c 12.8,75.75 -14.2,173.52 -104.6,188.59 -94.2,15.7 -156,-67.28 -168.8,-142.62 l -76,-554.38 v 0 c -41.6,166.7 -113.9,277.9 -118,286.04 -33.6,68.93 -116.8,97.13 -185.7,63.53 -68.5,-34.02 -97.1,-116.71 -63.1,-185.65 37.3,-76.21 130.7,-269.15 112.9,-495.13 -24.2,-307.38 63.6,-453.12 63.6,-453.12 l 858.3,-219.71 c 0,0 183.7,142.64 279.3,414.75 0.2,0.57 0.4,1.15 0.6,1.73 51.5,149.91 125.1,230.28 205.8,366.72 l 141.4,244.5 c 39.2,66.15 38.6,172.91 -26.6,212.64 z"
         id="path614" />
    </clipPath>
    <clipPath
       clipPathUnits="userSpaceOnUse"
       id="clipPath812">
      <path
         d="M 0,0 H 22595 V 10799 H 0 Z"
         id="path810" />
    </clipPath>
    <clipPath
       clipPathUnits="userSpaceOnUse"
       id="clipPath818">
      <path
         d="M 10800,4511.32 H 0.90625 V 10799.1 H 10800 Z"
         id="path816" />
    </clipPath>
    <clipPath
       clipPathUnits="userSpaceOnUse"
       id="clipPath832">
      <path
         d="M 10800,395.703 H 6521.49 V 3675.47 H 10800 Z"
         id="path830" />
    </clipPath>
    <clipPath
       clipPathUnits="userSpaceOnUse"
       id="clipPath928">
      <path
         d="M 0,395.703 H 4278.51 V 3675.47 H 0 Z"
         id="path926" />
    </clipPath>
  </defs>
  <sodipodi:namedview
     id="namedview4"
     pagecolor="#ffffff"
     bordercolor="#000000"
     borderopacity="0.25"
     inkscape:showpageshadow="2"
     inkscape:pageopacity="0.0"
     inkscape:pagecheckerboard="0"
     inkscape:deskcolor="#d1d1d1"
     showgrid="false"
     showguides="true"
     inkscape:zoom="0.92717284"
     inkscape:cx="442.2045"
     inkscape:cy="159.08576"
     inkscape:window-width="1846"
     inkscape:window-height="1016"
     inkscape:window-x="0"
     inkscape:window-y="0"
     inkscape:window-maximized="1"
     inkscape:current-layer="g10">
    <inkscape:page
       x="0"
       y="0"
       id="page8"
       width="231"
       height="213" />
  </sodipodi:namedview>
  <g
     id="g10"
     inkscape:groupmode="layer"
     inkscape:label="Page 1"
     transform="matrix(1.3333333,0,0,-1.3333333,0,1439.88)">
    <g
       id="g400"
       transform="translate(-1000.2473,857.02469)">
      <path
         d="m 1128.5881,221.90693 c -19.9605,0 -41.3331,-12.40045 -41.3331,-43.46593 0,31.06548 -21.3727,43.46593 -41.3332,43.46593 -24.781,0 -44.8544,-20.31259 -44.8544,-45.36865 0,-47.32203 86.1876,-113.304143 86.1876,-113.304143 0,0 86.2064,65.982113 86.2064,113.304143 0,25.05606 -20.0923,45.36865 -44.8733,45.36865"
         style="fill:#aa0000;fill-opacity:1;fill-rule:nonzero;stroke:none;stroke-width:0.189362"
         id="path40" />
      <path
         d="m 1056.6553,90.122089 16.4579,-12.073492 8.2102,-5.959718 8.1913,-5.827182 h -4.5194 c 8.9822,7.845301 17.8703,16.071452 26.5323,24.336453 4.3687,4.112594 8.5679,8.397151 12.7859,12.64381 4.2558,4.22723 8.3608,8.5691 12.3341,13.02542 4.0485,4.37977 8.003,8.85474 11.6937,13.52014 3.7662,4.60828 7.4193,9.31157 10.6581,14.26261 3.3519,4.89372 6.3272,10.02547 8.8881,15.37679 2.4856,5.38539 4.5005,11.03871 5.2914,17.11136 v 0.0366 c 0.018,0.15615 0.1695,0.26621 0.3201,0.24393 0.1507,-0.0194 0.2448,-0.1392 0.2448,-0.28049 0,-6.16785 -1.3935,-12.24583 -3.4837,-17.99132 -2.0902,-5.76034 -4.8394,-11.24038 -7.9088,-16.51495 -3.0506,-5.29399 -6.5342,-10.32158 -10.1685,-15.19607 -3.6343,-4.89448 -7.4946,-9.61644 -11.5055,-14.18663 -7.9653,-9.19751 -16.5332,-17.84259 -25.4589,-26.107392 -8.9257,-8.245578 -18.115,-16.166858 -27.7186,-23.631311 -0.1318,-0.114445 -0.339,-0.09597 -0.4896,0 -10.677,8.435237 -20.8831,17.423847 -30.7315,26.811207 -0.113,0.09521 -0.1318,0.285638 -0.019,0.400276 0.094,0.09521 0.2636,0.113676 0.3766,0.03787 l 0.019,-0.03787"
         style="fill:#ffffff;fill-opacity:1;fill-rule:nonzero;stroke:none;stroke-width:0.189362"
         id="path42" />
      <path
         d="m 1086.9725,178.441 -0.5084,3.65387 -0.2636,1.80903 -0.4331,1.77856 c -0.2825,1.18273 -0.5085,2.36908 -0.8098,3.52857 l -1.1298,3.40669 c -1.6759,4.45213 -3.8791,8.61101 -6.8543,12.08054 -2.8999,3.52095 -6.4966,6.33733 -10.4698,8.35773 -3.9545,2.02612 -8.2478,3.40861 -12.6541,4.01796 -8.8505,1.15588 -17.9267,-0.0133 -25.5908,-4.25599 -3.8414,-2.04325 -7.4381,-4.59494 -10.4887,-7.71219 -3.0317,-3.15153 -5.5361,-6.77531 -7.438,-10.68853 -1.9772,-3.87514 -3.333,-8.09666 -3.898,-12.44215 -0.2259,-1.07419 -0.2636,-2.17046 -0.3201,-3.26997 -0.057,-1.09266 -0.1883,-2.19731 -0.075,-3.27283 l 0.1695,-3.25435 c 0.1883,-1.09343 0.3389,-2.19217 0.5084,-3.29226 0.113,-1.10312 0.3954,-2.19959 0.6779,-3.30043 0.2824,-1.09647 0.4896,-2.21083 0.8474,-3.30426 0.7532,-2.17655 1.3934,-4.38871 2.3538,-6.52946 0.4519,-1.07781 0.8662,-2.16684 1.3558,-3.23493 l 1.5252,-3.1919 c 0.9416,-2.17046 2.1844,-4.208 3.2578,-6.34057 9.4152,-16.66214 21.6928,-31.99208 34.121,-47.225289 l 0.019,-0.01925 c 0.094,-0.133302 0.075,-0.305061 -0.038,-0.400277 -0.113,-0.09521 -0.2825,-0.09521 -0.3767,0.01942 -6.9673,6.874516 -13.7086,14.034106 -20.0545,21.517976 -6.3271,7.52177 -12.3341,15.34765 -17.456,23.76498 -2.5044,4.24667 -4.9524,8.53121 -6.8731,13.10064 -1.0734,2.23006 -1.8266,4.59552 -2.6928,6.91641 -0.4331,1.16407 -0.6779,2.38469 -1.0357,3.57256 -0.3389,1.19624 -0.6779,2.38773 -0.8474,3.62416 l -0.6402,3.67672 -0.226,3.73403 c -0.1506,1.24386 -0.019,2.48676 0.038,3.73423 0.038,1.24366 0.094,2.49114 0.3201,3.71918 0.5837,4.94876 2.0713,9.78763 4.2933,14.23976 2.2032,4.45594 5.122,8.54815 8.5868,12.08815 3.5401,3.49429 7.6075,6.39636 12.0139,8.59957 8.8315,4.50355 19.1318,5.65561 28.773,3.8561 9.6225,-1.77476 18.8872,-6.87624 24.7058,-14.99403 2.9376,-4.00844 4.9901,-8.60148 6.3271,-13.3678 1.3934,-4.77738 1.6948,-9.76497 1.8454,-14.7004 0.019,-0.15615 -0.113,-0.28773 -0.2637,-0.29383 -0.1506,-0.004 -0.2636,0.1034 -0.2824,0.24413 l -0.019,0.0497"
         style="fill:#23304e;fill-opacity:1;fill-rule:nonzero;stroke:none;stroke-width:0.189362"
         id="path44" />
      <path
         d="m 1086.9725,178.441 c 0.057,5.81919 0.7721,11.67455 2.6175,17.22161 1.8077,5.53755 4.8394,10.71329 8.9445,14.86645 4.0863,4.1722 9.1705,7.29517 14.6126,9.26987 5.4796,1.98613 11.3171,2.79543 17.1169,2.59548 11.5996,-0.39037 22.9356,-5.59086 30.9199,-14.09332 8.0406,-8.432 12.6352,-20.07475 12.5599,-31.76281 0,-0.15615 -0.1318,-0.28336 -0.2824,-0.28336 -0.1319,0.002 -0.2448,0.10265 -0.2825,0.23423 v 0.0491 c -2.0149,11.52449 -7.4192,21.5275 -15.1963,28.64747 -3.9356,3.48477 -8.2666,6.43255 -13.0684,8.30823 -4.7264,1.96518 -9.7731,3.11343 -14.8573,3.19532 -5.1031,0.27612 -10.3192,-0.37704 -15.1398,-1.97089 -4.8959,-1.47198 -9.34,-4.06557 -13.2379,-7.37514 -3.8227,-3.38957 -7.0238,-7.69125 -9.2647,-12.66515 -2.3538,-4.94722 -3.7284,-10.47677 -4.8771,-16.23711 v -0.0594 c -0.037,-0.15253 -0.1883,-0.25136 -0.3389,-0.22089 -0.1318,0.0267 -0.226,0.14643 -0.226,0.28031"
         style="fill:#23304e;fill-opacity:1;fill-rule:nonzero;stroke:none;stroke-width:0.189362"
         id="path46" />
    </g>
  </g>
</svg>
