<?xml version="1.0" encoding="UTF-8" standalone="no"?>
<!-- Created with Inkscape (http://www.inkscape.org/) -->

<svg
   width="300mm"
   height="300mm"
   viewBox="0 0 300 300"
   version="1.1"
   id="svg6092"
   inkscape:version="1.2.2 (1:1.2.2+202212051552+b0a8486541)"
   sodipodi:docname="logo face.svg"
   xmlns:inkscape="http://www.inkscape.org/namespaces/inkscape"
   xmlns:sodipodi="http://sodipodi.sourceforge.net/DTD/sodipodi-0.dtd"
   xmlns="http://www.w3.org/2000/svg"
   xmlns:svg="http://www.w3.org/2000/svg">
  <sodipodi:namedview
     id="namedview6094"
     pagecolor="#ffffff"
     bordercolor="#000000"
     borderopacity="0.25"
     inkscape:showpageshadow="2"
     inkscape:pageopacity="0.0"
     inkscape:pagecheckerboard="0"
     inkscape:deskcolor="#d1d1d1"
     inkscape:document-units="mm"
     showgrid="false"
     inkscape:zoom="0.4204826"
     inkscape:cx="335.32897"
     inkscape:cy="700.38569"
     inkscape:window-width="1366"
     inkscape:window-height="836"
     inkscape:window-x="0"
     inkscape:window-y="0"
     inkscape:window-maximized="1"
     inkscape:current-layer="layer1" />
  <defs
     id="defs6089" />
  <g
     inkscape:label="Camada 1"
     inkscape:groupmode="layer"
     id="layer1">
    <path
       d="M 150.07803,0.85662294 C 67.608432,0.85662294 0.75264827,67.712314 0.75264827,150.18204 c 0,64.98914 41.53112673,120.25358 99.49275173,140.77653 v -115.06 H 79.1018 V 138.1146 h 21.1436 v -24.4427 c 0,-17.480335 8.30153,-44.862882 44.85361,-44.862882 l 32.93089,0.144181 v 36.668751 h -23.89204 c -3.92451,0 -9.43554,1.95994 -9.43554,10.29878 v 22.23553 h 33.86885 l -3.87782,37.74191 h -29.99103 v 123.47345 c 1.78731,0.0661 3.5745,0.13492 5.37571,0.13492 82.4696,0 149.32543,-66.85569 149.32543,-149.32529 0,-82.46973 -66.85583,-149.32542072 -149.32543,-149.32542072"
       style="fill:#5a0160;fill-opacity:1;fill-rule:nonzero;stroke:none;stroke-width:0.466642"
       id="path4283" />
  </g>
</svg>
