<?xml version="1.0" encoding="UTF-8" standalone="no"?>
<!-- Created with Inkscape (http://www.inkscape.org/) -->

<svg
   version="1.1"
   id="svg20976"
   width="667"
   height="666.66669"
   viewBox="0 0 667 666.66669"
   sodipodi:docname="Josué.svg"
   inkscape:version="1.2.2 (1:1.2.2+202212051552+b0a8486541)"
   xmlns:inkscape="http://www.inkscape.org/namespaces/inkscape"
   xmlns:sodipodi="http://sodipodi.sourceforge.net/DTD/sodipodi-0.dtd"
   xmlns="http://www.w3.org/2000/svg"
   xmlns:svg="http://www.w3.org/2000/svg">
  <defs
     id="defs20980">
    <clipPath
       clipPathUnits="userSpaceOnUse"
       id="clipPath20998">
      <path
         d="m 3661.82,3487.27 c 0,-423.63 -343.42,-767.06 -767.06,-767.06 -423.63,0 -767.06,343.43 -767.06,767.06 0,423.64 343.43,767.07 767.06,767.07 423.64,0 767.06,-343.43 767.06,-767.07"
         id="path20996" />
    </clipPath>
    <clipPath
       clipPathUnits="userSpaceOnUse"
       id="clipPath21050">
      <path
         d="m 7082.78,3487.27 c 0,-423.63 -343.43,-767.06 -767.06,-767.06 -423.64,0 -767.07,343.43 -767.07,767.06 0,423.64 343.43,767.07 767.07,767.07 423.63,0 767.06,-343.43 767.06,-767.07"
         id="path21048" />
    </clipPath>
    <clipPath
       clipPathUnits="userSpaceOnUse"
       id="clipPath21062">
      <path
         d="m 7082.78,3487.27 c 0,-423.63 -343.43,-767.06 -767.06,-767.06 -423.64,0 -767.07,343.43 -767.07,767.06 0,423.64 343.43,767.07 767.07,767.07 423.63,0 767.06,-343.43 767.06,-767.07"
         id="path21060" />
    </clipPath>
    <clipPath
       clipPathUnits="userSpaceOnUse"
       id="clipPath21068">
      <path
         d="M 6983.9,2704.26 H 5647.53 c 0,0 40.53,224.13 132.38,353.15 91.85,129.1 432.73,176.17 432.73,176.17 l 103.08,-15.9 103.07,15.9 c 0,0 340.99,-47.07 432.84,-176.17 91.85,-129.02 132.27,-353.15 132.27,-353.15"
         id="path21066" />
    </clipPath>
    <clipPath
       clipPathUnits="userSpaceOnUse"
       id="clipPath21082">
      <path
         d="m 7082.78,3487.27 c 0,-423.63 -343.43,-767.06 -767.06,-767.06 -423.64,0 -767.07,343.43 -767.07,767.06 0,423.64 343.43,767.07 767.07,767.07 423.63,0 767.06,-343.43 767.06,-767.07"
         id="path21080" />
    </clipPath>
    <clipPath
       clipPathUnits="userSpaceOnUse"
       id="clipPath21130">
      <path
         d="m 5372.3,3487.27 c 0,-423.63 -343.43,-767.06 -767.06,-767.06 -423.64,0 -767.06,343.43 -767.06,767.06 0,423.64 343.42,767.07 767.06,767.07 423.63,0 767.06,-343.43 767.06,-767.07"
         id="path21128" />
    </clipPath>
    <clipPath
       clipPathUnits="userSpaceOnUse"
       id="clipPath21180">
      <path
         d="m 1951.35,3487.27 c 0,-423.63 -343.43,-767.06 -767.06,-767.06 -423.642,0 -767.063,343.43 -767.063,767.06 0,423.64 343.421,767.07 767.063,767.07 423.63,0 767.06,-343.43 767.06,-767.07"
         id="path21178" />
    </clipPath>
    <clipPath
       clipPathUnits="userSpaceOnUse"
       id="clipPath21230">
      <path
         d="m 3661.82,1512.73 c 0,-423.64 -343.42,-767.058 -767.06,-767.058 -423.63,0 -767.06,343.418 -767.06,767.058 0,423.63 343.43,767.06 767.06,767.06 423.64,0 767.06,-343.43 767.06,-767.06"
         id="path21228" />
    </clipPath>
    <clipPath
       clipPathUnits="userSpaceOnUse"
       id="clipPath21280">
      <path
         d="m 1951.35,1512.73 c 0,-423.64 -343.43,-767.058 -767.06,-767.058 -423.642,0 -767.063,343.418 -767.063,767.058 0,423.63 343.421,767.06 767.063,767.06 423.63,0 767.06,-343.43 767.06,-767.06"
         id="path21278" />
    </clipPath>
    <clipPath
       clipPathUnits="userSpaceOnUse"
       id="clipPath21330">
      <path
         d="m 7082.78,1512.73 c 0,-423.64 -343.43,-767.058 -767.06,-767.058 -423.64,0 -767.07,343.418 -767.07,767.058 0,423.63 343.43,767.06 767.07,767.06 423.63,0 767.06,-343.43 767.06,-767.06"
         id="path21328" />
    </clipPath>
    <clipPath
       clipPathUnits="userSpaceOnUse"
       id="clipPath21382">
      <path
         d="m 5372.3,1543.33 c 0,-423.63 -343.43,-767.06 -767.06,-767.06 -423.64,0 -767.06,343.43 -767.06,767.06 0,423.64 343.42,767.06 767.06,767.06 423.63,0 767.06,-343.42 767.06,-767.06"
         id="path21380" />
    </clipPath>
    <clipPath
       clipPathUnits="userSpaceOnUse"
       id="clipPath18822">
      <path
         d="m 4428.69,2436.21 c 0,-312.26 -253.15,-565.41 -565.41,-565.41 -312.26,0 -565.4,253.15 -565.4,565.41 0,312.26 253.14,565.41 565.4,565.41 312.26,0 565.41,-253.15 565.41,-565.41"
         id="path18820" />
    </clipPath>
  </defs>
  <sodipodi:namedview
     id="namedview20978"
     pagecolor="#ffffff"
     bordercolor="#000000"
     borderopacity="0.25"
     inkscape:showpageshadow="2"
     inkscape:pageopacity="0.0"
     inkscape:pagecheckerboard="0"
     inkscape:deskcolor="#d1d1d1"
     showgrid="false"
     inkscape:zoom="0.70799998"
     inkscape:cx="-141.24294"
     inkscape:cy="365.113"
     inkscape:window-width="1366"
     inkscape:window-height="836"
     inkscape:window-x="0"
     inkscape:window-y="0"
     inkscape:window-maximized="1"
     inkscape:current-layer="g20984">
    <inkscape:page
       x="0"
       y="0"
       id="page20982"
       width="667"
       height="666.66669" />
  </sodipodi:namedview>
  <g
     id="g20984"
     inkscape:groupmode="layer"
     inkscape:label="Page 1"
     transform="matrix(1.3333333,0,0,-1.3333333,0,666.66667)">
    <path
       d="M 500.10981,249.9083 C 500.10981,111.85497 388.19404,-0.06522407 250.13628,-0.06522407 112.08295,-0.06522407 0.16717663,111.85497 0.16717663,249.9083 c 0,138.05334 111.91577337,249.97353 249.96910337,249.97353 138.05776,0 249.97353,-111.92019 249.97353,-249.97353"
       style="fill:#0e4696;fill-opacity:1;fill-rule:nonzero;stroke:none;stroke-width:0.44211"
       id="path18814" />
    <g
       id="g18816"
       transform="matrix(0.4421102,0,0,0.4421102,-1457.8592,-827.16496)">
      <g
         id="g18818"
         clip-path="url(#clipPath18822)">
        <path
           d="m 3756.31,2621.72 c 0.95,-34.02 -25.84,-62.37 -59.86,-63.33 -34,-0.96 -62.36,25.83 -63.32,59.85 -0.96,34.01 25.83,62.36 59.85,63.32 34.01,0.97 62.36,-25.83 63.33,-59.84"
           style="fill:#f8a288;fill-opacity:1;fill-rule:nonzero;stroke:none"
           id="path18824" />
        <path
           d="m 3661.24,2625.54 0.02,0.01 c 0.36,0.16 2.89,1.19 6.77,1.18 3.97,-0.01 9.36,-1.02 15.68,-5.27 6.31,-4.25 13.57,-11.83 20.86,-25.11 0.91,-1.67 3,-2.28 4.67,-1.36 1.67,0.91 2.28,3.01 1.37,4.67 -7.68,13.99 -15.62,22.5 -23.05,27.51 -7.43,5.02 -14.34,6.46 -19.53,6.45 -5.83,0 -9.48,-1.73 -9.8,-1.89 -1.71,-0.83 -2.42,-2.89 -1.59,-4.6 0.83,-1.71 2.89,-2.42 4.6,-1.59"
           style="fill:#da5e60;fill-opacity:1;fill-rule:nonzero;stroke:none"
           id="path18826" />
        <path
           d="m 3981.25,2619.98 c 0,-34.03 27.58,-61.61 61.61,-61.61 34.02,0 61.61,27.58 61.61,61.61 0,34.02 -27.59,61.61 -61.61,61.61 -34.03,0 -61.61,-27.59 -61.61,-61.61"
           style="fill:#f8a288;fill-opacity:1;fill-rule:nonzero;stroke:none"
           id="path18828" />
        <path
           d="m 4079,2632.76 c -0.32,0.14 -3.68,1.62 -9.04,1.62 -5.14,0.01 -12.12,-1.42 -19.57,-6.59 -7.46,-5.17 -15.37,-13.98 -22.84,-28.56 -0.87,-1.7 -0.2,-3.77 1.49,-4.64 1.7,-0.87 3.77,-0.2 4.64,1.5 7.09,13.84 14.32,21.67 20.63,26.03 6.32,4.37 11.73,5.36 15.65,5.38 2.03,0 3.66,-0.29 4.74,-0.56 l 1.19,-0.35 0.26,-0.1 h 0.01 c 1.73,-0.79 3.77,-0.02 4.55,1.71 0.79,1.74 0.02,3.78 -1.71,4.56"
           style="fill:#da5e60;fill-opacity:1;fill-rule:nonzero;stroke:none"
           id="path18830" />
        <path
           d="m 3947.83,2478.01 c 0,0 -34.75,-24.51 -66.4,-30.56 -31.65,-6.05 -62.42,12.32 -62.81,12.54 l -36.96,21.26 -15.15,-202.79 4.1,-3.38 c 53.67,-44.27 131.04,-44.79 185.31,-1.25 l 7.94,6.37 -16.03,197.81"
           style="fill:#f8a288;fill-opacity:1;fill-rule:nonzero;stroke:none"
           id="path18832" />
        <path
           d="m 3766.51,2502.58 c 0,0 34.52,-113 113.97,-111.75 65.3,1.04 75.83,111.75 75.83,111.75 h -189.8"
           style="fill:#140a0a;fill-opacity:1;fill-rule:nonzero;stroke:none"
           id="path18834" />
        <path
           d="m 4040.04,2763.95 c 0.35,-69.64 -14.18,-166.5 -23.9,-209.21 -9.51,-41.81 -46.29,-71.13 -84.83,-94.81 l -7.02,-4.32 c -40.79,-25.06 -74.51,-25.91 -116.16,-2.17 -42.01,23.95 -81.07,55.65 -90.32,100.41 -16.83,81.42 -29.63,127.1 -34.15,170.28 -7.45,71.1 -4.53,224.03 177.75,224 181.47,-0.03 178.63,-184.18 178.63,-184.18"
           style="fill:#f8a288;fill-opacity:1;fill-rule:nonzero;stroke:none"
           id="path18836" />
        <path
           d="m 3803.35,2671.98 c 0,-8.11 -6.57,-14.69 -14.68,-14.69 -8.12,0 -14.69,6.58 -14.69,14.69 0,8.11 6.57,14.68 14.69,14.68 8.11,0 14.68,-6.57 14.68,-14.68"
           style="fill:#140a0a;fill-opacity:1;fill-rule:nonzero;stroke:none"
           id="path18838" />
        <path
           d="m 3947.42,2671.98 c 0,-8.11 -6.57,-14.69 -14.69,-14.69 -8.1,0 -14.68,6.58 -14.68,14.69 0,8.11 6.58,14.68 14.68,14.68 8.12,0 14.69,-6.57 14.69,-14.68"
           style="fill:#140a0a;fill-opacity:1;fill-rule:nonzero;stroke:none"
           id="path18840" />
        <path
           d="m 3843.94,2633.57 v -23.53 c 0,-0.91 0.36,-1.8 1.01,-2.44 0.64,-0.64 1.52,-1 2.43,-1 h 19.05 c 1.91,0 3.45,1.54 3.45,3.44 0,1.9 -1.54,3.44 -3.45,3.44 h -15.61 v 20.09 c 0,1.9 -1.54,3.44 -3.44,3.44 -1.9,0 -3.44,-1.54 -3.44,-3.44"
           style="fill:#da5e60;fill-opacity:1;fill-rule:nonzero;stroke:none"
           id="path18842" />
        <path
           d="m 3733.96,2734.04 95.94,8.64 c 0,0 -8.59,24.86 -47.38,20.83 -39.69,-4.12 -48.56,-29.47 -48.56,-29.47"
           style="fill:#040606;fill-opacity:1;fill-rule:nonzero;stroke:none"
           id="path18844" />
        <path
           d="m 3981.25,2734.04 -95.94,8.64 c 0,0 8.59,24.86 47.38,20.83 39.69,-4.12 48.56,-29.47 48.56,-29.47"
           style="fill:#040606;fill-opacity:1;fill-rule:nonzero;stroke:none"
           id="path18846" />
        <path
           d="m 4340.28,1850.93 h -953.99 c 17.39,72.2 35.29,136.4 53,186.4 26.2,73.8 63.89,117 95.09,141.6 31.11,24.7 55.71,30.9 55.71,30.9 l 66.2,27.69 418.8,-0.4 61.39,-27.29 c 0,0 98.4,-24.81 150.8,-172.5 17.71,-50 35.61,-114.2 53,-186.4"
           style="fill:#ffffff;fill-opacity:1;fill-rule:nonzero;stroke:none"
           id="path18848" />
        <path
           d="m 3870.74,2325.75 204.39,-88.61 c 0,0 -210,-189.77 -418.82,0.42 l 214.43,88.19"
           style="fill:#f8a288;fill-opacity:1;fill-rule:nonzero;stroke:none"
           id="path18850" />
        <path
           d="m 3648.9,2231.31 c 0.49,-0.57 19.36,-22.8 55.74,-45.06 36.36,-22.24 90.41,-44.47 160.54,-44.46 70.13,-0.01 124.42,22.1 161.03,44.22 36.64,22.14 55.77,44.26 56.26,44.81 l -14.69,12.65 -0.12,-0.14 c -1.74,-1.96 -20.51,-22.63 -54.73,-42.66 -34.25,-20.05 -83.81,-39.49 -147.75,-39.5 -65.98,0.01 -116.38,20.82 -150.43,41.62 -17,10.4 -29.89,20.79 -38.46,28.52 -4.28,3.86 -7.49,7.06 -9.59,9.26 -1.06,1.1 -1.83,1.95 -2.33,2.5 l -0.54,0.61 -0.11,0.13 -0.01,0.01 -14.81,-12.51"
           style="fill:#ffffff;fill-opacity:1;fill-rule:nonzero;stroke:none"
           id="path18852" />
        <path
           d="m 4020.91,2636.27 c 0,0 -3.22,1.7 -14.47,-16.29 -11.25,-18 -20.36,-66.21 -20.36,-66.21 0,0 -10.67,22.5 -38.82,36.96 -25.7,13.21 -79.67,5.9 -88.86,4.54 -14.26,2.47 -47.99,6.64 -69.73,-4.54 -28.14,-14.46 -38.82,-36.96 -38.82,-36.96 0,0 -9.11,48.21 -20.36,66.21 -11.25,17.99 -14.46,16.29 -14.46,16.29 0,0 -5.9,-93.75 19.28,-149.46 22.11,-48.93 106.93,-69.19 127.1,-70.18 0,0 115.03,14.46 140.21,70.18 25.18,55.71 19.29,149.46 19.29,149.46"
           style="fill:#be4321;fill-opacity:1;fill-rule:nonzero;stroke:none"
           id="path18854" />
        <path
           d="m 3814.55,2576.5 h 94.64 c 0,0 -4.46,-28.99 -48.73,-28.99 -44.27,0 -45.91,28.99 -45.91,28.99"
           style="fill:#ffffff;fill-opacity:1;fill-rule:nonzero;stroke:none"
           id="path18856" />
      </g>
    </g>
  </g>
</svg>
