<?xml version="1.0" encoding="UTF-8" standalone="no"?>
<!-- Created with Inkscape (http://www.inkscape.org/) -->

<svg
   version="1.1"
   id="svg20976"
   width="667"
   height="666.66669"
   viewBox="0 0 667 666.66669"
   sodipodi:docname="Laura.svg"
   inkscape:version="1.2.2 (1:1.2.2+202212051552+b0a8486541)"
   xmlns:inkscape="http://www.inkscape.org/namespaces/inkscape"
   xmlns:sodipodi="http://sodipodi.sourceforge.net/DTD/sodipodi-0.dtd"
   xmlns="http://www.w3.org/2000/svg"
   xmlns:svg="http://www.w3.org/2000/svg">
  <defs
     id="defs20980">
    <clipPath
       clipPathUnits="userSpaceOnUse"
       id="clipPath20998">
      <path
         d="m 3661.82,3487.27 c 0,-423.63 -343.42,-767.06 -767.06,-767.06 -423.63,0 -767.06,343.43 -767.06,767.06 0,423.64 343.43,767.07 767.06,767.07 423.64,0 767.06,-343.43 767.06,-767.07"
         id="path20996" />
    </clipPath>
    <clipPath
       clipPathUnits="userSpaceOnUse"
       id="clipPath21050">
      <path
         d="m 7082.78,3487.27 c 0,-423.63 -343.43,-767.06 -767.06,-767.06 -423.64,0 -767.07,343.43 -767.07,767.06 0,423.64 343.43,767.07 767.07,767.07 423.63,0 767.06,-343.43 767.06,-767.07"
         id="path21048" />
    </clipPath>
    <clipPath
       clipPathUnits="userSpaceOnUse"
       id="clipPath21062">
      <path
         d="m 7082.78,3487.27 c 0,-423.63 -343.43,-767.06 -767.06,-767.06 -423.64,0 -767.07,343.43 -767.07,767.06 0,423.64 343.43,767.07 767.07,767.07 423.63,0 767.06,-343.43 767.06,-767.07"
         id="path21060" />
    </clipPath>
    <clipPath
       clipPathUnits="userSpaceOnUse"
       id="clipPath21068">
      <path
         d="M 6983.9,2704.26 H 5647.53 c 0,0 40.53,224.13 132.38,353.15 91.85,129.1 432.73,176.17 432.73,176.17 l 103.08,-15.9 103.07,15.9 c 0,0 340.99,-47.07 432.84,-176.17 91.85,-129.02 132.27,-353.15 132.27,-353.15"
         id="path21066" />
    </clipPath>
    <clipPath
       clipPathUnits="userSpaceOnUse"
       id="clipPath21082">
      <path
         d="m 7082.78,3487.27 c 0,-423.63 -343.43,-767.06 -767.06,-767.06 -423.64,0 -767.07,343.43 -767.07,767.06 0,423.64 343.43,767.07 767.07,767.07 423.63,0 767.06,-343.43 767.06,-767.07"
         id="path21080" />
    </clipPath>
    <clipPath
       clipPathUnits="userSpaceOnUse"
       id="clipPath21130">
      <path
         d="m 5372.3,3487.27 c 0,-423.63 -343.43,-767.06 -767.06,-767.06 -423.64,0 -767.06,343.43 -767.06,767.06 0,423.64 343.42,767.07 767.06,767.07 423.63,0 767.06,-343.43 767.06,-767.07"
         id="path21128" />
    </clipPath>
    <clipPath
       clipPathUnits="userSpaceOnUse"
       id="clipPath21180">
      <path
         d="m 1951.35,3487.27 c 0,-423.63 -343.43,-767.06 -767.06,-767.06 -423.642,0 -767.063,343.43 -767.063,767.06 0,423.64 343.421,767.07 767.063,767.07 423.63,0 767.06,-343.43 767.06,-767.07"
         id="path21178" />
    </clipPath>
    <clipPath
       clipPathUnits="userSpaceOnUse"
       id="clipPath21230">
      <path
         d="m 3661.82,1512.73 c 0,-423.64 -343.42,-767.058 -767.06,-767.058 -423.63,0 -767.06,343.418 -767.06,767.058 0,423.63 343.43,767.06 767.06,767.06 423.64,0 767.06,-343.43 767.06,-767.06"
         id="path21228" />
    </clipPath>
    <clipPath
       clipPathUnits="userSpaceOnUse"
       id="clipPath21280">
      <path
         d="m 1951.35,1512.73 c 0,-423.64 -343.43,-767.058 -767.06,-767.058 -423.642,0 -767.063,343.418 -767.063,767.058 0,423.63 343.421,767.06 767.063,767.06 423.63,0 767.06,-343.43 767.06,-767.06"
         id="path21278" />
    </clipPath>
    <clipPath
       clipPathUnits="userSpaceOnUse"
       id="clipPath21330">
      <path
         d="m 7082.78,1512.73 c 0,-423.64 -343.43,-767.058 -767.06,-767.058 -423.64,0 -767.07,343.418 -767.07,767.058 0,423.63 343.43,767.06 767.07,767.06 423.63,0 767.06,-343.43 767.06,-767.06"
         id="path21328" />
    </clipPath>
    <clipPath
       clipPathUnits="userSpaceOnUse"
       id="clipPath21382">
      <path
         d="m 5372.3,1543.33 c 0,-423.63 -343.43,-767.06 -767.06,-767.06 -423.64,0 -767.06,343.43 -767.06,767.06 0,423.64 343.42,767.06 767.06,767.06 423.63,0 767.06,-343.42 767.06,-767.06"
         id="path21380" />
    </clipPath>
    <clipPath
       clipPathUnits="userSpaceOnUse"
       id="clipPath18822">
      <path
         d="m 4428.69,2436.21 c 0,-312.26 -253.15,-565.41 -565.41,-565.41 -312.26,0 -565.4,253.15 -565.4,565.41 0,312.26 253.14,565.41 565.4,565.41 312.26,0 565.41,-253.15 565.41,-565.41"
         id="path18820" />
    </clipPath>
    <clipPath
       clipPathUnits="userSpaceOnUse"
       id="clipPath18672">
      <path
         d="m 4435.19,4032.09 c 0,-312.27 -253.14,-565.41 -565.41,-565.41 -312.25,0 -565.4,253.14 -565.4,565.41 0,312.26 253.15,565.4 565.4,565.4 312.27,0 565.41,-253.14 565.41,-565.4"
         id="path18670" />
    </clipPath>
    <clipPath
       clipPathUnits="userSpaceOnUse"
       id="clipPath19000">
      <path
         d="m 4436.7,961.422 c 0,-312.274 -253.14,-565.402 -565.4,-565.402 -312.27,0 -565.4,253.128 -565.4,565.402 0,312.268 253.13,565.398 565.4,565.398 312.26,0 565.4,-253.13 565.4,-565.398"
         id="path18998" />
    </clipPath>
  </defs>
  <sodipodi:namedview
     id="namedview20978"
     pagecolor="#ffffff"
     bordercolor="#000000"
     borderopacity="0.25"
     inkscape:showpageshadow="2"
     inkscape:pageopacity="0.0"
     inkscape:pagecheckerboard="0"
     inkscape:deskcolor="#d1d1d1"
     showgrid="false"
     inkscape:zoom="0.50063159"
     inkscape:cx="326.58746"
     inkscape:cy="416.47392"
     inkscape:window-width="1366"
     inkscape:window-height="836"
     inkscape:window-x="0"
     inkscape:window-y="0"
     inkscape:window-maximized="1"
     inkscape:current-layer="g20984">
    <inkscape:page
       x="0"
       y="0"
       id="page20982"
       width="667"
       height="666.66669" />
  </sodipodi:namedview>
  <g
     id="g20984"
     inkscape:groupmode="layer"
     inkscape:label="Page 1"
     transform="matrix(1.3333333,0,0,-1.3333333,0,666.66667)">
    <path
       d="M 499.62325,250.08547 C 499.62325,112.15142 387.80918,0.34264849 249.88131,0.34264849 111.94902,0.34264849 0.13936568,112.15142 0.13936568,250.08547 c 0,137.93141 111.80965432,249.74106 249.74194432,249.74106 137.92787,0 249.74194,-111.80965 249.74194,-249.74106"
       style="fill:#0e7496;fill-opacity:1;fill-rule:nonzero;stroke:none;stroke-width:0.441708"
       id="path18992" />
    <g
       id="g18994"
       transform="matrix(0.44170842,0,0,0.44170842,-1460.1045,-174.58272)">
      <g
         id="g18996"
         clip-path="url(#clipPath19000)">
        <path
           d="m 4252.65,468.852 c -18.32,48.8 -74.28,112.898 -182.71,129.898 l -202.08,39.672 -202.08,-39.672 c -108.43,-17 -164.4,-81.098 -182.72,-129.898 l -42.35,-191.2 h 185.44 13.56 228.15 228.15 13.56 185.43 l -42.35,191.2"
           style="fill:#ef325f;fill-opacity:1;fill-rule:nonzero;stroke:none"
           id="path19002" />
        <path
           d="m 3659.48,596.672 219.15,44.43 204.48,-43.813 -4.53,-3.269 c -124.95,-89.911 -293.13,-85.829 -419.1,2.652"
           style="fill:#9d5048;fill-opacity:1;fill-rule:nonzero;stroke:none"
           id="path19004" />
        <path
           d="m 3758.56,920.859 c 1.26,-32.64 -24.19,-60.117 -56.82,-61.379 -32.65,-1.261 -60.13,24.18 -61.39,56.821 -1.26,32.64 24.18,60.129 56.83,61.39 32.63,1.258 60.12,-24.179 61.38,-56.832"
           style="fill:#803936;fill-opacity:1;fill-rule:nonzero;stroke:none"
           id="path19006" />
        <path
           d="m 3667.27,923.59 0.02,0.012 c 0.35,0.16 2.86,1.207 6.71,1.199 7.54,-0.071 20.92,-3.699 35.15,-28.801 0.89,-1.59 2.91,-2.16 4.5,-1.258 1.59,0.887 2.16,2.91 1.26,4.5 -14.76,26.457 -30.82,32.246 -40.91,32.18 -5.77,-0.012 -9.37,-1.762 -9.69,-1.922 -1.63,-0.809 -2.29,-2.801 -1.48,-4.43 0.82,-1.629 2.81,-2.3 4.44,-1.48"
           style="fill:#040606;fill-opacity:1;fill-rule:nonzero;stroke:none"
           id="path19008" />
        <path
           d="m 3974.52,921.422 c 0.34,-32.672 27.09,-58.871 59.76,-58.543 32.66,0.351 58.87,27.09 58.53,59.762 -0.33,32.668 -27.09,58.879 -59.76,58.539 -32.66,-0.34 -58.86,-27.09 -58.53,-59.758"
           style="fill:#803936;fill-opacity:1;fill-rule:nonzero;stroke:none"
           id="path19010" />
        <path
           d="m 4068.23,934.66 c -0.29,0.129 -3.42,1.469 -8.4,1.469 -4.92,0.012 -11.64,-1.359 -18.8,-6.379 -7.17,-5.02 -14.76,-13.578 -21.85,-27.789 -0.82,-1.629 -0.15,-3.621 1.48,-4.441 1.63,-0.809 3.62,-0.149 4.43,1.492 6.74,13.476 13.67,21.09 19.73,25.32 6.06,4.219 11.27,5.18 15.01,5.188 1.89,0 3.39,-0.258 4.39,-0.5 l 1.11,-0.321 0.23,-0.09 h 0.01 c 1.67,-0.738 3.62,0.02 4.36,1.692 0.73,1.668 -0.02,3.621 -1.7,4.359"
           style="fill:#040606;fill-opacity:1;fill-rule:nonzero;stroke:none"
           id="path19012" />
        <path
           d="m 4066.85,1066.24 c 1.09,-104.869 -89.12,-190.83 -201.47,-191.978 -112.36,-1.16 -204.33,82.91 -205.41,187.778 -1.08,104.89 89.13,190.84 201.48,192 112.37,1.16 204.33,-82.92 205.4,-187.8"
           style="fill:#040606;fill-opacity:1;fill-rule:nonzero;stroke:none"
           id="path19014" />
        <path
           d="m 3924.83,802.84 c 0,0 -25.34,-23.758 -48.61,-29.77 -23.27,-6.019 -46.16,11.43 -46.46,11.629 l -27.48,20.18 -8.93,-194.777 3.06,-3.223 c 40.06,-42.149 97.11,-42.149 136.64,0 l 5.79,6.16 -14.01,189.801"
           style="fill:#9d5048;fill-opacity:1;fill-rule:nonzero;stroke:none"
           id="path19016" />
        <path
           d="m 3783.59,830.398 c 0,0 33.99,-113.406 92.55,-111.687 48.14,1.418 60.4,107.609 60.4,107.609 l -152.95,4.078"
           style="fill:#140a0a;fill-opacity:1;fill-rule:nonzero;stroke:none"
           id="path19018" />
        <path
           d="m 4025.09,1032.54 c 0.97,-63.981 -7.72,-119.341 -16.65,-158.681 -8.74,-38.5 -34.59,-65.718 -71.38,-87.867 l -6.7,-4.031 c -38.92,-23.449 -89.65,-24.762 -129.85,-3.359 -40.56,21.57 -69.16,50.398 -78.46,91.429 -16.92,74.641 -19.91,157.549 -19.91,157.549 0,0 -15.28,172.93 158.94,172.47 174.21,-0.46 164.01,-167.51 164.01,-167.51"
           style="fill:#9d5048;fill-opacity:1;fill-rule:nonzero;stroke:none"
           id="path19020" />
        <path
           d="m 3845.51,942.219 0.25,-25.008 c 0.01,-1.32 0.56,-2.602 1.5,-3.52 0.94,-0.921 2.23,-1.441 3.55,-1.429 l 17.1,0.179 c 2.76,0.02 4.98,2.289 4.95,5.047 -0.03,2.762 -2.29,4.973 -5.05,4.953 l -12.1,-0.132 -0.2,20.011 c -0.03,2.762 -2.29,4.981 -5.05,4.95 -2.77,-0.032 -4.98,-2.29 -4.95,-5.051"
           style="fill:#66312e;fill-opacity:1;fill-rule:nonzero;stroke:none"
           id="path19022" />
        <path
           d="m 3731.27,1030.94 92.01,9.26 c 0,0 -8.49,23.78 -45.68,19.52 -38.06,-4.35 -46.33,-28.78 -46.33,-28.78"
           style="fill:#040606;fill-opacity:1;fill-rule:nonzero;stroke:none"
           id="path19024" />
        <path
           d="m 3984.43,1033.56 -92.18,7.35 c 0,0 8,23.95 45.28,20.46 38.14,-3.56 46.9,-27.81 46.9,-27.81"
           style="fill:#040606;fill-opacity:1;fill-rule:nonzero;stroke:none"
           id="path19026" />
        <path
           d="m 3803.38,975.66 c 0.08,-7.781 -6.17,-14.16 -13.96,-14.238 -7.78,-0.082 -14.16,6.16 -14.24,13.957 -0.07,7.781 6.17,14.16 13.96,14.23 7.78,0.082 14.16,-6.16 14.24,-13.949"
           style="fill:#140a0a;fill-opacity:1;fill-rule:nonzero;stroke:none"
           id="path19028" />
        <path
           d="m 3941.68,977.09 c 0.08,-7.789 -6.16,-14.168 -13.95,-14.238 -7.78,-0.082 -14.16,6.168 -14.25,13.949 -0.07,7.781 6.18,14.16 13.96,14.238 7.78,0.082 14.16,-6.16 14.24,-13.949"
           style="fill:#140a0a;fill-opacity:1;fill-rule:nonzero;stroke:none"
           id="path19030" />
        <path
           d="m 3806.46,878.398 c 0.35,-0.179 17.79,-9.367 47.84,-9.367 15.79,0 35.05,2.539 57.06,10.239 1.73,0.601 2.63,2.48 2.03,4.21 -0.6,1.719 -2.49,2.629 -4.21,2.032 -21.31,-7.453 -39.8,-9.871 -54.88,-9.871 -14.34,0 -25.61,2.191 -33.25,4.371 -3.82,1.078 -6.74,2.168 -8.67,2.957 -0.97,0.402 -1.7,0.73 -2.17,0.953 l -0.51,0.258 -0.13,0.062 c -1.62,0.86 -3.62,0.25 -4.47,-1.371 -0.86,-1.609 -0.25,-3.609 1.36,-4.473"
           style="fill:#040606;fill-opacity:1;fill-rule:nonzero;stroke:none"
           id="path19032" />
        <path
           d="m 4024.68,1071.88 c 0,0 -256.26,-12.26 -247.01,138.2 0,0 222.76,65.63 247.01,-138.2"
           style="fill:#040606;fill-opacity:1;fill-rule:nonzero;stroke:none"
           id="path19034" />
        <path
           d="m 3697.91,1068.38 c 0,0 89.67,38.63 88.72,130.93 0,0 -92.21,-11.6 -88.72,-130.93"
           style="fill:#040606;fill-opacity:1;fill-rule:nonzero;stroke:none"
           id="path19036" />
        <path
           d="m 3976.89,1350.62 c 0,-66.2 -53.67,-119.87 -119.87,-119.87 -66.2,0 -119.86,53.67 -119.86,119.87 0,66.2 53.66,119.86 119.86,119.86 66.2,0 119.87,-53.66 119.87,-119.86"
           style="fill:#040606;fill-opacity:1;fill-rule:nonzero;stroke:none"
           id="path19038" />
        <path
           d="m 3852.13,1274.55 c 0,-37.2 -31.85,-67.36 -71.15,-67.36 -39.28,0 -71.14,30.16 -71.14,67.36 0,37.2 31.86,67.37 71.14,67.37 39.3,0 71.15,-30.17 71.15,-67.37"
           style="fill:#040606;fill-opacity:1;fill-rule:nonzero;stroke:none"
           id="path19040" />
        <path
           d="m 4011.45,1258.07 c 0,-35.06 -28.42,-63.48 -63.48,-63.48 -35.06,0 -63.48,28.42 -63.48,63.48 0,35.07 28.42,63.49 63.48,63.49 35.06,0 63.48,-28.42 63.48,-63.49"
           style="fill:#040606;fill-opacity:1;fill-rule:nonzero;stroke:none"
           id="path19042" />
      </g>
    </g>
  </g>
</svg>
