<?xml version="1.0" encoding="UTF-8" standalone="no"?>
<!-- Created with Inkscape (http://www.inkscape.org/) -->

<svg
   version="1.1"
   id="svg2"
   width="571.70697"
   height="392.88"
   viewBox="0 0 571.70697 392.87999"
   sodipodi:docname="mao.svg"
   inkscape:version="1.2.2 (1:1.2.2+202212051552+b0a8486541)"
   xmlns:inkscape="http://www.inkscape.org/namespaces/inkscape"
   xmlns:sodipodi="http://sodipodi.sourceforge.net/DTD/sodipodi-0.dtd"
   xmlns="http://www.w3.org/2000/svg"
   xmlns:svg="http://www.w3.org/2000/svg">
  <defs
     id="defs6">
    <clipPath
       clipPathUnits="userSpaceOnUse"
       id="clipPath22">
      <path
         d="M 0,0 H 22595 V 10799 H 0 Z"
         id="path20" />
    </clipPath>
    <clipPath
       clipPathUnits="userSpaceOnUse"
       id="clipPath28">
      <path
         d="m 22595.3,0 h -5000 v 5000.01 h 5000 z"
         id="path26" />
    </clipPath>
    <clipPath
       clipPathUnits="userSpaceOnUse"
       id="clipPath184">
      <path
         d="m 16713.4,0 h -5000 v 5000.01 h 5000 z"
         id="path182" />
    </clipPath>
    <clipPath
       clipPathUnits="userSpaceOnUse"
       id="clipPath196">
      <path
         d="M 16713.4,0.902344 H 12409 V 3796.07 h 4304.4 z"
         id="path194" />
    </clipPath>
    <clipPath
       clipPathUnits="userSpaceOnUse"
       id="clipPath236">
      <path
         d="m 13710.9,1100.51 h -1997.5 v 3899.5 h 1997.5 z"
         id="path234" />
    </clipPath>
    <clipPath
       clipPathUnits="userSpaceOnUse"
       id="clipPath262">
      <path
         d="m 13710.9,1100.51 h -1997.5 v 3899.5 h 1997.5 z"
         id="path260" />
    </clipPath>
    <clipPath
       clipPathUnits="userSpaceOnUse"
       id="clipPath268">
      <path
         d="m 13536.7,2629.11 c 0,793.22 -448.8,1553.44 -1234.8,1553.44 -786,0 -1234.7,-760.22 -1234.7,-1553.44 0,-205.79 87.5,-401.48 79.3,-578.44 -23.6,-505.17 2.4,-723.5 170.3,-723.5 194.9,0 200.1,1301.94 200.1,1301.94 0,0 287.7,158.62 785,158.62 497.3,0 773.9,-158.62 773.9,-158.62 0,0 5.1,-1301.94 200.1,-1301.94 167.9,0 205,218.33 181.5,723.5 -8.3,176.96 79.3,372.65 79.3,578.44 z"
         id="path266" />
    </clipPath>
    <clipPath
       clipPathUnits="userSpaceOnUse"
       id="clipPath328">
      <path
         d="M 0,0 H 22595 V 10799 H 0 Z"
         id="path326" />
    </clipPath>
    <clipPath
       clipPathUnits="userSpaceOnUse"
       id="clipPath334">
      <path
         d="m 22595.3,5798.2 h -5000 v 5000 h 5000 z"
         id="path332" />
    </clipPath>
    <clipPath
       clipPathUnits="userSpaceOnUse"
       id="clipPath346">
      <path
         d="m 17595.3,10798.2 h 4349.2 V 7084.17 h -4349.2 z"
         id="path344" />
    </clipPath>
    <clipPath
       clipPathUnits="userSpaceOnUse"
       id="clipPath376">
      <path
         d="M 0,0 H 22595 V 10799 H 0 Z"
         id="path374" />
    </clipPath>
    <clipPath
       clipPathUnits="userSpaceOnUse"
       id="clipPath382">
      <path
         d="m 22595.3,5798.2 h -3477.1 v 4462 h 3477.1 z"
         id="path380" />
    </clipPath>
    <clipPath
       clipPathUnits="userSpaceOnUse"
       id="clipPath406">
      <path
         d="M 0,0 H 22595 V 10799 H 0 Z"
         id="path404" />
    </clipPath>
    <clipPath
       clipPathUnits="userSpaceOnUse"
       id="clipPath412">
      <path
         d="m 22595.3,5798.2 h -3477.1 v 4462 h 3477.1 z"
         id="path410" />
    </clipPath>
    <clipPath
       clipPathUnits="userSpaceOnUse"
       id="clipPath418">
      <path
         d="m 20459.4,6726.43 c 52.3,583.98 3.3,970.42 177.5,1751.92 61.1,273.9 533.9,311.48 1070.9,311.48 537.1,0 1009.8,-37.58 1070.9,-311.48 174.3,-781.5 125.3,-1167.94 177.6,-1751.92 31.9,-356.88 115.5,-628.23 82.6,-931.7 -23,-211.92 -187.7,-297.78 -187.7,-297.78 0,0 -608.7,-85.2 -1143.4,-85.2 -534.7,0 -1143.3,85.2 -1143.3,85.2 0,0 -164.7,85.86 -187.7,297.78 -32.9,303.47 50.7,574.82 82.6,931.7 z"
         id="path416" />
    </clipPath>
    <clipPath
       clipPathUnits="userSpaceOnUse"
       id="clipPath466">
      <path
         d="m 19118,5798 h 3477 v 4463 h -3477 z"
         id="path464" />
    </clipPath>
    <clipPath
       clipPathUnits="userSpaceOnUse"
       id="clipPath478">
      <path
         d="m 22288,8754.04 c 0,-70.06 -259.7,-168.53 -580.2,-168.53 -320.4,0 -580.1,98.47 -580.1,168.53 l 36.6,371.73 c 0,76.5 193.7,93 543.5,93 349.9,0 543.6,-16.5 543.6,-93 z"
         id="path476" />
    </clipPath>
    <clipPath
       clipPathUnits="userSpaceOnUse"
       id="clipPath502">
      <path
         d="m 19118,5798 h 3477 v 4463 h -3477 z"
         id="path500" />
    </clipPath>
    <clipPath
       clipPathUnits="userSpaceOnUse"
       id="clipPath514">
      <path
         d="m 16713.4,5798.2 h -5000 v 5000 h 5000 z"
         id="path512" />
    </clipPath>
    <clipPath
       clipPathUnits="userSpaceOnUse"
       id="clipPath570">
      <path
         d="m 12733,9590.42 c 100.8,50.28 172.2,-20.25 205.3,-88.99 l 171.2,-367.9 c 6,6.83 12.3,12.78 18.3,19.18 l -201.1,605.49 c -25,72.29 -32.6,166.53 74.7,206.96 83.9,31.56 162.4,-43.84 187.4,-116.13 l 178.3,-554.28 c 2.2,0.69 3.9,1.43 6.1,2.13 l 17.3,4.36 -98.7,641.42 c -13.9,75.14 9.6,175.84 105,193.34 99.8,18.4 153.8,-68.1 167.7,-143.18 l 99.2,-639.89 c 8.9,-0.18 17.4,0.1 26.4,-0.08 l -18.1,430.52 c -6.3,76.56 28.9,171.68 120.2,179 95.2,7.64 149.8,-80.3 156.1,-156.45 l 28.5,-558.84 v 0 c 55.7,162.55 137.2,267.21 142,274.97 39.3,65.82 124.6,86.84 190.4,47.51 65.3,-39.73 86.8,-124.56 47.1,-190.35 -43.7,-72.76 -153.2,-257.05 -154.7,-483.73 -2,-308.34 -101.8,-446.08 -101.8,-446.08 l -874,-145.9 c 0,0 -170.8,157.74 -242.9,436.99 -0.2,0.6 -0.3,1.19 -0.5,1.79 -38.6,153.74 -105.1,240.08 -173.9,382.9 l -120,255.63 c -33.4,69.25 -23.8,175.57 44.5,209.61 z"
         id="path568" />
    </clipPath>
    <clipPath
       clipPathUnits="userSpaceOnUse"
       id="clipPath616">
      <path
         d="m 15703.9,9256.54 c -96.1,58.67 -173.2,-5.54 -212.1,-71.21 l -201.8,-352 c -5.4,7.3 -11.2,13.77 -16.6,20.66 l 251.8,586.19 c 31.1,69.9 46.7,163.15 -56.9,212.57 -80.8,38.58 -165.5,-29.86 -196.5,-99.77 L 15047,9015.86 c -2.1,0.89 -3.8,1.77 -5.9,2.66 l -16.9,5.81 153,630.7 c 20.2,73.64 5.3,175.99 -88.2,201.56 -98,26.79 -159.1,-54.74 -179.3,-128.39 l -153.3,-629.13 c -8.9,0.58 -17.3,1.58 -26.2,2.16 l 54.6,427.42 c 12.8,75.75 -14.2,173.52 -104.6,188.59 -94.2,15.7 -156,-67.28 -168.8,-142.62 l -76,-554.38 v 0 c -41.6,166.7 -113.9,277.9 -118,286.04 -33.6,68.93 -116.8,97.13 -185.7,63.53 -68.5,-34.02 -97.1,-116.71 -63.1,-185.65 37.3,-76.21 130.7,-269.15 112.9,-495.13 -24.2,-307.38 63.6,-453.12 63.6,-453.12 l 858.3,-219.71 c 0,0 183.7,142.64 279.3,414.75 0.2,0.57 0.4,1.15 0.6,1.73 51.5,149.91 125.1,230.28 205.8,366.72 l 141.4,244.5 c 39.2,66.15 38.6,172.91 -26.6,212.64 z"
         id="path614" />
    </clipPath>
    <clipPath
       clipPathUnits="userSpaceOnUse"
       id="clipPath812">
      <path
         d="M 0,0 H 22595 V 10799 H 0 Z"
         id="path810" />
    </clipPath>
    <clipPath
       clipPathUnits="userSpaceOnUse"
       id="clipPath818">
      <path
         d="M 10800,4511.32 H 0.90625 V 10799.1 H 10800 Z"
         id="path816" />
    </clipPath>
    <clipPath
       clipPathUnits="userSpaceOnUse"
       id="clipPath832">
      <path
         d="M 10800,395.703 H 6521.49 V 3675.47 H 10800 Z"
         id="path830" />
    </clipPath>
    <clipPath
       clipPathUnits="userSpaceOnUse"
       id="clipPath928">
      <path
         d="M 0,395.703 H 4278.51 V 3675.47 H 0 Z"
         id="path926" />
    </clipPath>
  </defs>
  <sodipodi:namedview
     id="namedview4"
     pagecolor="#ffffff"
     bordercolor="#000000"
     borderopacity="0.25"
     inkscape:showpageshadow="2"
     inkscape:pageopacity="0.0"
     inkscape:pagecheckerboard="0"
     inkscape:deskcolor="#d1d1d1"
     showgrid="false"
     inkscape:zoom="2.6224407"
     inkscape:cx="287.89974"
     inkscape:cy="326.22282"
     inkscape:window-width="1366"
     inkscape:window-height="836"
     inkscape:window-x="0"
     inkscape:window-y="0"
     inkscape:window-maximized="1"
     inkscape:current-layer="g10">
    <inkscape:page
       x="0"
       y="0"
       id="page8"
       width="571.70697"
       height="392.88" />
  </sodipodi:namedview>
  <g
     id="g10"
     inkscape:groupmode="layer"
     inkscape:label="Page 1"
     transform="matrix(1.3333333,0,0,-1.3333333,0,1439.88)">
    <g
       id="g826"
       transform="matrix(0.1,0,0,0.1,-650.95869,711.14812)">
      <g
         id="g828"
         clip-path="url(#clipPath832)">
        <path
           d="m 8155.2,1426.18 c 87,-93.8 206,-156.51 332.5,-175.8 588.9,-85.31 1181.5,-111.51 1775.7,-72.01 374.4,24.81 752.9,75.4 1103.6,207.9 v 2459.81 c -150,-139.81 -299.8,-279.81 -452.1,-417.11 -104.1,-93.69 -209.4,-192.7 -312.9,-283.59 -81.5,-71.51 -537.7,-217.1 -647.5,-254.2 -473.6,-159.91 -953.4,-303.7 -1418.3,-488.21 -165.6,-65.7 -333,-131.1 -435.8,-286.39 -140.9,-212.61 -119,-502.81 54.8,-690.4"
           style="fill:#f68174;fill-opacity:1;fill-rule:nonzero;stroke:none"
           id="path834" />
        <path
           d="m 7026.28,2353.54 c -111.23,-87.05 -13.59,-267.44 75.14,-311 58.23,-28.68 407.57,-47.81 504.54,-59.07 61.64,-7.46 99.24,-53.9 106.73,-106.15 7.7,-53.69 -17.22,-113.56 -77.64,-141.48 0,0 -968.31,-391.63 -1042.45,-421.95 -142.41,-58.25 -154.1,-191.81 -120.54,-289.34 21.12,-61.37 85.65,-96.538 149.12,-82.96 l 400.3,85.63 623.36,-243.419 c 152.5,-59.5 316.42,-54.301 461.71,13.898 451.52,211.711 794.1,405.751 794.1,405.751 l -409.11,1162.5 c -322.59,245.51 -564.01,124.83 -932.5,25.51 -171.66,-46.27 -511.9,-21.6 -532.76,-37.92"
           style="fill:#f68174;fill-opacity:1;fill-rule:nonzero;stroke:none"
           id="path836" />
        <path
           d="m 7019.49,1025.7 c -17.25,22.33 -32.98,46.16 -44.3,72.32 -11.39,26.01 -18.63,54.47 -17.32,83.4 1.38,28.86 11.61,57.11 28.35,80.53 16.75,23.51 38.58,42.72 63.98,56.93 0.26,0.15 0.53,0.25 0.81,0.31 l 0.18,0.04 263.27,59.37 263.56,58.05 -0.6,-0.19 123.73,48.47 123.95,47.9 c 1.28,0.49 2.72,-0.14 3.21,-1.42 0.44,-1.12 0,-2.37 -0.99,-3 l -0.38,-0.23 c -19.06,-11.99 -38.41,-23.29 -57.89,-34.26 -19.35,-11.3 -39.13,-21.49 -58.73,-32.15 -19.55,-10.8 -39.53,-20.49 -59.34,-30.61 -19.83,-10.09 -39.66,-20.18 -59.79,-29.49 l -0.56,-0.21 -4.45,-1.32 -64.81,-19.32 -65.2,-17.62 c -43.43,-11.92 -87.08,-22.81 -130.91,-32.96 -43.79,-10.25 -87.73,-19.86 -131.83,-28.77 -44.01,-9.3 -88.5,-16.46 -132.77,-24.6 l 8.97,3.18 c 0.09,0.14 -1.56,-0.68 -2.51,-1.15 l -3.51,-1.88 -7.26,-4.21 c -4.91,-2.87 -9.76,-6.06 -14.36,-9.51 -9.28,-6.84 -17.81,-14.61 -25.07,-23.22 -14.35,-17.26 -25.1,-37.09 -29.12,-60.17 -1.82,-11.53 -2.02,-23.61 -1.47,-36.14 0.9,-12.5 3.28,-25.3 6.81,-38.07 6.46,-25.87 17.91,-51.35 30.31,-76.96 l 0.22,-0.45 c 0.6,-1.23 0.09,-2.71 -1.14,-3.3 -1.08,-0.53 -2.34,-0.2 -3.04,0.71"
           style="fill:#23304e;fill-opacity:1;fill-rule:nonzero;stroke:none"
           id="path838" />
        <path
           d="m 7291.77,919.391 c -20.63,26.449 -38.55,55.422 -50.49,87.189 -5.65,15.95 -9.98,32.55 -11.41,49.61 -1.44,17.03 -0.03,34.37 4.28,50.99 8.74,33.23 29.08,63.08 56.27,83.94 13.57,10.46 28.63,18.95 44.59,25.12 16.1,6.42 32.57,9.35 48.68,13.66 64.84,16.13 129.63,32.44 194.63,47.97 l 194.83,47.13 -0.57,-0.18 143.9,58.33 144.13,57.75 c 1.28,0.51 2.72,-0.1 3.23,-1.38 0.46,-1.15 0.01,-2.43 -1.01,-3.04 l -0.32,-0.21 c -22.36,-13.7 -45.02,-26.65 -67.81,-39.29 -22.65,-12.99 -45.78,-24.79 -68.69,-37.14 -22.85,-12.49 -46.22,-23.71 -69.33,-35.57 l -34.75,-17.57 -35.07,-16.8 -4.71,-1.54 -47.65,-15.8 c -15.87,-5.31 -31.97,-9.66 -47.95,-14.54 -31.98,-9.59 -63.97,-19.15 -96.24,-27.59 -64.48,-17.09 -129.31,-32.75 -194.75,-46.13 l -24.6,-4.79 -6.15,-1.19 -4.5,-1.05 c -2.82,-0.67 -6.21,-1.64 -9.22,-2.64 -12.5,-3.86 -24.08,-9.93 -35.05,-16.77 -10.94,-6.92 -20.86,-15.43 -29.08,-25.47 -8.29,-10.15 -14.92,-21.66 -20.03,-33.89 -10.26,-24.62 -10.68,-54.11 -4.81,-84.51 1.68,-7.56 3.52,-15.177 5.96,-22.767 1.95,-7.782 4.91,-15.301 7.66,-23 2.79,-7.692 6.43,-15.043 9.4,-22.891 l 10.6,-22.891 0.22,-0.492 c 0.58,-1.226 0.04,-2.707 -1.2,-3.277 -1.06,-0.492 -2.3,-0.16 -2.99,0.719"
           style="fill:#23304e;fill-opacity:1;fill-rule:nonzero;stroke:none"
           id="path840" />
        <path
           d="m 7616.64,792.402 c -27.28,18.547 -52.52,41.571 -71.74,71.481 -9.34,15.039 -17.14,31.867 -21.67,50.398 -4.5,18.512 -4.88,38.59 -1.64,58.039 3.34,19.43 10.1,38.33 19.78,54.98 9.7,16.54 21.54,32.03 35.45,45.43 13.84,13.47 29.33,25.33 46.27,34.62 16.93,9.29 35,16.31 53.6,21.34 4.64,1.33 9.37,2.25 14.06,3.38 l 11.87,2.53 23.73,5.08 c 15.79,3.54 31.69,6.39 47.55,9.5 31.71,6.33 63.57,11.77 95.37,17.5 63.76,10.66 127.54,21.16 191.79,28.9 l -13.27,-4.74 c 22.47,11.12 44.73,22.6 67.79,32.65 22.92,10.33 45.59,21.08 69.08,30.38 l 34.98,14.42 35.6,13.33 c 23.81,8.73 47.97,16.86 72.8,23.8 l 0.56,0.16 c 1.32,0.37 2.68,-0.4 3.05,-1.71 0.3,-1.1 -0.19,-2.24 -1.15,-2.8 -43.33,-25.05 -86.41,-50.54 -129.95,-75.24 L 8070.2,1151.3 c -0.45,-0.25 -0.97,-0.43 -1.45,-0.51 l -191.02,-33.33 c -63.59,-10.91 -127.8,-21.19 -190.89,-32.61 -30.8,-7.04 -60.16,-21.2 -84,-41.96 -23.71,-20.66 -42.73,-47.757 -50.46,-78.218 -7.91,-30.512 -2.53,-63.281 11.17,-91.832 13.68,-28.75 34.02,-54.137 56.61,-76.938 0.96,-0.902 0.96,-2.5 -0.01,-3.5 -0.86,-0.8 -2.18,-0.902 -3.15,-0.3 l -0.36,0.3"
           style="fill:#23304e;fill-opacity:1;fill-rule:nonzero;stroke:none"
           id="path842" />
        <path
           d="m 9266.61,1653.06 c 9.18,-25.54 8.77,-53.84 5.35,-80.78 -4.53,-26.74 -12.04,-52.98 -22.68,-77.48 -21.19,-49.12 -51.04,-93.14 -85.58,-132.13 -34.67,-38.93 -74.2,-73.16 -117.75,-101.53 -43.76,-27.77 -91.55,-51.15 -144.1,-59.88 l -0.79,-0.13 c -1.33,-0.22 -2.59,0.68 -2.81,2 -0.17,1.03 0.34,2.03 1.2,2.52 21.52,12.27 42.22,25.95 62.26,40.5 20.17,14.38 39.72,29.64 58.62,45.65 37.8,32.04 73.27,66.83 105.96,104.02 32.94,36.9 63.28,76.31 88.24,118.96 12.42,21.32 23.41,43.51 31.91,66.59 8.58,23.01 14.44,47.17 15.17,71.69 0.04,1.34 1.16,2.4 2.51,2.36 1.03,-0.03 1.89,-0.7 2.22,-1.61 l 0.27,-0.75"
           style="fill:#23304e;fill-opacity:1;fill-rule:nonzero;stroke:none"
           id="path844" />
      </g>
    </g>
    <path
       d="m 573.481,426.986 0.199,-98.989 -0.199,-98.99 c 0,-0.109 -0.09,-0.199 -0.2,-0.199 -0.105,0.001 -0.19,0.081 -0.199,0.183 l -10e-4,0.016 -0.511,6.188 -0.385,6.186 -0.761,12.374 c -0.398,8.249 -0.758,16.498 -0.986,24.747 -0.313,8.249 -0.383,16.498 -0.567,24.747 -0.112,8.25 -0.122,16.499 -0.188,24.748 l 0.178,24.747 c 0.19,8.249 0.25,16.498 0.567,24.748 0.144,4.124 0.238,8.249 0.425,12.373 l 0.561,12.374 0.766,12.373 0.388,6.187 0.513,6.187 10e-4,0.015 c 0.009,0.111 0.106,0.193 0.216,0.183 0.104,-0.009 0.183,-0.096 0.183,-0.198"
       style="fill:#ffffff;fill-opacity:1;fill-rule:nonzero;stroke:none;stroke-width:0.1"
       id="path908" />
  </g>
</svg>
