<?xml version="1.0" encoding="UTF-8" standalone="no"?>
<!-- Created with Inkscape (http://www.inkscape.org/) -->

<svg
   version="1.1"
   id="svg20976"
   width="667"
   height="666.66669"
   viewBox="0 0 667 666.66669"
   sodipodi:docname="Michael.svg"
   inkscape:version="1.2.2 (1:1.2.2+202212051552+b0a8486541)"
   xmlns:inkscape="http://www.inkscape.org/namespaces/inkscape"
   xmlns:sodipodi="http://sodipodi.sourceforge.net/DTD/sodipodi-0.dtd"
   xmlns="http://www.w3.org/2000/svg"
   xmlns:svg="http://www.w3.org/2000/svg">
  <defs
     id="defs20980">
    <clipPath
       clipPathUnits="userSpaceOnUse"
       id="clipPath20998">
      <path
         d="m 3661.82,3487.27 c 0,-423.63 -343.42,-767.06 -767.06,-767.06 -423.63,0 -767.06,343.43 -767.06,767.06 0,423.64 343.43,767.07 767.06,767.07 423.64,0 767.06,-343.43 767.06,-767.07"
         id="path20996" />
    </clipPath>
    <clipPath
       clipPathUnits="userSpaceOnUse"
       id="clipPath21050">
      <path
         d="m 7082.78,3487.27 c 0,-423.63 -343.43,-767.06 -767.06,-767.06 -423.64,0 -767.07,343.43 -767.07,767.06 0,423.64 343.43,767.07 767.07,767.07 423.63,0 767.06,-343.43 767.06,-767.07"
         id="path21048" />
    </clipPath>
    <clipPath
       clipPathUnits="userSpaceOnUse"
       id="clipPath21062">
      <path
         d="m 7082.78,3487.27 c 0,-423.63 -343.43,-767.06 -767.06,-767.06 -423.64,0 -767.07,343.43 -767.07,767.06 0,423.64 343.43,767.07 767.07,767.07 423.63,0 767.06,-343.43 767.06,-767.07"
         id="path21060" />
    </clipPath>
    <clipPath
       clipPathUnits="userSpaceOnUse"
       id="clipPath21068">
      <path
         d="M 6983.9,2704.26 H 5647.53 c 0,0 40.53,224.13 132.38,353.15 91.85,129.1 432.73,176.17 432.73,176.17 l 103.08,-15.9 103.07,15.9 c 0,0 340.99,-47.07 432.84,-176.17 91.85,-129.02 132.27,-353.15 132.27,-353.15"
         id="path21066" />
    </clipPath>
    <clipPath
       clipPathUnits="userSpaceOnUse"
       id="clipPath21082">
      <path
         d="m 7082.78,3487.27 c 0,-423.63 -343.43,-767.06 -767.06,-767.06 -423.64,0 -767.07,343.43 -767.07,767.06 0,423.64 343.43,767.07 767.07,767.07 423.63,0 767.06,-343.43 767.06,-767.07"
         id="path21080" />
    </clipPath>
    <clipPath
       clipPathUnits="userSpaceOnUse"
       id="clipPath21130">
      <path
         d="m 5372.3,3487.27 c 0,-423.63 -343.43,-767.06 -767.06,-767.06 -423.64,0 -767.06,343.43 -767.06,767.06 0,423.64 343.42,767.07 767.06,767.07 423.63,0 767.06,-343.43 767.06,-767.07"
         id="path21128" />
    </clipPath>
    <clipPath
       clipPathUnits="userSpaceOnUse"
       id="clipPath21180">
      <path
         d="m 1951.35,3487.27 c 0,-423.63 -343.43,-767.06 -767.06,-767.06 -423.642,0 -767.063,343.43 -767.063,767.06 0,423.64 343.421,767.07 767.063,767.07 423.63,0 767.06,-343.43 767.06,-767.07"
         id="path21178" />
    </clipPath>
    <clipPath
       clipPathUnits="userSpaceOnUse"
       id="clipPath21230">
      <path
         d="m 3661.82,1512.73 c 0,-423.64 -343.42,-767.058 -767.06,-767.058 -423.63,0 -767.06,343.418 -767.06,767.058 0,423.63 343.43,767.06 767.06,767.06 423.64,0 767.06,-343.43 767.06,-767.06"
         id="path21228" />
    </clipPath>
    <clipPath
       clipPathUnits="userSpaceOnUse"
       id="clipPath21280">
      <path
         d="m 1951.35,1512.73 c 0,-423.64 -343.43,-767.058 -767.06,-767.058 -423.642,0 -767.063,343.418 -767.063,767.058 0,423.63 343.421,767.06 767.063,767.06 423.63,0 767.06,-343.43 767.06,-767.06"
         id="path21278" />
    </clipPath>
    <clipPath
       clipPathUnits="userSpaceOnUse"
       id="clipPath21330">
      <path
         d="m 7082.78,1512.73 c 0,-423.64 -343.43,-767.058 -767.06,-767.058 -423.64,0 -767.07,343.418 -767.07,767.058 0,423.63 343.43,767.06 767.07,767.06 423.63,0 767.06,-343.43 767.06,-767.06"
         id="path21328" />
    </clipPath>
    <clipPath
       clipPathUnits="userSpaceOnUse"
       id="clipPath21382">
      <path
         d="m 5372.3,1543.33 c 0,-423.63 -343.43,-767.06 -767.06,-767.06 -423.64,0 -767.06,343.43 -767.06,767.06 0,423.64 343.42,767.06 767.06,767.06 423.63,0 767.06,-343.42 767.06,-767.06"
         id="path21380" />
    </clipPath>
    <clipPath
       clipPathUnits="userSpaceOnUse"
       id="clipPath18822">
      <path
         d="m 4428.69,2436.21 c 0,-312.26 -253.15,-565.41 -565.41,-565.41 -312.26,0 -565.4,253.15 -565.4,565.41 0,312.26 253.14,565.41 565.4,565.41 312.26,0 565.41,-253.15 565.41,-565.41"
         id="path18820" />
    </clipPath>
    <clipPath
       clipPathUnits="userSpaceOnUse"
       id="clipPath18672">
      <path
         d="m 4435.19,4032.09 c 0,-312.27 -253.14,-565.41 -565.41,-565.41 -312.25,0 -565.4,253.14 -565.4,565.41 0,312.26 253.15,565.4 565.4,565.4 312.27,0 565.41,-253.14 565.41,-565.4"
         id="path18670" />
    </clipPath>
    <clipPath
       clipPathUnits="userSpaceOnUse"
       id="clipPath7959">
      <path
         d="m 5372.3,1543.33 c 0,-423.63 -343.43,-767.06 -767.06,-767.06 -423.64,0 -767.06,343.43 -767.06,767.06 0,423.64 343.42,767.06 767.06,767.06 423.63,0 767.06,-343.42 767.06,-767.06"
         id="path7957" />
    </clipPath>
    <clipPath
       clipPathUnits="userSpaceOnUse"
       id="clipPath11043">
      <path
         d="m 1699.07,2445.43 c 0,-312.25 -253.14,-565.4 -565.41,-565.4 -312.265,0 -565.402,253.15 -565.402,565.4 0,312.27 253.137,565.41 565.402,565.41 312.27,0 565.41,-253.14 565.41,-565.41"
         id="path11041" />
    </clipPath>
  </defs>
  <sodipodi:namedview
     id="namedview20978"
     pagecolor="#ffffff"
     bordercolor="#000000"
     borderopacity="0.25"
     inkscape:showpageshadow="2"
     inkscape:pageopacity="0.0"
     inkscape:pagecheckerboard="0"
     inkscape:deskcolor="#d1d1d1"
     showgrid="false"
     inkscape:zoom="0.50063158"
     inkscape:cx="-31.95963"
     inkscape:cy="318.59756"
     inkscape:window-width="1366"
     inkscape:window-height="836"
     inkscape:window-x="0"
     inkscape:window-y="0"
     inkscape:window-maximized="1"
     inkscape:current-layer="g20984">
    <inkscape:page
       x="0"
       y="0"
       id="page20982"
       width="667"
       height="666.66669" />
  </sodipodi:namedview>
  <g
     id="g20984"
     inkscape:groupmode="layer"
     inkscape:label="Page 1"
     transform="matrix(1.3333333,0,0,-1.3333333,0,666.66667)">
    <path
       d="M 499.68547,250.2156 C 499.68547,112.29786 387.87604,0.48400501 249.94946,0.48400501 112.0251,0.48400501 0.21521757,112.29786 0.21521757,250.2156 c 0,137.92657 111.80988243,249.73601 249.73424243,249.73601 137.92658,0 249.73601,-111.80944 249.73601,-249.73601"
       style="fill:#0e7496;fill-opacity:1;fill-rule:nonzero;stroke:none;stroke-width:0.44169"
       id="path11035" />
    <g
       id="g11037"
       transform="matrix(0.44169012,0,0,0.44169012,-250.77696,-829.90667)">
      <g
         id="g11039"
         clip-path="url(#clipPath11043)">
        <path
           d="m 1020.88,2926.69 c 0,0 79.42,107.46 220.14,35.76 154.29,-78.62 70.91,-248.09 70.91,-248.09 l -331.539,62.81 40.489,149.52"
           style="fill:#140a0a;fill-opacity:1;fill-rule:nonzero;stroke:none"
           id="path11045" />
        <path
           d="m 954.563,2713.53 c 0,0 -86.735,170.3 66.317,213.16 l 27.51,-91.34 -93.827,-121.82"
           style="fill:#140a0a;fill-opacity:1;fill-rule:nonzero;stroke:none"
           id="path11047" />
        <path
           d="m 1028.1,2634.93 c 0.96,-34.01 -25.84,-62.36 -59.85,-63.32 -34.016,-0.97 -62.363,25.83 -63.324,59.84 -0.961,34.01 25.828,62.37 59.844,63.33 34.011,0.96 62.37,-25.84 63.33,-59.85"
           style="fill:#f8a288;fill-opacity:1;fill-rule:nonzero;stroke:none"
           id="path11049" />
        <path
           d="m 933.039,2638.75 0.016,0.01 c 0.359,0.16 2.886,1.19 6.773,1.19 3.969,-0.01 9.356,-1.03 15.676,-5.27 6.309,-4.26 13.57,-11.84 20.855,-25.12 0.914,-1.66 3.008,-2.27 4.676,-1.36 1.664,0.92 2.278,3.01 1.363,4.68 -7.675,13.99 -15.613,22.49 -23.046,27.51 -7.426,5.02 -14.332,6.46 -19.524,6.44 -5.832,0 -9.48,-1.73 -9.805,-1.88 -1.71,-0.84 -2.421,-2.9 -1.585,-4.61 0.832,-1.71 2.89,-2.42 4.601,-1.59"
           style="fill:#da5e60;fill-opacity:1;fill-rule:nonzero;stroke:none"
           id="path11051" />
        <path
           d="m 1253.04,2633.19 c 0,-34.03 27.58,-61.61 61.61,-61.61 34.03,0 61.61,27.58 61.61,61.61 0,34.03 -27.58,61.61 -61.61,61.61 -34.03,0 -61.61,-27.58 -61.61,-61.61"
           style="fill:#f8a288;fill-opacity:1;fill-rule:nonzero;stroke:none"
           id="path11053" />
        <path
           d="m 1350.79,2645.97 c -0.32,0.14 -3.68,1.62 -9.04,1.63 -5.14,0.01 -12.11,-1.43 -19.57,-6.6 -7.46,-5.17 -15.37,-13.98 -22.83,-28.56 -0.87,-1.69 -0.2,-3.77 1.49,-4.64 1.69,-0.86 3.77,-0.19 4.63,1.5 7.1,13.84 14.33,21.67 20.64,26.04 6.31,4.36 11.73,5.36 15.64,5.37 2.04,0 3.66,-0.29 4.74,-0.56 l 1.19,-0.35 0.26,-0.1 h 0.01 c 1.73,-0.78 3.77,-0.02 4.56,1.72 0.78,1.73 0.01,3.77 -1.72,4.55"
           style="fill:#da5e60;fill-opacity:1;fill-rule:nonzero;stroke:none"
           id="path11055" />
        <path
           d="m 1219.62,2491.22 c 0,0 -34.74,-24.51 -66.39,-30.55 -31.65,-6.06 -62.43,12.31 -62.82,12.54 l -36.96,21.26 -15.14,-202.79 4.1,-3.37 c 53.66,-44.28 131.04,-44.81 185.3,-1.26 l 7.94,6.36 -16.03,197.81"
           style="fill:#f8a288;fill-opacity:1;fill-rule:nonzero;stroke:none"
           id="path11057" />
        <path
           d="m 1038.31,2515.8 c 0,0 34.52,-113 113.96,-111.75 65.3,1.03 75.83,111.75 75.83,111.75 h -189.79"
           style="fill:#140a0a;fill-opacity:1;fill-rule:nonzero;stroke:none"
           id="path11059" />
        <path
           d="m 1306.94,2740.45 c 0.35,-69.65 -9.29,-129.79 -19.01,-172.5 -9.51,-41.8 -46.28,-71.12 -84.83,-94.81 l -7.02,-4.32 c -40.78,-25.06 -74.5,-25.91 -116.16,-2.17 -42.01,23.95 -81.065,55.65 -90.318,100.41 -16.825,81.43 -19.075,171.68 -19.075,171.68 0,0 -23.652,188.38 157.793,185.88 181.44,-2.49 178.62,-184.17 178.62,-184.17"
           style="fill:#f8a288;fill-opacity:1;fill-rule:nonzero;stroke:none"
           id="path11061" />
        <path
           d="m 1075.14,2685.19 c 0,-8.11 -6.57,-14.68 -14.68,-14.68 -8.11,0 -14.68,6.57 -14.68,14.68 0,8.11 6.57,14.69 14.68,14.69 8.11,0 14.68,-6.58 14.68,-14.69"
           style="fill:#140a0a;fill-opacity:1;fill-rule:nonzero;stroke:none"
           id="path11063" />
        <path
           d="m 1219.21,2685.19 c 0,-8.11 -6.57,-14.68 -14.68,-14.68 -8.11,0 -14.69,6.57 -14.69,14.68 0,8.11 6.58,14.69 14.69,14.69 8.11,0 14.68,-6.58 14.68,-14.69"
           style="fill:#140a0a;fill-opacity:1;fill-rule:nonzero;stroke:none"
           id="path11065" />
        <path
           d="m 1115.73,2646.78 v -23.53 c 0,-0.91 0.37,-1.79 1.01,-2.43 0.64,-0.64 1.53,-1.01 2.43,-1.01 h 19.06 c 1.9,0 3.44,1.54 3.44,3.44 0,1.9 -1.54,3.44 -3.44,3.44 h -15.61 v 20.09 c 0,1.9 -1.55,3.44 -3.45,3.44 -1.9,0 -3.44,-1.54 -3.44,-3.44"
           style="fill:#da5e60;fill-opacity:1;fill-rule:nonzero;stroke:none"
           id="path11067" />
        <path
           d="m 1005.76,2747.25 95.93,8.65 c 0,0 -8.59,24.86 -47.38,20.83 -39.68,-4.13 -48.55,-29.48 -48.55,-29.48"
           style="fill:#040606;fill-opacity:1;fill-rule:nonzero;stroke:none"
           id="path11069" />
        <path
           d="m 1253.04,2747.25 -95.93,8.65 c 0,0 8.59,24.86 47.37,20.83 39.69,-4.13 48.56,-29.48 48.56,-29.48"
           style="fill:#040606;fill-opacity:1;fill-rule:nonzero;stroke:none"
           id="path11071" />
        <path
           d="m 1086.34,2589.72 h 94.64 c 0,0 -4.45,-28.99 -48.73,-28.99 -44.27,0 -45.91,28.99 -45.91,28.99"
           style="fill:#ffffff;fill-opacity:1;fill-rule:nonzero;stroke:none"
           id="path11073" />
        <path
           d="m 976.695,2649.6 c 0,0 7.114,230.75 4.157,237.31 0,0 -81.809,-75.59 -4.157,-237.31"
           style="fill:#140a0a;fill-opacity:1;fill-rule:nonzero;stroke:none"
           id="path11075" />
        <path
           d="m 1300.1,2651.24 -12.29,250.54 c 0,0 78.68,-78.16 12.29,-250.54"
           style="fill:#140a0a;fill-opacity:1;fill-rule:nonzero;stroke:none"
           id="path11077" />
        <path
           d="m 1052.62,2907.35 c 0,0 -56.288,-15.25 -54.37,-70.51 1.92,-55.28 -35.465,-109.59 -35.465,-109.59 l -17.074,55.22 c 0,0 -13.176,102.93 106.909,124.88"
           style="fill:#140a0a;fill-opacity:1;fill-rule:nonzero;stroke:none"
           id="path11079" />
        <path
           d="m 1038.42,2902.78 c 0,0 42.14,23.91 83.99,-28.7 35.73,-44.93 129.95,-91.2 185.73,-47.16 0,0 -35.53,127.17 -174.17,124.58 -138.626,-2.58 -95.55,-48.72 -95.55,-48.72"
           style="fill:#140a0a;fill-opacity:1;fill-rule:nonzero;stroke:none"
           id="path11081" />
        <path
           d="M 1612.08,1864.14 H 658.078 c 17.399,72.2 35.301,136.4 53,186.4 26.199,73.8 63.902,117 95.102,141.6 31.097,24.7 55.699,30.9 55.699,30.9 l 66.199,27.71 418.802,-0.4 61.4,-27.31 c 0,0 98.4,-24.79 150.8,-172.5 17.7,-50 35.6,-114.2 53,-186.4"
           style="fill:#f2568d;fill-opacity:1;fill-rule:nonzero;stroke:none"
           id="path11083" />
        <path
           d="m 1142.53,2338.96 204.39,-88.6 c 0,0 -210,-189.78 -418.822,0.42 l 214.432,88.18"
           style="fill:#f8a288;fill-opacity:1;fill-rule:nonzero;stroke:none"
           id="path11085" />
        <path
           d="m 920.695,2244.52 c 0.485,-0.56 19.356,-22.8 55.743,-45.06 36.362,-22.24 90.402,-44.47 160.542,-44.46 70.13,-0.01 124.41,22.11 161.03,44.23 36.64,22.13 55.77,44.25 56.25,44.8 l -14.68,12.65 -0.12,-0.14 c -1.74,-1.96 -20.51,-22.63 -54.74,-42.66 -34.25,-20.04 -83.81,-39.49 -147.74,-39.5 -65.98,0.01 -116.38,20.82 -150.429,41.62 -17.012,10.4 -29.895,20.79 -38.465,28.52 -4.285,3.87 -7.492,7.07 -9.598,9.26 -1.05,1.1 -1.828,1.95 -2.328,2.5 l -0.539,0.61 -0.113,0.13 -0.008,0.01 -14.805,-12.51"
           style="fill:#ffffff;fill-opacity:1;fill-rule:nonzero;stroke:none"
           id="path11087" />
      </g>
    </g>
  </g>
</svg>
