<?xml version="1.0" encoding="UTF-8" standalone="no"?>
<!-- Created with Inkscape (http://www.inkscape.org/) -->

<svg
   version="1.1"
   id="svg2"
   xml:space="preserve"
   width="816.37335"
   height="1145.2"
   viewBox="0 0 816.37335 1145.2"
   sodipodi:docname="post.svg"
   inkscape:version="1.1.2 (0a00cf5339, 2022-02-04)"
   xmlns:inkscape="http://www.inkscape.org/namespaces/inkscape"
   xmlns:sodipodi="http://sodipodi.sourceforge.net/DTD/sodipodi-0.dtd"
   xmlns="http://www.w3.org/2000/svg"
   xmlns:svg="http://www.w3.org/2000/svg"><defs
     id="defs6"><clipPath
       clipPathUnits="userSpaceOnUse"
       id="clipPath70"><path
         d="m 5174.57,4419.53 c 0,101.3 -203.24,165.14 -679.58,213.47 -383.84,38.95 -892.96,60.39 -1433.58,60.39 -540.6,0 -1049.73,-21.44 -1433.57,-60.39 -476.34,-48.33 -679.574,-112.17 -679.574,-213.47 43.07,-168.66 50.882,-473.99 23.234,-643.98 l -23.234,-142.87 c 0,-101.3 203.234,-165.13 679.574,-213.47 383.84,-38.95 892.97,-60.39 1433.57,-60.39 540.62,0 1049.74,21.44 1433.58,60.39 476.34,48.34 679.58,112.17 679.58,213.47 l -23.23,142.87 c -27.66,169.99 -19.84,475.32 23.23,643.98 z"
         id="path68" /></clipPath><clipPath
       clipPathUnits="userSpaceOnUse"
       id="clipPath248"><path
         d="M 6122.83,0.0117188 H 4184.62 V 1938.22 h 1938.21 z"
         id="path246" /></clipPath><clipPath
       clipPathUnits="userSpaceOnUse"
       id="clipPath258"><path
         d="M 2162.68,6650.76 H 0.00390625 V 8588.98 H 2162.68 Z"
         id="path256" /></clipPath></defs><sodipodi:namedview
     id="namedview4"
     pagecolor="#ffffff"
     bordercolor="#000000"
     borderopacity="0.25"
     inkscape:pageshadow="2"
     inkscape:pageopacity="0.0"
     inkscape:pagecheckerboard="0"
     showgrid="false"
     inkscape:zoom="0.81732453"
     inkscape:cx="543.84762"
     inkscape:cy="688.22111"
     inkscape:window-width="1292"
     inkscape:window-height="704"
     inkscape:window-x="0"
     inkscape:window-y="0"
     inkscape:window-maximized="1"
     inkscape:current-layer="g10" /><g
     id="g8"
     inkscape:groupmode="layer"
     inkscape:label="ink_ext_XXXXXX"
     transform="matrix(1.3333333,0,0,-1.3333333,0,1145.2)"><g
       id="g10"
       transform="scale(0.1)"><path
         d="M 6122.83,0.0117188 H 0.00390625 V 8588.98 H 6122.83 V 0.0117188"
         style="fill:#0e4696;fill-opacity:1;fill-rule:nonzero;stroke:none"
         id="path12" /><path
         d="M 3233.98,7620.36 C 2306.95,7408.27 1524.27,6733.28 937.547,5938.32 662.762,5566 388.938,5110 428.762,4616.6 c 46.035,-570.38 444.777,-913.32 949.898,-1027.82 256.39,-58.13 464.22,-101.02 673.08,-281.73 188,-162.68 352.33,-368.87 580.32,-473.93 547.11,-252.11 1187.39,-36.81 1661.69,284.73 464.15,314.66 874.97,739.57 1181.6,1216.2 318.63,495.26 305.09,951.17 -104.83,1390.54 -211.16,226.33 -365.24,432.01 -478.98,718.76 -106.11,267.51 -188.62,549.37 -378.48,766.09 -311.24,355.26 -832.12,513.17 -1279.08,410.92"
         style="fill:#0e7496;fill-opacity:1;fill-rule:nonzero;stroke:none"
         id="path14" /><path
         d="M 5036.66,2907.86 H 1086.17 l 137.05,-385.74 -137.05,-385.76 h 1975.25 1975.24 l -137.04,385.76 137.04,385.74"
         style="fill:#0e7496;fill-opacity:1;fill-rule:nonzero;stroke:none"
         id="path34" /><path
         d="m 5035.25,2135.87 -72.65,191.4 -71.7,191.75 c -0.74,1.97 -0.73,4.04 -0.1,5.89 l 0.1,0.3 65.36,194 c 21.64,64.71 43.66,129.29 65.98,193.77 l 14.42,-20.43 -493.81,-4.97 -246.91,-2.47 -246.9,-1 -987.62,-3.22 -987.62,3.26 -246.91,1.06 -246.91,2.46 -493.81,4.93 14.37,20.37 33.3,-96.79 32.68,-96.99 65.37,-194 0.1,-0.28 c 0.67,-1.99 0.59,-4.05 -0.1,-5.88 l -71.67,-191.75 -72.63,-191.41 c -0.28,-0.79 -1.14,-1.2 -1.92,-0.91 -0.77,0.27 -1.17,1.14 -0.91,1.91 l 136.84,385.81 v -1.14 l -137.25,385.66 c -0.36,1.01 0.16,2.12 1.17,2.48 0.21,0.07 0.44,0.11 0.65,0.11 l 1975.25,1.06 1975.24,-1.05 c 1.07,0 1.94,-0.87 1.94,-1.94 0,-0.23 -0.04,-0.45 -0.11,-0.66 l -137.25,-385.66 v 1.14 l 136.83,-385.81 c 0.28,-0.78 -0.12,-1.64 -0.9,-1.91 -0.78,-0.28 -1.64,0.14 -1.92,0.91"
         style="fill:#ffffff;fill-opacity:1;fill-rule:nonzero;stroke:none"
         id="path36" /><path
         d="m 4642.43,6196.83 c -357.99,467.64 -904.6,819.61 -1581,819.61 -676.4,0 -1223.04,-351.95 -1581.1,-819.61 -304.75,-398.03 -472.7,-968.69 -467.6,-1717.19 h 4097.3 c 5.2,748.5 -162.87,1319.14 -467.6,1717.19"
         style="fill:#af4fb6;fill-opacity:1;fill-rule:nonzero;stroke:none"
         id="path46" /><path
         d="m 3494.42,6823.05 c -38.01,-64 -100,-72.1 -156.1,-50 38.8,-80 1.89,-177.59 -82.4,-201.9 -58.31,-16.79 -103.9,8.61 -133,51.3 -28.4,-72.89 -108.4,-108.6 -179.6,-71.5 -52.5,27.3 -71.6,76.41 -68.9,127.81 -59.8,-34.11 -136,-18.81 -174.9,50.6 -33.2,59.69 -20.1,116.59 15,158.49 -42.4,8.3 -76.5,37.61 -94,76.6 139.79,33.8 287,52.01 440.9,52.01 153.1,0 299.59,-18.01 438.69,-51.51 21.41,-41.9 22.31,-94.69 -5.69,-141.9"
         style="fill:#5a0160;fill-opacity:1;fill-rule:nonzero;stroke:none"
         id="path48" /><path
         d="m 3485.29,7177.95 c 75.41,26.07 132.66,88.24 113.75,180.18 -19.29,93.81 -107.85,141.98 -192.13,122.51 18.26,56.02 9.42,116.48 -45.18,163.14 -72.13,61.65 -174.36,45.72 -228.34,-23.32 -19.3,50.21 -58.8,89.22 -122.76,96.46 -99.76,11.28 -180.06,-67.26 -178.08,-161 -49.77,28.54 -109.07,32.74 -165.04,-8.48 -79.02,-58.2 -83.78,-162.51 -27.1,-230.55 -55.52,-8.61 -103.69,-41.09 -122.28,-106.13 -26.82,-93.87 32.65,-184.93 123.29,-201.63 -42.49,-47.53 -58.44,-112.01 -18.07,-179.59 46.96,-78.61 139.13,-95.94 211.53,-57.44 -3.29,-58.19 19.97,-113.86 83.33,-144.75 86.32,-42.08 183.01,-1.56 217.44,81.05 35.24,-48.48 90.34,-77.21 160.97,-58.19 101.98,27.47 146.67,138.07 99.79,228.75 67.76,-25.07 142.79,-15.8 188.84,56.73 61.54,96.93 7.67,215.3 -99.96,242.26"
         style="fill:#ffffff;fill-opacity:1;fill-rule:nonzero;stroke:none"
         id="path50" /><path
         d="m 2998.47,7231.64 c -20.92,-11.08 -46.86,-10.42 -69.82,-1.86 -23.06,8.76 -43.08,25.69 -56.28,47.05 -13.39,21.32 -19.28,47.32 -16.51,71.89 3.13,24.46 14.95,47.9 34.79,60.77 l 0.56,0.36 c 0.66,0.43 1.55,0.24 1.98,-0.42 0.29,-0.45 0.29,-1.01 0.05,-1.45 -9.67,-17.91 -14.1,-38.28 -13.42,-58.41 1.05,-20.13 7.2,-39.99 18.04,-56.95 10.49,-17.13 25.18,-31.82 42.67,-41.93 17.51,-10.02 37.54,-15.75 57.89,-16.05 0.79,-0.01 1.42,-0.66 1.4,-1.45 0,-0.53 -0.31,-1 -0.75,-1.24 l -0.6,-0.31"
         style="fill:#000000;fill-opacity:1;fill-rule:nonzero;stroke:none"
         id="path52" /><path
         d="m 3352,7284.16 c 17.58,-15.85 25.85,-40.44 25.68,-64.94 -0.32,-24.68 -9.36,-49.28 -24.9,-69.01 -15.44,-19.89 -37.85,-34.33 -61.87,-40.15 -24.05,-5.44 -50.13,-2.39 -69.02,11.85 l -0.53,0.4 c -0.63,0.47 -0.76,1.36 -0.28,1.99 0.32,0.43 0.85,0.63 1.35,0.56 20.13,-2.95 40.78,-0.13 59.47,7.41 18.55,7.89 35.09,20.48 47.31,36.47 12.49,15.73 21.25,34.57 24.75,54.46 3.41,19.89 1.93,40.66 -4.76,59.89 -0.26,0.74 0.13,1.56 0.88,1.81 0.5,0.18 1.04,0.05 1.41,-0.28 l 0.51,-0.46"
         style="fill:#000000;fill-opacity:1;fill-rule:nonzero;stroke:none"
         id="path54" /><path
         d="m 2891.55,6973.3 c -22.33,-7.84 -47.88,-3.33 -69.31,8.54 -21.51,12.09 -38.79,31.81 -48.67,54.9 -10.06,23.07 -12.02,49.66 -5.64,73.54 6.74,23.72 21.91,45.15 43.44,54.92 l 0.61,0.28 c 0.72,0.32 1.56,0 1.89,-0.71 0.22,-0.49 0.14,-1.04 -0.16,-1.45 -12.22,-16.26 -19.64,-35.75 -21.95,-55.76 -1.96,-20.07 1.17,-40.62 9.37,-58.99 7.83,-18.5 20.18,-35.22 35.96,-47.82 15.83,-12.51 34.78,-21.14 54.86,-24.47 0.78,-0.13 1.3,-0.87 1.17,-1.64 -0.09,-0.53 -0.45,-0.95 -0.93,-1.11 l -0.64,-0.23"
         style="fill:#000000;fill-opacity:1;fill-rule:nonzero;stroke:none"
         id="path56" /><path
         d="m 3232.35,7356.15 c 1.48,20.31 -2.47,40.76 -10.92,59.07 -8.54,18.31 -21.89,34.23 -38.04,46.18 -15.95,12.28 -35.19,20.15 -55.15,22.95 -20,2.44 -40.67,-0.19 -59.36,-8.26 -0.72,-0.31 -1.56,0.02 -1.88,0.74 -0.21,0.5 -0.12,1.05 0.19,1.45 l 0.41,0.53 c 14.56,18.64 38.94,28.35 63.58,29.34 24.72,0.61 50.1,-7.54 70.17,-22.73 20.13,-15.03 35.24,-36.45 41.95,-60.19 6.51,-23.62 4.9,-49.52 -7.96,-69.38 l -0.37,-0.57 c -0.43,-0.66 -1.31,-0.85 -1.97,-0.42 -0.45,0.29 -0.68,0.79 -0.65,1.29"
         style="fill:#000000;fill-opacity:1;fill-rule:nonzero;stroke:none"
         id="path58" /><path
         d="m 3278.3,6995.68 c 7.85,-22.34 3.35,-47.89 -8.52,-69.32 -12.09,-21.51 -31.79,-38.79 -54.89,-48.68 -23.07,-10.07 -49.66,-12.04 -73.54,-5.66 -23.72,6.74 -45.15,21.9 -54.94,43.43 l -0.27,0.61 c -0.32,0.71 -0.01,1.56 0.71,1.89 0.49,0.22 1.05,0.14 1.45,-0.16 16.27,-12.22 35.76,-19.63 55.77,-21.94 20.06,-1.96 40.61,1.18 58.98,9.38 18.51,7.84 35.22,20.19 47.82,35.98 12.5,15.83 21.13,34.78 24.46,54.87 0.13,0.77 0.86,1.29 1.63,1.17 0.54,-0.09 0.95,-0.46 1.11,-0.93 l 0.23,-0.64"
         style="fill:#000000;fill-opacity:1;fill-rule:nonzero;stroke:none"
         id="path60" /><path
         d="m 5174.57,4419.53 c 0,101.3 -203.24,165.14 -679.58,213.47 -383.84,38.95 -892.96,60.39 -1433.58,60.39 -540.6,0 -1049.73,-21.44 -1433.57,-60.39 -476.34,-48.33 -679.574,-112.17 -679.574,-213.47 43.07,-168.66 50.882,-473.99 23.234,-643.98 l -23.234,-142.87 c 0,-101.3 203.234,-165.13 679.574,-213.47 383.84,-38.95 892.97,-60.39 1433.57,-60.39 540.62,0 1049.74,21.44 1433.58,60.39 476.34,48.34 679.58,112.17 679.58,213.47 l -23.23,142.87 c -27.66,169.99 -19.84,475.32 23.23,643.98"
         style="fill:#5a0160;fill-opacity:1;fill-rule:nonzero;stroke:none"
         id="path62" /><g
         id="g64"
         style="fill:#af4fb6;fill-opacity:1"><g
           id="g66"
           clip-path="url(#clipPath70)"
           style="fill:#af4fb6;fill-opacity:1"><path
             d="m 1279.32,3432.4 c -7.11,14.7 -10.85,29.45 -13.39,44.22 -1.6,7.38 -1.92,14.77 -2.89,22.17 -0.51,7.39 -0.65,14.78 -0.95,22.17 0.3,7.4 0.33,14.8 0.87,22.19 0.9,7.39 1.23,14.79 2.77,22.19 2.46,14.78 6.1,29.56 13.1,44.31 l 0.18,0.39 c 0.23,0.47 0.79,0.68 1.27,0.45 0.34,-0.16 0.54,-0.49 0.54,-0.85 l 1.25,-88.61 -0.74,-88.61 c -0.01,-0.53 -0.44,-0.95 -0.97,-0.95 -0.37,0 -0.69,0.23 -0.85,0.54 l -0.19,0.39"
             style="fill:#af4fb6;fill-opacity:1;fill-rule:nonzero;stroke:none"
             id="path72" /><path
             d="m 1489.63,3577.77 1.54,-88.6 -0.45,-88.63 c 0,-0.52 -0.43,-0.94 -0.96,-0.94 -0.37,0 -0.7,0.21 -0.85,0.53 l -0.19,0.38 c -7.12,14.64 -10.89,29.38 -13.48,44.15 -1.61,7.37 -2.01,14.76 -2.98,22.15 -0.6,7.4 -0.7,14.79 -1.08,22.19 0.24,7.4 0.32,14.81 0.76,22.21 0.9,7.4 1.16,14.8 2.7,22.2 2.39,14.8 6,29.59 12.98,44.36 l 0.19,0.39 c 0.22,0.48 0.79,0.67 1.27,0.45 0.34,-0.16 0.54,-0.49 0.55,-0.84"
             style="fill:#af4fb6;fill-opacity:1;fill-rule:nonzero;stroke:none"
             id="path74" /><path
             d="m 1698.13,3377.68 c -7.2,14.61 -11.03,29.34 -13.65,44.08 -1.64,7.38 -2,14.77 -3.01,22.15 -0.55,7.4 -0.75,14.8 -1.08,22.2 0.26,7.4 0.25,14.8 0.75,22.21 0.85,7.41 1.14,14.81 2.65,22.21 2.37,14.82 5.92,29.63 12.83,44.41 l 0.18,0.39 c 0.23,0.48 0.8,0.68 1.27,0.46 0.35,-0.16 0.55,-0.49 0.56,-0.84 l 1.74,-88.61 -0.25,-88.62 c 0,-0.53 -0.43,-0.96 -0.95,-0.95 -0.38,0 -0.71,0.22 -0.86,0.53 l -0.18,0.38"
             style="fill:#af4fb6;fill-opacity:1;fill-rule:nonzero;stroke:none"
             id="path76" /><path
             d="m 1907.53,3360.35 c -7.24,14.55 -11.11,29.25 -13.77,43.99 -1.66,7.37 -2.05,14.76 -3.08,22.15 -0.57,7.39 -0.78,14.8 -1.14,22.2 0.24,7.41 0.21,14.82 0.69,22.23 0.83,7.43 1.1,14.83 2.58,22.25 2.33,14.83 5.84,29.66 12.71,44.45 l 0.19,0.38 c 0.22,0.48 0.78,0.7 1.26,0.47 0.34,-0.15 0.55,-0.49 0.56,-0.85 l 1.99,-88.58 v -88.62 c 0,-0.53 -0.43,-0.96 -0.95,-0.96 -0.38,0 -0.71,0.21 -0.86,0.53 l -0.18,0.36"
             style="fill:#af4fb6;fill-opacity:1;fill-rule:nonzero;stroke:none"
             id="path78" /><path
             d="m 2116.93,3347.15 c -7.27,14.43 -11.17,29.09 -13.86,43.82 -1.68,7.36 -2.09,14.76 -3.13,22.15 -0.59,7.4 -0.82,14.82 -1.2,22.23 0.23,7.43 0.18,14.85 0.64,22.28 0.82,7.44 1.07,14.87 2.53,22.3 2.3,14.86 5.78,29.71 12.61,44.51 l 0.18,0.38 c 0.22,0.48 0.79,0.68 1.27,0.47 0.34,-0.17 0.55,-0.5 0.56,-0.85 l 2.19,-88.57 0.2,-88.62 c 0,-0.53 -0.43,-0.96 -0.96,-0.97 -0.37,0 -0.7,0.21 -0.86,0.53 l -0.17,0.34"
             style="fill:#af4fb6;fill-opacity:1;fill-rule:nonzero;stroke:none"
             id="path80" /><path
             d="m 2326.74,3337.15 c -8.55,14.4 -12.31,29.34 -15.24,44.1 -1.75,7.39 -2.19,14.8 -3.25,22.2 -0.61,7.41 -0.84,14.82 -1.2,22.22 0.24,7.41 0.23,14.82 0.71,22.23 0.87,7.4 1.14,14.8 2.67,22.21 2.39,14.82 6.02,29.62 13,44.42 l 0.18,0.4 c 0.23,0.48 0.79,0.67 1.27,0.45 0.34,-0.16 0.54,-0.49 0.55,-0.84 l 1.61,-88.63 0.22,-44.31 c 0.27,-14.73 0.17,-29.63 1.45,-44.15 0.05,-0.54 -0.35,-1.02 -0.89,-1.07 -0.38,-0.03 -0.73,0.17 -0.92,0.48 l -0.16,0.29"
             style="fill:#af4fb6;fill-opacity:1;fill-rule:nonzero;stroke:none"
             id="path82" /><path
             d="m 2535.64,3337.15 c -8.47,13.81 -12.25,28.15 -15.16,42.31 -1.75,7.09 -2.18,14.21 -3.24,21.31 -0.6,7.11 -0.83,14.22 -1.19,21.32 0.24,7.12 0.22,14.23 0.71,21.33 0.86,7.11 1.14,14.21 2.67,21.33 2.39,14.21 6.02,28.43 12.99,42.63 l 0.2,0.41 c 0.23,0.47 0.81,0.66 1.27,0.43 0.34,-0.16 0.53,-0.49 0.54,-0.83 l 1.6,-85.06 0.21,-42.52 c 0.25,-14.13 0.17,-28.43 1.37,-42.37 0.05,-0.53 -0.35,-1.01 -0.88,-1.05 -0.38,-0.04 -0.73,0.16 -0.91,0.46 l -0.18,0.3"
             style="fill:#af4fb6;fill-opacity:1;fill-rule:nonzero;stroke:none"
             id="path84" /><path
             d="m 2744.53,3337.15 c -8.45,13.42 -12.22,27.39 -15.12,41.16 -1.74,6.9 -2.17,13.83 -3.23,20.73 -0.6,6.92 -0.83,13.84 -1.19,20.75 0.24,6.93 0.23,13.84 0.71,20.75 0.86,6.92 1.14,13.83 2.66,20.76 2.39,13.82 6,27.66 12.97,41.49 l 0.21,0.41 c 0.23,0.47 0.8,0.65 1.27,0.42 0.32,-0.16 0.51,-0.49 0.51,-0.82 l 1.66,-82.76 0.19,-41.38 c 0.24,-13.75 0.15,-27.66 1.35,-41.21 0.04,-0.54 -0.36,-1.01 -0.89,-1.06 -0.37,-0.03 -0.72,0.15 -0.91,0.45 l -0.19,0.31"
             style="fill:#af4fb6;fill-opacity:1;fill-rule:nonzero;stroke:none"
             id="path86" /><path
             d="m 2954.43,3337.29 c -5.44,13.27 -7.71,27.02 -9.59,40.59 -1.78,13.61 -2.77,27.23 -2.93,40.86 -0.24,13.62 0.43,27.25 1.77,40.88 1.35,13.63 3.45,27.25 7.54,40.87 4.24,-13.58 6.49,-27.16 8.06,-40.75 1.57,-13.58 2.49,-27.16 2.62,-40.74 0.21,-27.22 -1.7,-54.22 -7.47,-81.71"
             style="fill:#af4fb6;fill-opacity:1;fill-rule:nonzero;stroke:none"
             id="path88" /><path
             d="m 4835.62,3608.07 c 7.04,-14.75 10.7,-29.54 13.15,-44.32 1.56,-7.41 1.83,-14.8 2.76,-22.2 0.47,-7.39 0.58,-14.8 0.83,-22.2 -0.35,-7.39 -0.42,-14.79 -1,-22.19 -0.94,-7.39 -1.3,-14.78 -2.9,-22.16 -2.53,-14.78 -6.26,-29.53 -13.34,-44.24 l -0.18,-0.39 c -0.23,-0.47 -0.8,-0.68 -1.27,-0.44 -0.34,0.15 -0.54,0.5 -0.55,0.85 l -0.74,88.65 1.24,88.64 c 0.01,0.53 0.45,0.95 0.97,0.94 0.38,-0.01 0.7,-0.22 0.85,-0.54 l 0.18,-0.4"
             style="fill:#af4fb6;fill-opacity:1;fill-rule:nonzero;stroke:none"
             id="path90" /><path
             d="m 4626.82,3576.73 c 7,-14.77 10.61,-29.57 13.02,-44.36 1.54,-7.4 1.8,-14.8 2.71,-22.2 0.45,-7.4 0.53,-14.8 0.77,-22.2 -0.37,-7.4 -0.47,-14.79 -1.07,-22.18 -0.96,-7.39 -1.35,-14.79 -2.97,-22.16 -2.57,-14.77 -6.33,-29.5 -13.45,-44.17 l -0.19,-0.38 c -0.23,-0.47 -0.8,-0.67 -1.28,-0.44 -0.34,0.17 -0.53,0.5 -0.53,0.86 l -0.5,88.61 1.49,88.61 c 0.01,0.52 0.45,0.94 0.98,0.93 0.37,0 0.69,-0.22 0.84,-0.53 l 0.18,-0.39"
             style="fill:#af4fb6;fill-opacity:1;fill-rule:nonzero;stroke:none"
             id="path92" /><path
             d="m 4417.93,3554.16 c 6.95,-14.79 10.52,-29.6 12.89,-44.41 1.51,-7.41 1.76,-14.81 2.63,-22.22 0.43,-7.41 0.5,-14.81 0.72,-22.21 -0.4,-7.4 -0.51,-14.8 -1.14,-22.19 -0.98,-7.39 -1.39,-14.78 -3.01,-22.16 -2.63,-14.74 -6.44,-29.47 -13.6,-44.08 l -0.18,-0.37 c -0.23,-0.48 -0.8,-0.67 -1.28,-0.44 -0.33,0.17 -0.53,0.51 -0.54,0.86 l -0.24,88.61 1.75,88.61 c 0.01,0.52 0.44,0.94 0.97,0.93 0.37,-0.01 0.7,-0.23 0.84,-0.54 l 0.19,-0.39"
             style="fill:#af4fb6;fill-opacity:1;fill-rule:nonzero;stroke:none"
             id="path94" /><path
             d="m 4208.92,3537.1 c 6.92,-14.79 10.44,-29.63 12.77,-44.47 1.5,-7.42 1.72,-14.84 2.58,-22.26 0.41,-7.42 0.44,-14.84 0.64,-22.26 -0.41,-7.4 -0.55,-14.81 -1.19,-22.21 -1.01,-7.4 -1.44,-14.8 -3.09,-22.16 -2.66,-14.75 -6.51,-29.46 -13.71,-43.99 l -0.17,-0.35 c -0.24,-0.48 -0.81,-0.67 -1.29,-0.43 -0.34,0.17 -0.53,0.51 -0.53,0.86 v 88.65 l 1.99,88.62 c 0.02,0.53 0.45,0.94 0.98,0.93 0.38,-0.01 0.69,-0.23 0.85,-0.54 l 0.17,-0.39"
             style="fill:#af4fb6;fill-opacity:1;fill-rule:nonzero;stroke:none"
             id="path96" /><path
             d="m 3999.93,3523.98 c 6.87,-14.79 10.37,-29.66 12.66,-44.53 1.48,-7.44 1.68,-14.86 2.52,-22.3 0.4,-7.44 0.42,-14.87 0.6,-22.3 -0.43,-7.41 -0.59,-14.83 -1.24,-22.24 -1.03,-7.39 -1.47,-14.79 -3.14,-22.14 -2.7,-14.73 -6.59,-29.39 -13.8,-43.78 l -0.17,-0.34 c -0.24,-0.47 -0.82,-0.66 -1.3,-0.43 -0.34,0.18 -0.54,0.52 -0.54,0.87 l 0.21,88.63 2.2,88.56 c 0.01,0.53 0.45,0.95 0.97,0.94 0.37,-0.01 0.7,-0.24 0.84,-0.56 l 0.19,-0.38"
             style="fill:#af4fb6;fill-opacity:1;fill-rule:nonzero;stroke:none"
             id="path98" /><path
             d="m 3791.02,3514.14 c 7.02,-14.77 10.67,-29.54 13.05,-44.32 1.54,-7.39 1.78,-14.77 2.67,-22.17 0.42,-7.39 0.47,-14.77 0.66,-22.17 -0.41,-7.39 -0.57,-14.78 -1.24,-22.16 -1.04,-7.39 -1.51,-14.79 -3.23,-22.16 -2.93,-14.72 -6.68,-29.61 -15.12,-44.01 l -0.17,-0.29 c -0.26,-0.46 -0.87,-0.61 -1.32,-0.34 -0.34,0.2 -0.51,0.56 -0.48,0.92 1.21,14.51 1.12,29.36 1.37,44.06 l 0.21,44.21 1.6,88.44 c 0.01,0.52 0.45,0.93 0.98,0.92 0.37,0 0.68,-0.22 0.84,-0.53 l 0.18,-0.4"
             style="fill:#af4fb6;fill-opacity:1;fill-rule:nonzero;stroke:none"
             id="path100" /><path
             d="m 3582.03,3507.12 c 7.02,-14.18 10.66,-28.37 13.06,-42.56 1.53,-7.1 1.77,-14.19 2.66,-21.29 0.42,-7.1 0.49,-14.19 0.68,-21.3 -0.41,-7.09 -0.56,-14.19 -1.23,-21.29 -1.02,-7.09 -1.5,-14.19 -3.22,-21.28 -2.91,-14.13 -6.65,-28.45 -15.07,-42.25 l -0.17,-0.3 c -0.29,-0.46 -0.88,-0.6 -1.34,-0.32 -0.32,0.2 -0.5,0.56 -0.47,0.91 1.2,13.92 1.1,28.19 1.35,42.3 l 0.16,42.46 1.59,84.93 c 0.01,0.52 0.44,0.93 0.96,0.92 0.36,0 0.68,-0.21 0.83,-0.52 l 0.21,-0.41"
             style="fill:#af4fb6;fill-opacity:1;fill-rule:nonzero;stroke:none"
             id="path102" /><path
             d="m 3373.12,3502.66 c 7.02,-13.82 10.67,-27.63 13.05,-41.45 1.54,-6.92 1.78,-13.83 2.67,-20.74 0.42,-6.92 0.47,-13.83 0.66,-20.75 -0.41,-6.9 -0.57,-13.82 -1.24,-20.73 -1.03,-6.9 -1.51,-13.83 -3.23,-20.72 -2.93,-13.76 -6.69,-27.72 -15.12,-41.12 l -0.19,-0.31 c -0.28,-0.46 -0.87,-0.59 -1.33,-0.3 -0.33,0.2 -0.48,0.56 -0.45,0.91 1.2,13.54 1.12,27.44 1.37,41.18 l 0.21,41.35 1.6,82.68 c 0.01,0.53 0.45,0.94 0.97,0.93 0.36,-0.01 0.67,-0.21 0.83,-0.52 l 0.2,-0.41"
             style="fill:#af4fb6;fill-opacity:1;fill-rule:nonzero;stroke:none"
             id="path104" /><path
             d="m 3163.12,3500.43 c 4.08,-13.62 6.19,-27.23 7.57,-40.85 1.37,-13.63 2.03,-27.25 1.85,-40.86 -0.11,-13.63 -1.11,-27.25 -2.86,-40.86 -1.88,-13.56 -4.13,-27.33 -9.65,-40.57 -5.74,27.48 -7.72,54.45 -7.48,81.66 0.14,13.58 1.03,27.15 2.59,40.73 1.57,13.59 3.79,27.16 7.98,40.75"
             style="fill:#af4fb6;fill-opacity:1;fill-rule:nonzero;stroke:none"
             id="path106" /><path
             d="m 5044.62,3626.44 c 7.06,-11.85 10.74,-23.74 13.22,-35.61 2.68,-11.89 3.67,-23.77 3.67,-35.66 -0.08,-11.88 -1.1,-23.77 -3.83,-35.64 -2.51,-11.87 -6.21,-23.73 -13.26,-35.57 l -0.25,-0.44 c -0.27,-0.44 -0.84,-0.58 -1.29,-0.32 -0.28,0.17 -0.44,0.47 -0.45,0.77 -0.83,23.75 -0.58,47.49 -0.91,71.24 0.39,23.74 0.21,47.48 1.09,71.23 0.02,0.52 0.46,0.92 0.98,0.9 0.32,-0.01 0.61,-0.2 0.76,-0.45 l 0.27,-0.45"
             style="fill:#af4fb6;fill-opacity:1;fill-rule:nonzero;stroke:none"
             id="path108" /><path
             d="m 1080.24,3626.44 c 0.9,-23.75 0.71,-47.49 1.1,-71.23 -0.33,-23.75 -0.08,-47.49 -0.9,-71.24 -0.02,-0.52 -0.46,-0.92 -0.97,-0.9 -0.33,0.01 -0.62,0.19 -0.77,0.45 l -0.27,0.44 c -7.05,11.84 -10.74,23.7 -13.26,35.57 -2.72,11.87 -3.74,23.76 -3.82,35.64 0,11.89 1,23.77 3.68,35.66 2.47,11.87 6.15,23.76 13.21,35.61 l 0.26,0.44 c 0.27,0.45 0.84,0.6 1.29,0.33 0.28,-0.17 0.44,-0.47 0.45,-0.77"
             style="fill:#af4fb6;fill-opacity:1;fill-rule:nonzero;stroke:none"
             id="path110" /><path
             d="m 1319.78,4632.34 c 15.08,-40.05 23.28,-82.07 31.58,-123.83 3.31,-20.96 6.87,-41.98 9.75,-63.01 2.81,-21.04 5.32,-42.15 7.4,-63.24 2.22,-21.09 4.43,-42.21 5.62,-63.36 1.46,-21.14 3.01,-42.29 4.08,-63.44 1.13,-21.17 1.74,-42.34 2.24,-63.52 0.52,-21.17 1.14,-42.35 1.24,-63.55 -0.1,-21.18 -0.22,-42.37 -0.73,-63.56 -0.42,-21.19 -0.61,-42.4 -1.85,-63.6 -2.2,-42.37 -4.79,-84.86 -9.87,-127.22 -3.01,-21.24 -5.05,-42.51 -9.53,-63.6 l -11.99,-62.37 c -8.63,-41.31 -17.15,-82.66 -27.91,-123.79 l -0.05,-0.19 c -0.21,-0.79 -1.03,-1.27 -1.82,-1.07 -0.74,0.2 -1.2,0.9 -1.11,1.63 l 15.2,125.54 c 4.87,41.92 10.93,83.54 13.7,125.55 5.38,84.03 6.5,168.33 5.98,252.56 -0.18,84.24 -2.24,168.5 -6.81,252.62 -5,83.99 -10.53,168.45 -28.04,250.74 -0.17,0.81 0.34,1.61 1.15,1.78 0.74,0.16 1.46,-0.25 1.72,-0.94 l 0.05,-0.13"
             style="fill:#af4fb6;fill-opacity:1;fill-rule:nonzero;stroke:none"
             id="path112" /><path
             d="m 1555.42,4668.73 c 14.78,-40.97 21.04,-83.88 28.18,-126.3 6.08,-42.58 11.17,-85.29 14.53,-128.03 l 2.79,-32.07 1.93,-32.08 c 1.27,-21.4 2.49,-42.8 3.45,-64.2 1.68,-42.82 2.36,-85.64 2.94,-128.49 -0.32,-42.85 -0.58,-85.7 -2.13,-128.58 -0.95,-21.43 -1.91,-42.87 -3.27,-64.34 -0.7,-10.73 -1.09,-21.44 -2.05,-32.18 l -3.02,-32.22 c -0.89,-10.7 -2.35,-21.54 -3.59,-32.31 l -1.93,-16.17 c -0.75,-5.39 -1.89,-10.76 -2.81,-16.13 -4.11,-21.61 -6.87,-42.21 -10.53,-63.37 -7.48,-42 -14.83,-84.07 -24.45,-126.02 l -0.05,-0.19 c -0.18,-0.81 -0.98,-1.31 -1.78,-1.12 -0.75,0.16 -1.23,0.86 -1.16,1.59 l 11.72,127.57 c 3.45,42.62 9.3,84.81 11.04,127.43 4.02,85.21 4.51,170.6 4.03,255.93 -0.14,85.34 -1.54,170.69 -4.76,255.97 -1.52,42.65 -3.75,85.26 -6.75,127.81 -3.5,42.44 -6.26,85.24 -15.24,126.79 -0.18,0.81 0.33,1.61 1.14,1.79 0.75,0.16 1.48,-0.27 1.73,-0.96 l 0.04,-0.12"
             style="fill:#af4fb6;fill-opacity:1;fill-rule:nonzero;stroke:none"
             id="path114" /><path
             d="m 1782.95,4686.93 7.88,-25.92 c 2.18,-8.71 3.85,-17.52 5.8,-26.32 4.04,-17.61 6.34,-35.27 9.36,-52.99 5.49,-35.39 9.24,-70.93 12.86,-106.45 6.44,-71.07 10.5,-142.25 12.38,-213.45 0.5,-35.6 1.78,-71.21 1.37,-106.83 -0.23,-35.62 -0.68,-71.24 -1.61,-106.89 -3.03,-71.54 -5.41,-141.9 -18.14,-215.08 l 0.15,1.24 -6.44,-44.33 -7.18,-44.29 c -2.29,-14.76 -5.12,-29.49 -7.74,-44.23 -2.51,-14.75 -5.79,-29.44 -8.65,-44.17 l -0.04,-0.15 c -0.15,-0.81 -0.94,-1.34 -1.75,-1.18 -0.75,0.14 -1.27,0.83 -1.21,1.58 l 13.85,178.32 0.01,0.15 2.84,26.34 1.66,26.53 c 1.2,17.68 1.51,35.44 2.31,53.16 1.02,35.47 1.67,70.96 1.98,106.45 0.55,71 0.12,142.01 -0.33,213 -0.81,71 -2.25,142 -4.9,212.95 -1.33,35.47 -3.1,70.92 -5.38,106.33 -1.53,17.67 -2.37,35.42 -4.46,53.02 l -2.94,26.42 -4.6,26.08 c -0.14,0.81 0.39,1.6 1.21,1.75 0.75,0.14 1.49,-0.33 1.71,-1.04"
             style="fill:#af4fb6;fill-opacity:1;fill-rule:nonzero;stroke:none"
             id="path116" /><path
             d="m 2006.41,4705.12 c 2.44,-8.61 5.25,-17.4 7.42,-26.25 2.03,-8.8 3.59,-17.69 5.42,-26.57 3.45,-17.77 5.84,-35.57 8.51,-53.43 5,-35.65 8.38,-71.42 11.72,-107.15 5.86,-71.51 9.59,-143.1 11.29,-214.71 0.43,-35.8 1.64,-71.6 1.24,-107.42 -0.24,-35.82 -0.65,-71.65 -1.45,-107.47 -1.39,-35.83 -2.73,-71.69 -4.93,-107.56 -1.46,-18 -2.74,-35.89 -4.45,-53.95 l -2.76,-27.12 c -1.24,-9.16 -2.98,-18.69 -4.48,-27.94 l 0.17,1.49 -5.85,-44.78 -6.59,-44.72 c -2.1,-14.92 -4.71,-29.8 -7.15,-44.69 -2.31,-14.9 -5.4,-29.76 -8.07,-44.63 l -0.03,-0.17 c -0.14,-0.81 -0.92,-1.34 -1.73,-1.2 -0.76,0.14 -1.28,0.81 -1.23,1.56 l 11.44,179.91 0.01,0.06 0.01,0.11 c 4.22,35.21 4.5,71.13 5.79,106.74 0.78,35.7 1.26,71.43 1.49,107.14 0.35,71.44 -0.06,142.89 -0.35,214.34 -0.63,71.45 -1.74,142.89 -3.8,214.3 l -1.81,53.55 -2.46,53.51 c -2.53,35.53 -3.57,71.53 -10.28,106.35 -0.17,0.81 0.36,1.6 1.17,1.76 0.77,0.16 1.52,-0.32 1.74,-1.06"
             style="fill:#af4fb6;fill-opacity:1;fill-rule:nonzero;stroke:none"
             id="path118" /><path
             d="m 2225.82,4716.25 c 10.53,-35.3 14.67,-71.38 19.44,-107.25 4.64,-35.9 7.58,-71.88 10.73,-107.86 5.31,-71.94 8.74,-143.95 10.27,-215.96 0.36,-36.01 1.5,-72.02 1.12,-108.04 -0.27,-36.01 -0.63,-72.05 -1.33,-108.07 -1.36,-36.04 -2.49,-72.08 -4.52,-108.16 l -3.93,-54.18 -2.51,-27.31 c -0.86,-8.93 -2.74,-19.02 -4.12,-28.38 l 0.18,1.73 -5.25,-45.21 -6,-45.18 c -1.9,-15.06 -4.32,-30.1 -6.55,-45.14 -2.12,-15.06 -5.01,-30.07 -7.48,-45.1 l -0.03,-0.15 c -0.13,-0.82 -0.91,-1.37 -1.72,-1.24 -0.76,0.13 -1.29,0.8 -1.25,1.55 l 9.05,181.48 v 0.01 l 0.02,0.19 c 3.66,35.43 3.72,71.6 4.65,107.46 0.62,35.93 0.9,71.88 1.09,107.82 l -0.35,215.68 c -0.45,71.9 -1.26,143.79 -2.78,215.67 -0.86,35.93 -1.84,71.86 -3.27,107.78 -1.91,35.78 -2.5,72.05 -8.37,107.15 -0.15,0.82 0.38,1.6 1.2,1.76 0.75,0.14 1.49,-0.34 1.71,-1.05"
             style="fill:#af4fb6;fill-opacity:1;fill-rule:nonzero;stroke:none"
             id="path120" /><path
             d="m 2441.17,4720.32 c 4.97,-17.83 7.87,-35.99 10.6,-54.02 2.56,-18.02 4.95,-36.14 6.82,-54.21 4.26,-36.15 6.85,-72.35 9.76,-108.54 4.84,-72.39 7.97,-144.82 9.33,-217.25 0.31,-36.22 1.37,-72.44 1,-108.66 l -1.24,-108.68 c -1.28,-36.24 -2.28,-72.48 -4.12,-108.75 l -3.5,-54.46 c -1.4,-18.39 -2.57,-36.04 -5.87,-56.28 l 0.19,1.96 -4.66,-45.65 -5.41,-45.62 c -1.7,-15.2 -3.92,-30.4 -5.96,-45.59 -1.92,-15.2 -4.62,-30.37 -6.9,-45.56 l -0.02,-0.16 c -0.12,-0.82 -0.88,-1.37 -1.7,-1.26 -0.76,0.12 -1.3,0.79 -1.27,1.54 l 6.66,183.05 0.01,0.24 c 2.94,35.64 2.83,72.09 3.49,108.16 l 0.68,108.51 -0.3,217.04 c -0.29,72.35 -0.8,144.69 -1.85,217.03 -0.62,36.17 -1.25,72.33 -2.3,108.48 -1.38,36.04 -1.6,72.57 -6.35,107.98 l -0.02,0.1 c -0.11,0.82 0.47,1.58 1.29,1.69 0.75,0.1 1.45,-0.37 1.64,-1.09"
             style="fill:#af4fb6;fill-opacity:1;fill-rule:nonzero;stroke:none"
             id="path122" /><path
             d="m 2652.47,4724.4 c 4.46,-18.26 6.79,-36.4 9.2,-54.61 2.36,-18.16 4.37,-36.39 6.09,-54.57 3.87,-36.41 6.17,-72.82 8.82,-109.24 4.41,-72.83 7.26,-145.68 8.46,-218.54 0.27,-36.43 1.25,-72.85 0.89,-109.29 l -1.18,-109.31 c -1.19,-36.44 -2.09,-72.88 -3.74,-109.35 l -3.12,-54.75 -1.85,-27.52 -1.28,-14 -1.89,-15.32 0.19,2.18 -4.06,-46.08 -4.82,-46.05 c -1.5,-15.37 -3.52,-30.71 -5.37,-46.05 -1.72,-15.35 -4.22,-30.68 -6.3,-46.02 l -0.02,-0.16 c -0.11,-0.82 -0.87,-1.4 -1.69,-1.28 -0.76,0.1 -1.31,0.76 -1.29,1.51 l 4.26,184.63 0.03,0.27 c 2.07,35.86 1.85,72.57 2.25,108.87 l 0.31,109.2 -0.24,218.41 -0.98,218.41 -1.37,109.18 c -0.88,36.27 -0.83,73.07 -4.22,108.77 l -0.02,0.21 c -0.08,0.82 0.53,1.55 1.35,1.63 0.74,0.07 1.41,-0.43 1.59,-1.13"
             style="fill:#af4fb6;fill-opacity:1;fill-rule:nonzero;stroke:none"
             id="path124" /><path
             d="m 2858.24,4742.24 c 2.6,-18.21 3.82,-36.56 5.17,-54.86 1.38,-18.31 2.46,-36.63 3.45,-54.94 2.21,-36.63 3.5,-73.27 5.01,-109.9 2.52,-73.28 4.13,-146.56 4.82,-219.83 0.77,-73.29 0.51,-146.57 -0.18,-219.85 l -2.12,-109.94 -1.77,-54.98 -1.01,-27.54 -0.68,-13.78 -1.11,-14.95 0.1,1.3 c -1.44,-31.02 -3.07,-62.04 -5.02,-93.05 -1.83,-31.02 -4.08,-62.03 -6.66,-93.04 -1.78,31.07 -3.23,62.12 -4.27,93.18 -1.15,31.05 -1.98,62.09 -2.62,93.15 l 0.1,1.3 -3.47,218.39 c -0.49,73.24 -0.88,146.5 -0.33,219.75 0.36,73.25 1.57,146.51 3.27,219.77 1.05,36.63 1.93,73.26 3.38,109.89 1.1,36.65 3.27,73.25 3.94,109.93"
             style="fill:#af4fb6;fill-opacity:1;fill-rule:nonzero;stroke:none"
             id="path126" /><path
             d="m 3061.41,3687.86 c -6.2,89.37 -9.45,178.76 -11.66,268.14 -1.38,44.69 -1.69,89.38 -2.5,134.07 l -0.83,134.08 0.79,134.07 c 0.84,44.69 1.1,89.38 2.5,134.07 2.2,89.38 5.46,178.76 11.7,268.14 6.25,-89.38 9.52,-178.76 11.71,-268.14 1.4,-44.69 1.66,-89.38 2.5,-134.07 l 0.78,-134.07 -0.82,-134.08 c -0.81,-44.69 -1.12,-89.38 -2.51,-134.07 -2.2,-89.38 -5.45,-178.77 -11.66,-268.14"
             style="fill:#af4fb6;fill-opacity:1;fill-rule:nonzero;stroke:none"
             id="path128" /><path
             d="m 5049.73,4559.93 c -17.29,-76.37 -26.19,-154.43 -32.65,-232.46 -6.24,-78.09 -9.36,-156.44 -10.16,-234.77 -1.22,-78.33 -0.09,-156.74 4.9,-234.9 2.4,-39.09 6.14,-78.09 11.57,-116.85 l 17.53,-116.29 c 0.11,-0.82 -0.44,-1.57 -1.26,-1.69 -0.75,-0.12 -1.44,0.34 -1.65,1.04 l -0.06,0.2 c -11.52,37.91 -20.9,76.06 -30.21,114.38 -8.54,38.94 -15.18,78.22 -19.44,117.62 -5.08,39.36 -7.01,78.87 -9.44,118.36 -0.97,19.74 -1.03,39.5 -1.6,59.25 l -0.32,59.26 c 1.02,39.48 2.33,78.96 4.78,118.38 3.33,39.38 6.19,78.79 11.79,117.98 10.46,78.24 25.32,156.86 53.3,231.2 l 0.06,0.15 c 0.3,0.77 1.15,1.16 1.93,0.87 0.71,-0.27 1.09,-1.01 0.93,-1.73"
             style="fill:#af4fb6;fill-opacity:1;fill-rule:nonzero;stroke:none"
             id="path130" /><path
             d="m 4805.97,4631.63 c -17.51,-82.29 -23.04,-166.75 -28.04,-250.74 -4.56,-84.12 -6.62,-168.38 -6.81,-252.62 -0.52,-84.23 0.6,-168.53 5.98,-252.56 2.77,-42.01 8.84,-83.63 13.7,-125.55 l 15.2,-125.54 c 0.1,-0.81 -0.48,-1.57 -1.31,-1.66 -0.75,-0.09 -1.43,0.39 -1.62,1.1 l -0.05,0.19 c -10.76,41.13 -19.27,82.48 -27.91,123.79 l -11.99,62.37 c -4.47,21.09 -6.52,42.36 -9.53,63.6 -5.08,42.36 -7.66,84.85 -9.87,127.22 -1.24,21.2 -1.43,42.41 -1.85,63.6 -0.51,21.19 -0.62,42.38 -0.73,63.56 0.11,21.2 0.72,42.38 1.25,63.55 0.49,21.18 1.09,42.35 2.24,63.52 1.07,21.15 2.61,42.3 4.08,63.44 1.18,21.15 3.39,42.27 5.61,63.36 2.08,21.09 4.59,42.2 7.41,63.24 2.87,21.03 6.43,42.05 9.73,63.01 8.31,41.76 16.52,83.78 31.59,123.83 l 0.05,0.13 c 0.3,0.78 1.16,1.17 1.94,0.88 0.7,-0.27 1.08,-1 0.93,-1.72"
             style="fill:#af4fb6;fill-opacity:1;fill-rule:nonzero;stroke:none"
             id="path132" /><path
             d="m 4570.33,4668.02 c -8.98,-41.55 -11.74,-84.35 -15.24,-126.79 -3.01,-42.55 -5.23,-85.16 -6.76,-127.81 -3.22,-85.28 -4.62,-170.63 -4.76,-255.97 -0.48,-85.33 0.02,-170.72 4.03,-255.93 1.74,-42.62 7.59,-84.81 11.05,-127.43 l 11.71,-127.57 c 0.08,-0.82 -0.53,-1.55 -1.35,-1.63 -0.75,-0.07 -1.42,0.44 -1.59,1.16 l -0.04,0.19 c -9.63,41.95 -16.98,84.02 -24.45,126.02 -3.66,21.16 -6.42,41.76 -10.54,63.37 -0.92,5.37 -2.05,10.74 -2.8,16.13 l -1.94,16.17 c -1.24,10.77 -2.7,21.61 -3.58,32.31 l -3.03,32.22 c -0.95,10.74 -1.35,21.45 -2.05,32.18 -1.36,21.47 -2.31,42.91 -3.27,64.34 -1.55,42.88 -1.81,85.73 -2.13,128.58 0.59,42.85 1.26,85.67 2.94,128.49 0.96,21.4 2.18,42.8 3.45,64.2 l 1.93,32.08 2.78,32.07 c 3.37,42.74 8.46,85.45 14.55,128.03 7.13,42.42 13.39,85.33 28.17,126.3 l 0.05,0.12 c 0.27,0.78 1.13,1.18 1.91,0.9 0.72,-0.26 1.12,-1 0.96,-1.73"
             style="fill:#af4fb6;fill-opacity:1;fill-rule:nonzero;stroke:none"
             id="path134" /><path
             d="m 4342.8,4686.22 -4.59,-26.08 -2.95,-26.42 c -2.08,-17.6 -2.93,-35.35 -4.45,-53.02 -2.29,-35.41 -4.05,-70.86 -5.39,-106.33 -2.64,-70.95 -4.08,-141.95 -4.9,-212.95 -0.44,-70.99 -0.87,-142 -0.33,-213 0.32,-35.49 0.96,-70.98 1.99,-106.45 0.8,-17.72 1.11,-35.48 2.3,-53.16 l 1.66,-26.53 2.84,-26.34 0.02,-0.15 13.84,-178.32 c 0.06,-0.82 -0.56,-1.55 -1.38,-1.61 -0.76,-0.06 -1.44,0.46 -1.58,1.21 l -0.03,0.15 c -2.86,14.73 -6.15,29.42 -8.66,44.17 -2.63,14.74 -5.44,29.47 -7.74,44.23 l -7.18,44.29 -6.44,44.33 0.15,-1.24 c -12.73,73.18 -15.11,143.54 -18.15,215.08 -0.91,35.65 -1.36,71.27 -1.59,106.89 -0.41,35.62 0.87,71.23 1.36,106.83 1.88,71.2 5.95,142.38 12.39,213.45 3.61,35.52 7.36,71.06 12.85,106.45 3.02,17.72 5.33,35.38 9.36,52.99 1.95,8.8 3.63,17.61 5.81,26.32 l 7.87,25.92 c 0.24,0.79 1.08,1.24 1.88,1 0.74,-0.23 1.17,-0.98 1.04,-1.71"
             style="fill:#af4fb6;fill-opacity:1;fill-rule:nonzero;stroke:none"
             id="path136" /><path
             d="m 4119.33,4704.42 c -6.71,-34.82 -7.75,-70.82 -10.28,-106.35 l -2.46,-53.51 -1.81,-53.55 c -2.06,-71.41 -3.17,-142.85 -3.8,-214.3 -0.29,-71.45 -0.7,-142.9 -0.35,-214.34 0.23,-35.71 0.72,-71.44 1.5,-107.14 1.29,-35.61 1.56,-71.53 5.78,-106.74 l 0.01,-0.11 0.01,-0.06 11.44,-179.91 c 0.05,-0.82 -0.57,-1.53 -1.39,-1.58 -0.78,-0.05 -1.44,0.49 -1.58,1.22 l -0.03,0.17 c -2.66,14.87 -5.75,29.73 -8.06,44.63 -2.43,14.89 -5.05,29.77 -7.14,44.69 l -6.6,44.72 -5.84,44.78 0.15,-1.49 c -1.48,9.25 -3.23,18.78 -4.46,27.94 l -2.77,27.12 c -1.71,18.06 -2.99,35.95 -4.45,53.95 -2.2,35.87 -3.54,71.73 -4.93,107.56 -0.8,35.82 -1.21,71.65 -1.45,107.47 -0.39,35.82 0.82,71.62 1.24,107.42 1.7,71.61 5.44,143.2 11.29,214.71 3.34,35.73 6.72,71.5 11.73,107.15 2.67,17.86 5.04,35.66 8.51,53.43 1.82,8.88 3.39,17.77 5.41,26.57 2.17,8.85 4.99,17.64 7.41,26.25 0.23,0.8 1.06,1.26 1.86,1.04 0.75,-0.22 1.21,-0.99 1.06,-1.74"
             style="fill:#af4fb6;fill-opacity:1;fill-rule:nonzero;stroke:none"
             id="path138" /><path
             d="m 3899.92,4715.54 c -5.86,-35.1 -6.46,-71.37 -8.37,-107.15 -1.43,-35.92 -2.41,-71.85 -3.27,-107.78 -1.52,-71.88 -2.34,-143.77 -2.78,-215.67 l -0.35,-215.68 c 0.2,-35.94 0.47,-71.89 1.09,-107.82 0.94,-35.86 0.99,-72.03 4.65,-107.46 l 0.03,-0.19 v 0 l 9.05,-181.49 c 0.04,-0.82 -0.6,-1.52 -1.43,-1.56 -0.76,-0.04 -1.42,0.51 -1.55,1.25 l -0.02,0.15 c -2.47,15.03 -5.37,30.04 -7.48,45.1 -2.24,15.04 -4.66,30.08 -6.55,45.14 l -6.01,45.18 -5.25,45.21 0.17,-1.73 c -1.36,9.36 -3.25,19.45 -4.1,28.38 l -2.53,27.31 -3.92,54.18 c -2.03,36.08 -3.16,72.12 -4.52,108.16 -0.7,36.02 -1.06,72.06 -1.32,108.07 -0.38,36.02 0.76,72.03 1.12,108.04 1.52,72.01 4.95,144.02 10.26,215.96 3.15,35.98 6.1,71.96 10.74,107.86 4.77,35.87 8.9,71.95 19.43,107.25 0.23,0.8 1.07,1.25 1.86,1.01 0.74,-0.22 1.18,-0.98 1.05,-1.72"
             style="fill:#af4fb6;fill-opacity:1;fill-rule:nonzero;stroke:none"
             id="path140" /><path
             d="m 3684.58,4719.62 c -4.76,-35.41 -4.97,-71.94 -6.35,-107.98 -1.05,-36.15 -1.69,-72.31 -2.31,-108.48 -1.05,-72.34 -1.56,-144.68 -1.84,-217.03 l -0.31,-217.04 0.69,-108.51 c 0.65,-36.07 0.54,-72.52 3.48,-108.16 l 0.02,-0.24 6.66,-183.05 c 0.03,-0.82 -0.62,-1.52 -1.45,-1.55 -0.76,-0.02 -1.41,0.53 -1.53,1.27 l -0.02,0.16 c -2.28,15.19 -4.98,30.36 -6.9,45.56 -2.04,15.19 -4.25,30.39 -5.96,45.59 l -5.4,45.62 -4.67,45.65 0.19,-1.96 c -3.3,20.24 -4.47,37.89 -5.87,56.28 l -3.5,54.46 c -1.84,36.27 -2.83,72.51 -4.11,108.75 l -1.24,108.68 c -0.37,36.22 0.68,72.44 0.99,108.66 1.36,72.43 4.5,144.86 9.33,217.25 2.91,36.19 5.5,72.39 9.77,108.54 1.86,18.07 4.24,36.19 6.8,54.21 2.75,18.03 5.64,36.19 10.61,54.02 0.22,0.8 1.04,1.27 1.84,1.04 0.74,-0.2 1.19,-0.91 1.09,-1.64 l -0.01,-0.1"
             style="fill:#af4fb6;fill-opacity:1;fill-rule:nonzero;stroke:none"
             id="path142" /><path
             d="m 3473.28,4723.69 c -3.39,-35.7 -3.33,-72.5 -4.21,-108.77 l -1.38,-109.18 -0.97,-218.41 -0.26,-218.41 0.32,-109.2 c 0.4,-36.3 0.19,-73.01 2.26,-108.87 l 0.02,-0.27 4.27,-184.63 c 0.02,-0.82 -0.64,-1.51 -1.47,-1.53 -0.77,-0.01 -1.41,0.56 -1.51,1.3 l -0.03,0.16 c -2.08,15.34 -4.58,30.67 -6.3,46.02 -1.84,15.34 -3.87,30.68 -5.37,46.05 l -4.81,46.05 -4.08,46.08 0.21,-2.18 -1.9,15.32 -1.28,14 -1.84,27.52 -3.13,54.75 c -1.65,36.47 -2.55,72.91 -3.74,109.35 l -1.18,109.31 c -0.35,36.44 0.63,72.86 0.89,109.29 1.2,72.86 4.05,145.71 8.46,218.54 2.65,36.42 4.96,72.83 8.83,109.24 1.7,18.18 3.72,36.41 6.09,54.57 2.41,18.21 4.74,36.35 9.2,54.61 0.19,0.8 1,1.29 1.8,1.09 0.73,-0.18 1.21,-0.86 1.13,-1.59 l -0.02,-0.21"
             style="fill:#af4fb6;fill-opacity:1;fill-rule:nonzero;stroke:none"
             id="path144" /><path
             d="m 3264.59,4742.24 c 0.65,-36.68 2.82,-73.28 3.91,-109.93 1.46,-36.63 2.3,-73.26 3.38,-109.89 1.69,-73.26 2.9,-146.52 3.28,-219.77 l 0.31,-109.88 -0.58,-109.87 -3.47,-218.38 0.11,-1.31 c -0.66,-31.05 -1.48,-62.1 -2.64,-93.15 -1.04,-31.06 -2.51,-62.11 -4.3,-93.18 -2.59,31.01 -4.86,62.02 -6.69,93.04 -1.96,31 -3.58,62.03 -5.04,93.05 l 0.12,-1.3 -1.13,14.95 -0.66,13.78 -1.02,27.54 -1.77,54.98 -2.11,109.94 -0.66,109.92 0.53,109.93 c 0.71,73.27 2.32,146.55 4.84,219.83 1.54,36.63 2.79,73.27 5.01,109.9 0.97,18.31 2.06,36.63 3.43,54.93 1.34,18.31 2.56,36.66 5.15,54.87"
             style="fill:#af4fb6;fill-opacity:1;fill-rule:nonzero;stroke:none"
             id="path146" /><path
             d="m 1076.05,4560.64 c 27.98,-74.34 42.84,-152.96 53.3,-231.2 5.6,-39.19 8.47,-78.6 11.79,-117.98 2.45,-39.42 3.76,-78.9 4.78,-118.38 l -0.33,-59.26 c -0.56,-19.75 -0.62,-39.51 -1.59,-59.25 -2.43,-39.49 -4.36,-79 -9.44,-118.36 -4.25,-39.39 -10.89,-78.68 -19.44,-117.62 -9.31,-38.32 -18.69,-76.47 -30.21,-114.38 l -0.05,-0.2 c -0.24,-0.79 -1.08,-1.24 -1.87,-1 -0.72,0.22 -1.15,0.93 -1.04,1.65 l 17.52,116.29 c 5.43,38.76 9.17,77.76 11.57,116.85 4.98,78.16 6.12,156.57 4.9,234.9 -0.8,78.33 -3.92,156.68 -10.16,234.77 -6.46,78.03 -15.36,156.09 -32.65,232.46 -0.18,0.81 0.32,1.61 1.13,1.79 0.74,0.17 1.47,-0.24 1.73,-0.93 l 0.06,-0.15"
             style="fill:#af4fb6;fill-opacity:1;fill-rule:nonzero;stroke:none"
             id="path148" /><path
             d="m 5064.46,3609.07 c 0,-80.78 -896.8,-146.28 -2003.05,-146.28 -1106.25,0 -2003.04,65.5 -2003.04,146.28 0,80.78 896.79,146.28 2003.04,146.28 1106.25,0 2003.05,-65.5 2003.05,-146.28"
             style="fill:#af4fb6;fill-opacity:1;fill-rule:nonzero;stroke:none"
             id="path150" /></g></g><path
         d="m 5172.57,4419.53 c 0.14,22.41 -11.66,43.08 -27.84,58.32 -16.23,15.45 -35.93,26.98 -56.13,36.9 -40.79,19.48 -84.37,32.75 -128.23,43.99 -87.94,22.23 -177.78,36.31 -267.67,48.63 -179.99,23.87 -361.07,39 -542.27,50.72 -362.49,22.94 -725.81,31.31 -1089.01,31.31 -363.2,0.02 -726.52,-8.37 -1089.02,-31.3 -181.2,-11.72 -362.28,-26.86 -542.27,-50.72 -89.89,-12.32 -179.73,-26.41 -267.67,-48.64 -43.85,-11.24 -87.44,-24.51 -128.22,-43.99 -20.2,-9.92 -39.916,-21.45 -56.142,-36.9 -16.172,-15.24 -27.973,-35.91 -27.832,-58.32 0.004,-1.1 -0.883,-2 -1.989,-2.01 -1.078,0 -1.957,0.84 -2.011,1.91 l -0.004,0.1 c -1.098,23.67 10.843,46.53 27.246,63.08 16.445,16.85 36.352,29.47 56.682,40.44 41.19,21.23 85,35.83 128.99,48.48 88.22,25.01 178.15,41.74 268.12,56.73 180.33,27.53 361.62,45.72 543.09,60.8 l 136.16,10.51 c 45.41,3.03 90.85,5.64 136.29,8.04 90.89,4.92 181.81,9 272.75,12.3 181.89,6.36 363.87,8.64 545.83,9.47 181.96,-0.72 363.93,-3.16 545.82,-9.37 90.95,-3.32 181.87,-7.4 272.75,-12.32 45.45,-2.38 90.88,-5.08 136.3,-7.99 l 136.16,-10.52 c 181.47,-15.08 362.75,-33.34 543.09,-60.82 89.98,-15.01 179.91,-31.76 268.12,-56.78 43.99,-12.66 87.8,-27.28 128.99,-48.5 20.34,-10.98 40.24,-23.6 56.68,-40.46 16.41,-16.56 28.34,-39.42 27.24,-63.09 l -0.01,-0.1 c -0.05,-1.1 -0.99,-1.96 -2.09,-1.9 -1.07,0.04 -1.9,0.94 -1.9,2"
         style="fill:#ffffff;fill-opacity:1;fill-rule:nonzero;stroke:none"
         id="path152" /><g
         id="g242"
         style="stroke:#ffffff"><g
           id="g244"
           clip-path="url(#clipPath248)"
           style="stroke:#ffffff"><path
             d="m 4641.58,-237.43 c 30.63,119.032 75.79,234.18 134.2,341.34 139.18,255.332 402.44,454.961 473.13,745.211 21.58,88.559 16.82,200.839 -23.81,283.389 -44.71,90.85 -173.39,107.78 -234.51,24.09 -64.73,-88.63 -17.05,-227.159 45.47,-303.741 98.73,-120.929 280.97,-179.89 429.89,-127.418 143.87,50.68 228.59,185.739 273.74,324.239 52.99,162.5 72.5,336.25 164.4,483.96 98.51,158.31 258.39,278.36 439.14,325.36"
             style="fill:none;stroke:#ffffff;stroke-width:35;stroke-linecap:round;stroke-linejoin:round;stroke-miterlimit:10;stroke-dasharray:110, 110;stroke-dashoffset:0;stroke-opacity:1"
             id="path250" /></g></g><g
         id="g252"
         style="stroke:#ffffff"><g
           id="g254"
           clip-path="url(#clipPath258)"
           style="stroke:#ffffff"><path
             d="m -50.2617,6920.84 c 124.9453,582.25 395.8167,721.66 593.1877,823.94 121.074,62.74 486.804,98.33 739.304,-82.32 125.82,-90.03 107.65,-241.38 48.1,-285.96 -81.33,-60.91 -212.9,-26.43 -246.69,110.61 -60.08,243.62 44.86,463.23 207.29,550.25 178.61,95.69 568.75,91.28 516.14,658.34"
             style="fill:none;stroke:#ffffff;stroke-width:34.4333;stroke-linecap:round;stroke-linejoin:round;stroke-miterlimit:4;stroke-dasharray:108.127, 108.127;stroke-dashoffset:0;stroke-opacity:1"
             id="path260" /></g></g><path
         d="m 5361.2,3020.31 v 184.06"
         style="fill:none;stroke:#ffffff;stroke-width:35;stroke-linecap:round;stroke-linejoin:round;stroke-miterlimit:10;stroke-dasharray:none;stroke-opacity:1"
         id="path262" /><path
         d="m 5545.8,3303.81 v 184.06"
         style="fill:none;stroke:#ffffff;stroke-width:35;stroke-linecap:round;stroke-linejoin:round;stroke-miterlimit:10;stroke-dasharray:none;stroke-opacity:1"
         id="path264" /><path
         d="M 761.633,1036.05 V 851.992"
         style="fill:none;stroke:#ffffff;stroke-width:35;stroke-linecap:round;stroke-linejoin:round;stroke-miterlimit:10;stroke-dasharray:none;stroke-opacity:1"
         id="path266" /><path
         d="M 577.035,1311.43 V 1127.38"
         style="fill:none;stroke:#ffffff;stroke-width:35;stroke-linecap:round;stroke-linejoin:round;stroke-miterlimit:10;stroke-dasharray:none;stroke-opacity:1"
         id="path268" /><path
         d="M 946.227,752.559 V 568.492"
         style="fill:none;stroke:#ffffff;stroke-width:35;stroke-linecap:round;stroke-linejoin:round;stroke-miterlimit:10;stroke-dasharray:none;stroke-opacity:1"
         id="path270" /><path
         d="M 577.035,752.559 V 568.492"
         style="fill:none;stroke:#ffffff;stroke-width:35;stroke-linecap:round;stroke-linejoin:round;stroke-miterlimit:10;stroke-dasharray:none;stroke-opacity:1"
         id="path272" /><path
         d="m 761.633,6595.24 v 184.05"
         style="fill:none;stroke:#ffffff;stroke-width:35;stroke-linecap:round;stroke-linejoin:round;stroke-miterlimit:10;stroke-dasharray:none;stroke-opacity:1"
         id="path274" /><path
         d="m 577.035,6319.86 v 184.05"
         style="fill:none;stroke:#ffffff;stroke-width:35;stroke-linecap:round;stroke-linejoin:round;stroke-miterlimit:10;stroke-dasharray:none;stroke-opacity:1"
         id="path276" /><path
         d="m 577.035,6878.73 v 184.06"
         style="fill:none;stroke:#ffffff;stroke-width:35;stroke-linecap:round;stroke-linejoin:round;stroke-miterlimit:10;stroke-dasharray:none;stroke-opacity:1"
         id="path278" /><path
         d="M 5361.2,7552.93 V 7737"
         style="fill:none;stroke:#ffffff;stroke-width:35;stroke-linecap:round;stroke-linejoin:round;stroke-miterlimit:10;stroke-dasharray:none;stroke-opacity:1"
         id="path280" /><path
         d="m 5545.8,7277.55 v 184.06"
         style="fill:none;stroke:#ffffff;stroke-width:35;stroke-linecap:round;stroke-linejoin:round;stroke-miterlimit:10;stroke-dasharray:none;stroke-opacity:1"
         id="path282" /><path
         d="m 5176.6,7836.43 v 184.05"
         style="fill:none;stroke:#ffffff;stroke-width:35;stroke-linecap:round;stroke-linejoin:round;stroke-miterlimit:10;stroke-dasharray:none;stroke-opacity:1"
         id="path284" /><path
         d="m 5545.8,7836.43 v 184.05"
         style="fill:none;stroke:#ffffff;stroke-width:35;stroke-linecap:round;stroke-linejoin:round;stroke-miterlimit:10;stroke-dasharray:none;stroke-opacity:1"
         id="path286" /><text
         xml:space="preserve"
         style="font-size:640px;font-family:C059;-inkscape-font-specification:C059;fill:#000000;stroke:#000000;stroke-width:15.00000038;stroke-dasharray:360.000009,360.000009;stroke-opacity:0.999103;stroke-miterlimit:4;stroke-dashoffset:0"
         x="1604.791"
         y="-5895.2261"
         id="text7330"
         transform="scale(1,-1)"><tspan
           sodipodi:role="line"
           id="tspan7328"
           style="font-style:normal;font-variant:normal;font-weight:normal;font-stretch:normal;font-size:640px;font-family:Purisa;-inkscape-font-specification:Purisa;fill:#000000;stroke:#000000;stroke-width:15.00000038;stroke-miterlimit:4;stroke-dasharray:360.000009,360.000009;stroke-dashoffset:0"
           x="1604.791"
           y="-5895.2261">Agasalho</tspan></text><text
         xml:space="preserve"
         style="font-style:normal;font-variant:normal;font-weight:normal;font-stretch:normal;font-size:640px;font-family:Purisa;-inkscape-font-specification:Purisa;fill:#000000;stroke:#000000;stroke-width:15.00000038;stroke-dasharray:360.000009,360.000009;stroke-opacity:0.999103;stroke-miterlimit:4;stroke-dashoffset:0"
         x="1653.5273"
         y="-4946.231"
         id="text27630"
         transform="scale(1,-1)"><tspan
           sodipodi:role="line"
           id="tspan27628"
           style="stroke-width:15.00000038;stroke:#000000;fill:#000000;stroke-miterlimit:4;stroke-dasharray:360.000009,360.000009;stroke-dashoffset:0"
           x="1653.5273"
           y="-4946.231">Solidário</tspan></text><text
         xml:space="preserve"
         style="font-style:normal;font-variant:normal;font-weight:normal;font-stretch:normal;font-size:200px;font-family:mry_KacstQurn;-inkscape-font-specification:mry_KacstQurn;fill:#0e7496;fill-opacity:1;stroke:#ffffff;stroke-width:15;stroke-miterlimit:4;stroke-dasharray:360, 360;stroke-dashoffset:0;stroke-opacity:0.999103"
         x="1472.8247"
         y="-1392.2031"
         id="text117112"
         transform="scale(1,-1)"><tspan
           id="tspan117110"
           style="font-style:normal;font-variant:normal;font-weight:normal;font-stretch:normal;font-size:200px;font-family:mry_KacstQurn;-inkscape-font-specification:mry_KacstQurn;fill:#000000;stroke-width:15"
           x="1472.8247"
           y="-1392.2031"
           sodipodi:role="line" /></text><text
         xml:space="preserve"
         style="font-style:normal;font-variant:normal;font-weight:normal;font-stretch:normal;font-size:200px;font-family:mry_KacstQurn;-inkscape-font-specification:mry_KacstQurn;white-space:pre;inline-size:3718.97;fill:#000000;fill-opacity:1;stroke:none;stroke-width:15;stroke-miterlimit:4;stroke-dasharray:360, 360;stroke-dashoffset:0;stroke-opacity:0.999103"
         x="2136.4438"
         y="-1441.516"
         id="text149848"
         transform="matrix(1,0,0,-1,-894.67467,1165.2849)"><tspan
           x="2136.4438"
           y="-1441.516"
           id="tspan120133"><tspan
             style="font-size:320px;font-family:Dyuthi;-inkscape-font-specification:Dyuthi;text-align:center;text-anchor:middle"
             id="tspan120131">Jutos salvaremos vidas </tspan></tspan><tspan
           x="2136.4438"
           y="-1041.516"
           id="tspan120137"><tspan
   style="font-size:320px;font-family:Dyuthi;-inkscape-font-specification:Dyuthi;text-align:center;text-anchor:middle"
   id="tspan120135">nesse inverno!</tspan> </tspan></text><text
         xml:space="preserve"
         style="font-style:normal;font-variant:normal;font-weight:bold;font-stretch:normal;font-size:320px;font-family:Dyuthi;-inkscape-font-specification:'Dyuthi Bold';text-align:center;text-anchor:middle;white-space:pre;inline-size:3602.68;fill:#000000;stroke-width:15;stroke-dasharray:360, 360;stroke-opacity:0.999103"
         x="3099.8987"
         y="-2432.6472"
         id="text90872"
         transform="matrix(1,0,0,-1,-113.98663,-820.41693)"><tspan
           x="3099.8987"
           y="-2432.6472"
           id="tspan120139">O calor do amor é o melhor<tspan
   y="-2432.6472"
   id="tspan120141"> </tspan></tspan><tspan
           x="3099.8987"
           y="-2032.6472"
           id="tspan120143">agasalho no inverno</tspan></text></g></g></svg>
